<?xml version="1.0" encoding="UTF-8"?>
<svg width="48px" height="48px" viewBox="0 0 48 48" version="1.1" xmlns="http://www.w3.org/2000/svg" xmlns:xlink="http://www.w3.org/1999/xlink">
    <!-- Generator: Sketch 52.5 (67469) - http://www.bohemiancoding.com/sketch -->
    <title>Group</title>
    <desc>Created with Sketch.</desc>
    <g id="Page-1" stroke="none" stroke-width="1" fill="none" fill-rule="evenodd">
        <g id="Group">
            <rect id="Rectangle" fill-opacity="0.01" fill="#FFFFFF" x="0" y="0" width="48" height="48"></rect>
            <g id="ada" transform="translate(0.000000, 10.000000)">
                <g id="g10" transform="translate(24.000000, 14.000000) scale(-1, 1) rotate(-180.000000) translate(-24.000000, -14.000000) ">
                    <polygon id="path12" fill="#D91920" points="0 0 47.8827342 0 47.8827342 27.8055775 0 27.8055775"></polygon>
                    <g id="g14" transform="translate(3.489823, 3.416414)" fill="#FFFFFF" fill-rule="nonzero">
                        <path d="M5.46835443,7.88732394 L8.64,7.88732394 L7.54632911,12.7084507 L7.10886076,15.9619718 L6.99949367,15.9619718 L6.53468354,12.6788732 L5.46835443,7.88732394 Z M9.24151899,4.87042254 L4.73012658,4.87042254 L3.60911392,0.138028169 L0.191392405,0.138028169 L5.74177215,20.9901408 L8.44860759,20.9901408 L14.0263291,0.138028169 L10.4172152,0.138028169 L9.24151899,4.87042254 Z" id="path16"></path>
                    </g>
                    <g id="g26" transform="translate(18.659220, 3.179755)" fill="#FFFFFF" fill-rule="nonzero">
                        <path d="M5.06329114,17.943662 C4.77144304,17.943662 4.4755443,17.9387324 4.17458228,17.9290704 C3.87382278,17.9188169 3.64151899,17.8943662 3.47746835,17.8551268 L3.47746835,3.59859155 C3.5321519,3.57867606 3.62794937,3.56388732 3.7644557,3.55422535 C3.90136709,3.54416901 4.04698734,3.53450704 4.20212658,3.52464789 C4.35665823,3.51459155 4.50268354,3.50473239 4.63939241,3.49526761 C4.7763038,3.48501408 4.87189873,3.48028169 4.92658228,3.48028169 C5.74683544,3.48028169 6.42106329,3.68732394 6.94987342,4.10160563 C7.47827848,4.51549296 7.89306329,5.06740845 8.19402532,5.75774648 C8.49478481,6.44769014 8.704,7.24135211 8.82268354,8.13873239 C8.94116456,9.03571831 9.00050633,9.97726761 9.00050633,10.9635775 C9.00050633,11.8702254 8.95007595,12.7476901 8.85002532,13.5957746 C8.74977215,14.4434648 8.55837975,15.187831 8.27605063,15.8288732 C7.99311392,16.4693239 7.59250633,16.9823944 7.07281013,17.3669014 C6.55331646,17.7514085 5.8835443,17.943662 5.06329114,17.943662 Z M0.0324050633,21.0788732 C0.360506329,21.1380282 0.729721519,21.1823944 1.13964557,21.2119718 C1.54977215,21.2417465 1.96901266,21.2711268 2.39736709,21.3007042 C2.82551899,21.3302817 3.2403038,21.3496056 3.64151899,21.3598592 C4.04212658,21.3695211 4.39756962,21.3746479 4.7078481,21.3746479 C6.22055696,21.3746479 7.48293671,21.1232394 8.49478481,20.6204225 C9.50622785,20.1176056 10.3171646,19.4077465 10.9282025,18.4908451 C11.5386329,17.5739437 11.971443,16.4746479 12.227038,15.1931549 C12.4818228,13.9110704 12.6094177,12.4816901 12.6094177,10.9044225 C12.6094177,9.46478873 12.486481,8.08923944 12.2404051,6.77816901 C11.9943291,5.46670423 11.5611139,4.3131831 10.9417722,3.31760563 C10.3218228,2.3216338 9.48334177,1.52816901 8.42632911,0.936619718 C7.36891139,0.345070423 6.03807595,0.0492957746 4.43443038,0.0492957746 C4.19726582,0.0492957746 3.87807595,0.0595492958 3.47746835,0.0788732394 C3.07625316,0.0987887324 2.65721519,0.123239437 2.21974684,0.152816901 C1.78227848,0.182591549 1.36283544,0.211971831 0.962025316,0.241746479 C0.560810127,0.271126761 0.251139241,0.305830986 0.0324050633,0.345070423 L0.0324050633,21.0788732 Z" id="path28"></path>
                    </g>
                    <g id="g30" transform="translate(31.186430, 3.416414)" fill="#FFFFFF" fill-rule="nonzero">
                        <path d="M5.46835443,7.88732394 L8.64,7.88732394 L7.54653165,12.7084507 L7.10906329,15.9619718 L6.9996962,15.9619718 L6.53488608,12.6788732 L5.46835443,7.88732394 Z M9.24172152,4.87042254 L4.73012658,4.87042254 L3.60911392,0.138028169 L0.191392405,0.138028169 L5.74197468,20.9901408 L8.44881013,20.9901408 L14.0265316,0.138028169 L10.4174177,0.138028169 L9.24172152,4.87042254 Z" id="path32"></path>
                    </g>
                </g>
            </g>
        </g>
    </g>
</svg>