<?xml version="1.0" encoding="UTF-8"?>
<svg width="48px" height="48px" viewBox="0 0 48 48" version="1.1" xmlns="http://www.w3.org/2000/svg" xmlns:xlink="http://www.w3.org/1999/xlink">
    <!-- Generator: Sketch 54 (76480) - https://sketchapp.com -->
    <title>Icon/Store/Alibaba</title>
    <desc>Created with Sketch.</desc>
    <g id="Icon/Store/Alibaba" stroke="none" stroke-width="1" fill="none" fill-rule="evenodd">
        <g id="Group" transform="translate(6.000000, 15.000000)">
            <path d="M4.08817518,15 C3.89060239,14.9550112 3.70624748,14.8685793 3.54874532,14.7470968 C2.00206147,13.3154839 3.98792715,11.6580645 6.24112091,10.7051613 L6.24112091,7.99548387 C6.78055077,8.28 7.04787884,8.3116129 7.08129485,8.37935484 L8.82847475,6.72645161 L8.25562888,5.32645161 C13.3348623,3.63741935 15.38756,3.00516129 19.5263714,2.33677419 L18.7864454,1.65483871 L20.0323852,1 C22.7915928,1.90322581 25.4171364,2.11548387 24.9445385,4.34193548 C25.0782026,2.84709677 23.1305266,2.27354839 20.0992172,1.44709677 L19.5263714,1.79935484 L20.6386471,2.65741935 C16.6720885,3.30611188 12.7764617,4.29624766 9.00032851,5.61548387 L9.50634236,6.82580645 L7.68755673,8.54645161 C10.0010636,9.19670935 12.5029763,8.78383713 14.447138,7.43096774 C14.4830419,7.42876962 14.5116465,7.40170847 14.51397,7.36774194 C14.3497313,7.16348163 14.1570348,6.98118293 13.9411241,6.82580645 C14.3776771,6.86232591 14.7789262,7.06772928 15.0500495,7.3934762 C15.3211727,7.71922311 15.4381143,8.13641117 15.3732388,8.54645161 L14.9531518,8.54645161 C15.0167182,8.2823908 14.9687561,8.00528474 14.8194878,7.77419355 C12.524622,9.42897418 9.50503225,9.88359618 6.78055077,8.98451613 L6.78055077,11.0845161 C5.56802701,11.5 3.34824927,12.7690323 3.38166528,14.0109677 C3.40301822,14.4397331 3.67561963,14.8213436 4.08817518,15 L4.08817518,15 Z" id="Path" fill="#231F20"></path>
            <path d="M14.4764614,15.2871228 C11.6951948,16.7301426 9.05347274,17.8268376 4.98262237,18 C-0.310445483,17.8989886 -1.15252446,14.3395398 1.35446495,10.6117386 C3.72672173,6.85026701 7.47998802,3.49284094 13.4948379,1.35717164 C15.6573225,0.56170935 17.9295432,0.104191716 20.2314697,0.000733028747 C23.7922608,-0.0329374333 27.2183192,1.08780794 27.0114084,4.50776487 C26.8766758,7.11963071 23.1137857,10.8137614 21.1457268,13.4881581 C20.298836,14.6425739 20.1833509,15.3881342 21.5884198,15.3207932 C26.8429926,14.9840886 31.592318,13.1514535 36,11.2514774 C33.0166345,13.2861353 17.5849357,21.0159114 17.5175694,15.7248388 C17.6084261,14.9671931 17.8880351,14.2444532 18.3307771,13.6228399 C18.9105741,12.8014234 19.5456045,12.0203893 20.2314697,11.2851479 C21.2804595,10.0633911 23.8933103,7.18216157 24.7402011,5.42167741 C26.2318839,2.13640233 22.9068749,1.96323996 20.096737,0.948316031 L18.8504602,1.6602058 L19.5963015,2.37209557 C15.4244017,3.08398533 13.3408577,3.76220464 8.23545316,5.55635926 L8.81287875,7.04747972 L7.05173071,8.80796387 C7.01804756,8.74062295 6.74858228,8.70695249 6.20483986,8.39910826 L6.20483986,11.2851479 C3.93363256,12.3000718 1.93189054,14.065366 3.49093961,15.5901569 C3.64970096,15.7195463 3.83552972,15.8116037 4.03468204,15.8595206 L4.03468204,15.8595206 C6.84963176,17.4516525 14.4764614,15.2823127 14.4764614,15.2823127 L14.4764614,15.2871228 Z" id="Path" fill="#F47937"></path>
        </g>
    </g>
</svg>