<?xml version="1.0" encoding="UTF-8"?>
<svg width="48px" height="48px" viewBox="0 0 48 48" version="1.1" xmlns="http://www.w3.org/2000/svg" xmlns:xlink="http://www.w3.org/1999/xlink">
    <!-- Generator: Sketch 54 (76480) - https://sketchapp.com -->
    <title>Icon/Store/Amazon Music</title>
    <desc>Created with Sketch.</desc>
    <defs>
        <path d="M22.3721143,8.66471698 C22.1431886,8.81716981 21.8001771,8.93169811 21.3806057,8.93169811 C20.7324857,8.93169811 20.1222686,8.8554717 19.51224,8.66471698 C19.3596857,8.62641509 19.2452229,8.58830189 19.16904,8.58830189 C19.0545771,8.58830189 19.0164857,8.66471698 19.0164857,8.81716981 L19.0164857,9.19886792 C19.0164857,9.31320755 19.0545771,9.38962264 19.0926686,9.46584906 C19.1309486,9.50396226 19.2071314,9.58037736 19.3215943,9.61849057 C19.9316229,9.8854717 20.6180229,10 21.3806057,10 C22.1814686,10 22.7914971,9.80924528 23.2872514,9.42773585 C23.7828171,9.04622642 24.0117429,8.55018868 24.0117429,7.90169811 C24.0117429,7.44377358 23.89728,7.10037736 23.6685429,6.79509434 C23.4398057,6.52811321 23.0583257,6.2609434 22.52448,6.07018868 L21.4567886,5.65056604 C21.0374057,5.49792453 20.7322971,5.34528302 20.6180229,5.19264151 C20.4654686,5.04018868 20.3892857,4.88754717 20.3892857,4.62037736 C20.3892857,4.04811321 20.8086686,3.74283019 21.6857143,3.74283019 C22.1814686,3.74283019 22.6770343,3.81924528 23.1346971,3.97188679 C23.2872514,4.01 23.4015257,4.04811321 23.4396171,4.04811321 C23.55408,4.04811321 23.6302629,3.97188679 23.6302629,3.81924528 L23.6302629,3.43773585 C23.6302629,3.32320755 23.5921714,3.24698113 23.55408,3.17056604 C23.5159886,3.09433962 23.4396171,3.05622642 23.3253429,3.01792453 C22.7534057,2.82735849 22.1814686,2.71283019 21.6093429,2.71283019 C20.8848514,2.71283019 20.2748229,2.90358491 19.81716,3.24698113 C19.3596857,3.59018868 19.13076,4.08622642 19.13076,4.65849057 C19.13076,5.53603774 19.6265143,6.18471698 20.6180229,6.56622642 L21.7618971,6.98584906 C22.1431886,7.13849057 22.3719257,7.25301887 22.52448,7.40566038 C22.6770343,7.55811321 22.7151257,7.71075472 22.7151257,7.93981132 C22.7151257,8.24490566 22.6008514,8.51207547 22.3721143,8.66471698 Z M26.4520457,0.309056604 C26.2994914,0.156603774 26.0707543,0.0801886792 25.8039257,0.0801886792 C25.5369086,0.0801886792 25.3462629,0.156603774 25.1937086,0.309056604 C25.0411543,0.461886792 24.9649714,0.65245283 24.9649714,0.881509434 C24.9649714,1.11037736 25.0411543,1.33924528 25.1937086,1.45377358 C25.3462629,1.60641509 25.5369086,1.68264151 25.8039257,1.68264151 C26.0707543,1.68264151 26.2614,1.60641509 26.4139543,1.45377358 C26.5665086,1.30113208 26.6426914,1.11037736 26.6426914,0.881509434 C26.6426914,0.65245283 26.6046,0.423584906 26.4520457,0.309056604 Z M26.2233086,2.90358491 L25.4224457,2.90358491 C25.2319886,2.90358491 25.1556171,2.97981132 25.1556171,3.17056604 L25.1556171,9.50396226 C25.1556171,9.69471698 25.2319886,9.77113208 25.4224457,9.77113208 L26.2233086,9.77113208 C26.4139543,9.77113208 26.4901371,9.69471698 26.4901371,9.50396226 L26.4901371,3.17056604 C26.4901371,3.01792453 26.4139543,2.90358491 26.2233086,2.90358491 Z M29.8076743,4.42962264 C30.1508743,4.04811321 30.6845314,3.85735849 31.4473029,3.85735849 C31.8285943,3.85735849 32.2098857,3.8954717 32.5530857,4.01 C32.6675486,4.04811321 32.70564,4.04811321 32.7818229,4.04811321 C32.8962857,4.04811321 32.9724686,3.97188679 32.9724686,3.78113208 L32.9724686,3.39962264 C32.9724686,3.28509434 32.9343771,3.17056604 32.8962857,3.13245283 C32.8580057,3.09433962 32.7818229,3.01792453 32.70564,2.97981132 C32.2098857,2.8654717 31.7141314,2.7509434 31.2566571,2.7509434 C30.1889657,2.7509434 29.3881029,3.05622642 28.7780743,3.70471698 C28.2061371,4.31528302 27.9010286,5.2309434 27.9010286,6.3754717 C27.9010286,7.52 28.1680457,8.39754717 28.7399829,9.00811321 C29.31192,9.61849057 30.1125943,9.92358491 31.1802857,9.92358491 C31.7522229,9.92358491 32.2862571,9.84735849 32.70564,9.65660377 C32.8201029,9.61849057 32.8962857,9.58037736 32.9343771,9.50396226 C32.9724686,9.46584906 32.9724686,9.35132075 32.9724686,9.23698113 L32.9724686,8.8554717 C32.9724686,8.6645283 32.8962857,8.58830189 32.7818229,8.58830189 C32.7437314,8.58830189 32.6675486,8.58830189 32.5911771,8.62641509 C32.1717943,8.7409434 31.7524114,8.81716981 31.3709314,8.81716981 C30.6466286,8.81716981 30.1127829,8.62641509 29.7695829,8.24490566 C29.4263829,7.86339623 29.2738286,7.25301887 29.2738286,6.45169811 L29.2738286,6.2609434 C29.31192,5.42169811 29.4644743,4.81113208 29.8076743,4.42962264 Z M9.14043429,9.77113208 L9.94129714,9.77113208 C10.1319429,9.77113208 10.2081257,9.69471698 10.2081257,9.50396226 L10.2081257,4.73490566 C10.2081257,4.08622642 10.0555714,3.59018868 9.71256,3.24698113 C9.36936,2.90358491 8.91169714,2.71283019 8.26338857,2.71283019 C7.38653143,2.71283019 6.47139429,3.01792453 5.59434857,3.66660377 C5.28924,3.01792453 4.71730286,2.71283019 3.87834857,2.71283019 C3.03958286,2.71283019 2.20062857,3.01792453 1.36167429,3.59018868 L1.28549143,3.17056604 C1.28549143,3.05622642 1.2474,3.01792453 1.17102857,2.97981132 C1.13293714,2.94169811 1.05675429,2.94169811 0.980382857,2.94169811 L0.370354286,2.94169811 C0.179708571,2.94169811 0.103525714,3.01792453 0.103525714,3.20886792 L0.103525714,9.54226415 C0.103525714,9.73301887 0.179708571,9.80924528 0.370354286,9.80924528 L1.17102857,9.80924528 C1.36167429,9.80924528 1.43804571,9.73301887 1.43804571,9.54226415 L1.43804571,4.39150943 C2.08616571,4.01 2.73447429,3.78113208 3.42087429,3.78113208 C3.80216571,3.78113208 4.06918286,3.8954717 4.22154857,4.1245283 C4.37410286,4.35339623 4.48856571,4.65849057 4.48856571,5.11641509 L4.48856571,9.50396226 C4.48856571,9.69471698 4.56474857,9.77113208 4.75539429,9.77113208 L5.55625714,9.77113208 C5.74690286,9.77113208 5.82308571,9.69471698 5.82308571,9.50396226 L5.82308571,4.58226415 C5.82308571,4.50603774 5.82308571,4.42962264 5.82308571,4.39150943 C6.50948571,3.97188679 7.15760571,3.78113208 7.80591429,3.78113208 C8.18720571,3.78113208 8.45422286,3.8954717 8.60677714,4.1245283 C8.75933143,4.35339623 8.87360571,4.65867925 8.87360571,5.11641509 L8.87360571,9.50396226 C8.87360571,9.69471698 8.94978857,9.77113208 9.14043429,9.77113208 Z M16.3853486,3.17056604 L16.3853486,8.24490566 C15.7372286,8.66471698 15.08892,8.89358491 14.4408,8.89358491 C14.0212286,8.89358491 13.7163086,8.7790566 13.5256629,8.55018868 C13.3350171,8.32132075 13.2586457,7.97792453 13.2586457,7.48188679 L13.2586457,3.17056604 C13.2586457,2.97981132 13.1824629,2.90358491 12.9918171,2.90358491 L12.1909543,2.90358491 C12.0003086,2.90358491 11.9241257,2.97981132 11.9241257,3.17056604 L11.9241257,7.90169811 C11.9241257,8.55018868 12.07668,9.08433962 12.4196914,9.42773585 C12.76308,9.77113208 13.2586457,9.96188679 13.9069543,9.96188679 C14.784,9.96188679 15.6610457,9.65660377 16.4998114,9.04622642 L16.5761829,9.50396226 C16.5761829,9.61849057 16.6142743,9.65660377 16.6904571,9.69471698 C16.7287371,9.73301887 16.80492,9.73301887 16.9191943,9.73301887 L17.49132,9.73301887 C17.6819657,9.73301887 17.7581486,9.65660377 17.7581486,9.46584906 L17.7581486,3.17056604 C17.7581486,2.97981132 17.6819657,2.90358491 17.49132,2.90358491 L16.6904571,2.90358491 C16.46172,2.90358491 16.3853486,3.01792453 16.3853486,3.17056604 L16.3853486,3.17056604 Z" id="path-1"></path>
        <linearGradient x1="100%" y1="58.5896636%" x2="-2.61651631%" y2="58.5896636%" id="linearGradient-3">
            <stop stop-color="#4ABEEF" offset="0%"></stop>
            <stop stop-color="#0C6CB4" offset="100%"></stop>
        </linearGradient>
        <path d="M31.7654444,6.37834146 C33.7516111,4.64214634 34.2863556,1.05170732 33.8662667,0.499317073 C33.6753,0.262634146 32.7586222,0.0259512195 31.6126333,0.0259512195 C30.3905222,0.0259512195 28.9391,0.30204878 27.8314556,1.09112195 C27.4876778,1.328 27.5639889,1.6435122 27.9077667,1.60409756 C29.0919111,1.4462439 31.7654444,1.13073171 32.2620333,1.76195122 C32.7202778,2.39317073 31.7272889,4.99746341 31.2690444,6.14165854 C31.1543889,6.49658537 31.4216667,6.61502439 31.7654444,6.37834146 Z M30.1612111,2.66946341 C25.9979111,4.4844878 21.4526778,5.39180488 17.3277222,5.39180488 C11.2164111,5.39180488 5.29606667,3.65580488 0.521711111,0.775609756 C0.445211111,0.736195122 0.3689,0.696585366 0.292588889,0.696585366 C0.0251222222,0.696585366 -0.127688889,1.01229268 0.139777778,1.28839024 C4.57035556,5.43141463 10.4525444,7.91707317 16.9456,7.91707317 C21.6054889,7.91707317 26.9910889,6.4177561 30.6959556,3.57697561 C31.3453556,3.10341463 30.8106111,2.39317073 30.1612111,2.66946341 L30.1612111,2.66946341 Z" id="path-4"></path>
        <linearGradient x1="100%" y1="100%" x2="0%" y2="100%" id="linearGradient-6">
            <stop stop-color="#4DC1F3" offset="0%"></stop>
            <stop stop-color="#0C6DB4" offset="100%"></stop>
        </linearGradient>
    </defs>
    <g id="Icon/Store/Amazon-Music" stroke="none" stroke-width="1" fill="none" fill-rule="evenodd">
        <g id="amazon-music-seeklogo.com" transform="translate(7.000000, 14.000000)">
            <g id="Group-3">
                <mask id="mask-2" fill="white">
                    <use xlink:href="#path-1"></use>
                </mask>
                <g id="Clip-2"></g>
                <path d="M22.3721143,8.66471698 C22.1431886,8.81716981 21.8001771,8.93169811 21.3806057,8.93169811 C20.7324857,8.93169811 20.1222686,8.8554717 19.51224,8.66471698 C19.3596857,8.62641509 19.2452229,8.58830189 19.16904,8.58830189 C19.0545771,8.58830189 19.0164857,8.66471698 19.0164857,8.81716981 L19.0164857,9.19886792 C19.0164857,9.31320755 19.0545771,9.38962264 19.0926686,9.46584906 C19.1309486,9.50396226 19.2071314,9.58037736 19.3215943,9.61849057 C19.9316229,9.8854717 20.6180229,10 21.3806057,10 C22.1814686,10 22.7914971,9.80924528 23.2872514,9.42773585 C23.7828171,9.04622642 24.0117429,8.55018868 24.0117429,7.90169811 C24.0117429,7.44377358 23.89728,7.10037736 23.6685429,6.79509434 C23.4398057,6.52811321 23.0583257,6.2609434 22.52448,6.07018868 L21.4567886,5.65056604 C21.0374057,5.49792453 20.7322971,5.34528302 20.6180229,5.19264151 C20.4654686,5.04018868 20.3892857,4.88754717 20.3892857,4.62037736 C20.3892857,4.04811321 20.8086686,3.74283019 21.6857143,3.74283019 C22.1814686,3.74283019 22.6770343,3.81924528 23.1346971,3.97188679 C23.2872514,4.01 23.4015257,4.04811321 23.4396171,4.04811321 C23.55408,4.04811321 23.6302629,3.97188679 23.6302629,3.81924528 L23.6302629,3.43773585 C23.6302629,3.32320755 23.5921714,3.24698113 23.55408,3.17056604 C23.5159886,3.09433962 23.4396171,3.05622642 23.3253429,3.01792453 C22.7534057,2.82735849 22.1814686,2.71283019 21.6093429,2.71283019 C20.8848514,2.71283019 20.2748229,2.90358491 19.81716,3.24698113 C19.3596857,3.59018868 19.13076,4.08622642 19.13076,4.65849057 C19.13076,5.53603774 19.6265143,6.18471698 20.6180229,6.56622642 L21.7618971,6.98584906 C22.1431886,7.13849057 22.3719257,7.25301887 22.52448,7.40566038 C22.6770343,7.55811321 22.7151257,7.71075472 22.7151257,7.93981132 C22.7151257,8.24490566 22.6008514,8.51207547 22.3721143,8.66471698 Z M26.4520457,0.309056604 C26.2994914,0.156603774 26.0707543,0.0801886792 25.8039257,0.0801886792 C25.5369086,0.0801886792 25.3462629,0.156603774 25.1937086,0.309056604 C25.0411543,0.461886792 24.9649714,0.65245283 24.9649714,0.881509434 C24.9649714,1.11037736 25.0411543,1.33924528 25.1937086,1.45377358 C25.3462629,1.60641509 25.5369086,1.68264151 25.8039257,1.68264151 C26.0707543,1.68264151 26.2614,1.60641509 26.4139543,1.45377358 C26.5665086,1.30113208 26.6426914,1.11037736 26.6426914,0.881509434 C26.6426914,0.65245283 26.6046,0.423584906 26.4520457,0.309056604 Z M26.2233086,2.90358491 L25.4224457,2.90358491 C25.2319886,2.90358491 25.1556171,2.97981132 25.1556171,3.17056604 L25.1556171,9.50396226 C25.1556171,9.69471698 25.2319886,9.77113208 25.4224457,9.77113208 L26.2233086,9.77113208 C26.4139543,9.77113208 26.4901371,9.69471698 26.4901371,9.50396226 L26.4901371,3.17056604 C26.4901371,3.01792453 26.4139543,2.90358491 26.2233086,2.90358491 Z M29.8076743,4.42962264 C30.1508743,4.04811321 30.6845314,3.85735849 31.4473029,3.85735849 C31.8285943,3.85735849 32.2098857,3.8954717 32.5530857,4.01 C32.6675486,4.04811321 32.70564,4.04811321 32.7818229,4.04811321 C32.8962857,4.04811321 32.9724686,3.97188679 32.9724686,3.78113208 L32.9724686,3.39962264 C32.9724686,3.28509434 32.9343771,3.17056604 32.8962857,3.13245283 C32.8580057,3.09433962 32.7818229,3.01792453 32.70564,2.97981132 C32.2098857,2.8654717 31.7141314,2.7509434 31.2566571,2.7509434 C30.1889657,2.7509434 29.3881029,3.05622642 28.7780743,3.70471698 C28.2061371,4.31528302 27.9010286,5.2309434 27.9010286,6.3754717 C27.9010286,7.52 28.1680457,8.39754717 28.7399829,9.00811321 C29.31192,9.61849057 30.1125943,9.92358491 31.1802857,9.92358491 C31.7522229,9.92358491 32.2862571,9.84735849 32.70564,9.65660377 C32.8201029,9.61849057 32.8962857,9.58037736 32.9343771,9.50396226 C32.9724686,9.46584906 32.9724686,9.35132075 32.9724686,9.23698113 L32.9724686,8.8554717 C32.9724686,8.6645283 32.8962857,8.58830189 32.7818229,8.58830189 C32.7437314,8.58830189 32.6675486,8.58830189 32.5911771,8.62641509 C32.1717943,8.7409434 31.7524114,8.81716981 31.3709314,8.81716981 C30.6466286,8.81716981 30.1127829,8.62641509 29.7695829,8.24490566 C29.4263829,7.86339623 29.2738286,7.25301887 29.2738286,6.45169811 L29.2738286,6.2609434 C29.31192,5.42169811 29.4644743,4.81113208 29.8076743,4.42962264 Z M9.14043429,9.77113208 L9.94129714,9.77113208 C10.1319429,9.77113208 10.2081257,9.69471698 10.2081257,9.50396226 L10.2081257,4.73490566 C10.2081257,4.08622642 10.0555714,3.59018868 9.71256,3.24698113 C9.36936,2.90358491 8.91169714,2.71283019 8.26338857,2.71283019 C7.38653143,2.71283019 6.47139429,3.01792453 5.59434857,3.66660377 C5.28924,3.01792453 4.71730286,2.71283019 3.87834857,2.71283019 C3.03958286,2.71283019 2.20062857,3.01792453 1.36167429,3.59018868 L1.28549143,3.17056604 C1.28549143,3.05622642 1.2474,3.01792453 1.17102857,2.97981132 C1.13293714,2.94169811 1.05675429,2.94169811 0.980382857,2.94169811 L0.370354286,2.94169811 C0.179708571,2.94169811 0.103525714,3.01792453 0.103525714,3.20886792 L0.103525714,9.54226415 C0.103525714,9.73301887 0.179708571,9.80924528 0.370354286,9.80924528 L1.17102857,9.80924528 C1.36167429,9.80924528 1.43804571,9.73301887 1.43804571,9.54226415 L1.43804571,4.39150943 C2.08616571,4.01 2.73447429,3.78113208 3.42087429,3.78113208 C3.80216571,3.78113208 4.06918286,3.8954717 4.22154857,4.1245283 C4.37410286,4.35339623 4.48856571,4.65849057 4.48856571,5.11641509 L4.48856571,9.50396226 C4.48856571,9.69471698 4.56474857,9.77113208 4.75539429,9.77113208 L5.55625714,9.77113208 C5.74690286,9.77113208 5.82308571,9.69471698 5.82308571,9.50396226 L5.82308571,4.58226415 C5.82308571,4.50603774 5.82308571,4.42962264 5.82308571,4.39150943 C6.50948571,3.97188679 7.15760571,3.78113208 7.80591429,3.78113208 C8.18720571,3.78113208 8.45422286,3.8954717 8.60677714,4.1245283 C8.75933143,4.35339623 8.87360571,4.65867925 8.87360571,5.11641509 L8.87360571,9.50396226 C8.87360571,9.69471698 8.94978857,9.77113208 9.14043429,9.77113208 Z M16.3853486,3.17056604 L16.3853486,8.24490566 C15.7372286,8.66471698 15.08892,8.89358491 14.4408,8.89358491 C14.0212286,8.89358491 13.7163086,8.7790566 13.5256629,8.55018868 C13.3350171,8.32132075 13.2586457,7.97792453 13.2586457,7.48188679 L13.2586457,3.17056604 C13.2586457,2.97981132 13.1824629,2.90358491 12.9918171,2.90358491 L12.1909543,2.90358491 C12.0003086,2.90358491 11.9241257,2.97981132 11.9241257,3.17056604 L11.9241257,7.90169811 C11.9241257,8.55018868 12.07668,9.08433962 12.4196914,9.42773585 C12.76308,9.77113208 13.2586457,9.96188679 13.9069543,9.96188679 C14.784,9.96188679 15.6610457,9.65660377 16.4998114,9.04622642 L16.5761829,9.50396226 C16.5761829,9.61849057 16.6142743,9.65660377 16.6904571,9.69471698 C16.7287371,9.73301887 16.80492,9.73301887 16.9191943,9.73301887 L17.49132,9.73301887 C17.6819657,9.73301887 17.7581486,9.65660377 17.7581486,9.46584906 L17.7581486,3.17056604 C17.7581486,2.97981132 17.6819657,2.90358491 17.49132,2.90358491 L16.6904571,2.90358491 C16.46172,2.90358491 16.3853486,3.01792453 16.3853486,3.17056604 L16.3853486,3.17056604 Z" id="Fill-1" fill="url(#linearGradient-3)" mask="url(#mask-2)"></path>
            </g>
            <g id="Group-6" transform="translate(0.000000, 12.000000)">
                <mask id="mask-5" fill="white">
                    <use xlink:href="#path-4"></use>
                </mask>
                <g id="Clip-5"></g>
                <path d="M31.7654444,6.37834146 C33.7516111,4.64214634 34.2863556,1.05170732 33.8662667,0.499317073 C33.6753,0.262634146 32.7586222,0.0259512195 31.6126333,0.0259512195 C30.3905222,0.0259512195 28.9391,0.30204878 27.8314556,1.09112195 C27.4876778,1.328 27.5639889,1.6435122 27.9077667,1.60409756 C29.0919111,1.4462439 31.7654444,1.13073171 32.2620333,1.76195122 C32.7202778,2.39317073 31.7272889,4.99746341 31.2690444,6.14165854 C31.1543889,6.49658537 31.4216667,6.61502439 31.7654444,6.37834146 Z M30.1612111,2.66946341 C25.9979111,4.4844878 21.4526778,5.39180488 17.3277222,5.39180488 C11.2164111,5.39180488 5.29606667,3.65580488 0.521711111,0.775609756 C0.445211111,0.736195122 0.3689,0.696585366 0.292588889,0.696585366 C0.0251222222,0.696585366 -0.127688889,1.01229268 0.139777778,1.28839024 C4.57035556,5.43141463 10.4525444,7.91707317 16.9456,7.91707317 C21.6054889,7.91707317 26.9910889,6.4177561 30.6959556,3.57697561 C31.3453556,3.10341463 30.8106111,2.39317073 30.1612111,2.66946341 L30.1612111,2.66946341 Z" id="Fill-4" fill="url(#linearGradient-6)" mask="url(#mask-5)"></path>
            </g>
        </g>
    </g>
</svg>