<?xml version="1.0" encoding="UTF-8"?>
<svg width="48px" height="48px" viewBox="0 0 48 48" version="1.1" xmlns="http://www.w3.org/2000/svg" xmlns:xlink="http://www.w3.org/1999/xlink">
    <!-- Generator: Sketch 52.5 (67469) - http://www.bohemiancoding.com/sketch -->
    <title>Group</title>
    <desc>Created with Sketch.</desc>
    <g id="Page-1" stroke="none" stroke-width="1" fill="none" fill-rule="evenodd">
        <g id="Group" fill="#FFFFFF">
            <rect id="Rectangle" fill-opacity="0.01" x="0" y="0" width="48" height="48"></rect>
            <g id="apple" transform="translate(8.000000, 5.000000)" fill-rule="nonzero">
                <path d="M27.5616784,20.722234 C27.5105444,15.7831782 31.7473773,13.4144636 31.9366362,13.2967782 C29.5560594,9.94445722 25.8476631,9.48521743 24.5261759,9.43212568 C21.3702,9.12462012 18.3681008,11.2201826 16.7664061,11.2201826 C15.1687482,11.2201826 12.6971436,9.47760025 10.0797361,9.5233795 C6.63983242,9.57258649 3.46802561,11.4481648 1.69678155,14.4128474 C-1.87721014,20.3809081 0.781516091,29.2221691 4.26495484,34.0623539 C5.96709688,36.4316016 7.99678094,39.0925874 10.6616812,38.9975249 C13.2279548,38.8989586 14.1983911,37.3995167 17.3010167,37.3995167 C20.4035632,37.3995167 21.2757685,38.9975249 23.9914861,38.9484703 C26.7530342,38.899111 28.5025899,36.5339004 30.1930171,34.1574163 C32.1476625,31.408833 32.9525072,28.7477711 33,28.6111951 C32.9386551,28.5842303 27.6150286,26.6216638 27.5616784,20.722234 Z M22.458735,6.22788267 C23.8731499,4.57655419 24.8278343,2.28553491 24.5674155,0 C22.5300534,0.0798280481 20.0605068,1.30596554 18.5987575,2.95356161 C17.2871646,4.41514614 16.1390261,6.74790756 16.4467003,8.98773939 C18.7211306,9.15851657 21.0428163,7.87547874 22.458735,6.22788267 Z" id="Shape"></path>
            </g>
        </g>
    </g>
</svg>