<?xml version="1.0" encoding="UTF-8"?>
<svg width="48px" height="48px" viewBox="0 0 48 48" version="1.1" xmlns="http://www.w3.org/2000/svg" xmlns:xlink="http://www.w3.org/1999/xlink">
    <!-- Generator: Sketch 54.1 (76490) - https://sketchapp.com -->
    <title>Icon/Store/Bandcamp</title>
    <desc>Created with Sketch.</desc>
    <g id="Icon/Store/Bandcamp" stroke="none" stroke-width="1" fill="none" fill-rule="evenodd">
        <g id="Bandcamp-bc-logotype-color" transform="translate(3.000000, 17.000000)" fill-rule="nonzero">
            <g id="g10" transform="translate(21.000000, 7.104513) scale(-1, 1) rotate(-180.000000) translate(-21.000000, -7.104513) translate(0.000000, 0.104513)">
                <g id="g12">
                    <path d="M27.5174548,8.72416425 C25.7669667,8.72416425 24.8725198,7.32416425 24.8725198,5.21522995 C24.8725198,3.22162319 25.8397179,1.72524638 27.5174548,1.72524638 C29.4147765,1.72524638 30.1261807,3.48945604 30.1261807,5.21522995 C30.1248494,7.01711111 29.2308685,8.72416425 27.5169223,8.72416425 M22.8661712,13.9582029 L24.9454707,13.9582029 L24.9454707,8.89676329 L24.9822789,8.89676329 C25.5477813,9.85518841 26.733233,10.4497488 27.7913534,10.4497488 C30.7642345,10.4497488 32.2056799,8.07150725 32.2056799,5.17607729 C32.2056799,2.51187053 30.9290396,0 28.1376704,0 C26.860897,0 25.4928019,0.325324831 24.8722536,1.62947826 L24.8362441,1.62947826 L24.8362441,0.267493333 L22.8659715,0.267493333 L22.8659715,13.9579324 L22.8661712,13.9582029" id="path14" fill="#201D1C"></path>
                    <path d="M39.8746403,6.86365217 C39.7103011,8.07164251 38.8714326,8.72396135 37.7221902,8.72396135 C36.6454992,8.72396135 35.1317686,8.1292657 35.1317686,5.1189343 C35.1317686,3.46982899 35.8246688,1.72463768 37.630935,1.72463768 C38.8346244,1.72463768 39.6733597,2.56935845 39.8746403,3.98830242 L41.9538732,3.98830242 C41.5706149,1.41899807 40.0570174,0 37.630935,0 C34.6756926,0 33.0524025,2.20456715 33.0524025,5.1189343 C33.0524025,8.10985507 34.6029414,10.4491401 37.7038859,10.4491401 C39.8926783,10.4491401 41.7537908,9.29884058 41.9538732,6.86365217 L39.8779017,6.86365217 L39.8746403,6.86365217" id="path16" fill="#201D1C"></path>
                    <polyline id="path18" fill="#639AA9" points="15.5963106 0.297373527 0 0.297373527 7.28317274 13.9582029 22.879683 13.9582029 15.5963106 0.297373527"></polyline>
                </g>
            </g>
        </g>
    </g>
</svg>