<?xml version="1.0" encoding="UTF-8"?>
<svg width="48px" height="48px" viewBox="0 0 48 48" version="1.1" xmlns="http://www.w3.org/2000/svg" xmlns:xlink="http://www.w3.org/1999/xlink">
    <!-- Generator: Sketch 54.1 (76490) - https://sketchapp.com -->
    <title>Icon/Store/CD Baby</title>
    <desc>Created with Sketch.</desc>
    <g id="Icon/Store/CD-Baby" stroke="none" stroke-width="1" fill="none" fill-rule="evenodd">
        <g id="CD_baby_Icon_Black" transform="translate(12.000000, 10.000000)" fill="#231F20" fill-rule="nonzero">
            <path d="M14.3948472,6.90795941 L14.3125778,6.86190635 L2.18624695,0.240857518 L2.02355164,0.150593515 C1.82707645,0.0522635875 1.61048599,0.000719989481 1.39074526,0 C0.635802185,0 0.0230446606,0.573360631 0.00322625248,1.28948576 C0.00322625248,1.30030823 0,1.31020963 0,1.32517688 C0,1.34014413 0.00322625248,1.34820341 0.00322625248,1.35994694 L0.00322625248,14.6428016 C0.00322625248,14.6543148 0,14.6672097 0,14.6787229 C0,14.6902362 0.00322625248,14.7017495 0.00322625248,14.7139535 C0.0228142139,15.4261642 0.635802185,15.9999853 1.39051482,15.9999853 C1.57834992,16.0008372 1.76450341,15.9646061 1.9382864,15.8933725 L2.19823017,15.7526804 L14.296677,9.14406587 L14.3966908,9.08649954 C14.7601051,8.8504776 15,8.4521186 15,7.999417 C15,7.54671539 14.7594137,7.14927746 14.3948472,6.90795941 Z" id="Path"></path>
            <path d="M18.5173325,20.6121649 L18.4513041,20.5748696 L8.74887201,15.1954096 L8.61945637,15.1230522 C8.46231301,15.043012 8.28906725,15.0008991 8.11323869,15 C7.5090789,15 7.01804776,15.4660799 7.00264114,16.0456091 C7.00264114,16.0561054 7,16.0650384 7,16.0762046 C7,16.0873709 7.00264114,16.0940707 7.00264114,16.1047903 L7.00264114,26.8976556 C7.00264114,26.9077053 7,26.9159683 7,26.9251246 C7,26.934281 7.00264114,26.9456706 7.00264114,26.9546036 C7.01804776,27.5334628 7.50885881,27.9999893 8.11323869,27.9999893 C8.26302049,28.0006475 8.41141732,27.9708817 8.54968637,27.9124458 L8.75877627,27.7981032 L18.4389788,22.4286929 L18.5179927,22.3840279 C18.8167746,22.1912938 18.9983938,21.857561 19,21.4983197 C19,21.1313962 18.8082976,20.8077979 18.5173325,20.6126116 L18.5173325,20.6121649 Z" id="Path"></path>
            <path d="M23.7169577,12.4544877 L23.6791478,12.4311379 L18.0194668,9.11910549 L17.943847,9.07626179 C17.8522641,9.02669991 17.7511824,9.00059337 17.6485697,9 C17.2968777,9 17.0106028,9.28705281 17.0020005,9.64265554 C17.0020005,9.65079584 17,9.65529443 17,9.66236364 C17,9.66943285 17.0020005,9.673503 17.0020005,9.67992956 L17.0020005,16.3226314 C17.0020005,16.3275584 17,16.3322713 17,16.3386978 C17,16.3451244 17.0020005,16.3509083 17.0020005,16.3573348 C17.0106028,16.7137944 17.2970777,16.9999904 17.6485697,16.9999904 C17.7360782,17.0004776 17.822819,16.9824979 17.9038365,16.9470784 L18.0262686,16.8768147 L23.6709457,13.5712088 L23.7171578,13.5435747 C23.893037,13.4265997 24,13.2206282 24,12.9989241 C24,12.77722 23.893037,12.5712485 23.7171578,12.4542735 L23.7169577,12.4544877 Z" id="Path"></path>
        </g>
    </g>
</svg>