<?xml version="1.0" encoding="UTF-8"?>
<svg width="48px" height="48px" viewBox="0 0 48 48" version="1.1" xmlns="http://www.w3.org/2000/svg" xmlns:xlink="http://www.w3.org/1999/xlink">
    <!-- Generator: Sketch 54 (76480) - https://sketchapp.com -->
    <title>Icon/Store/GooglePlay Music</title>
    <desc>Created with Sketch.</desc>
    <g id="Icon/Store/GooglePlay-Music" stroke="none" stroke-width="1" fill="none" fill-rule="evenodd">
        <g id="google-play-music" transform="translate(11.000000, 10.000000)">
            <path d="M0,0.598663697 C0,0.386636971 0.112249443,0.187082405 0.299331849,0.0810690423 C0.486414254,-0.0249443207 0.71091314,-0.0249443207 0.897995546,0.0810690423 L24.1585746,13.376392 C24.345657,13.4824053 24.4579065,13.6819599 24.4579065,13.8939866 C24.4579065,14.1060134 24.345657,14.3055679 24.1585746,14.4115813 L1.02271715,27.9126949 C0.835634744,28.0187082 0.611135857,28.0187082 0.424053452,27.9126949 C0.236971047,27.8066815 0.124721604,27.6071269 0.124721604,27.3951002 C0.118485523,27.3951002 0,0.598663697 0,0.598663697 Z" id="Shape" fill="#F15A35" fill-rule="nonzero"></path>
            <path d="M19.5812918,14.0187082 C19.5812918,8.84276169 15.3844098,4.64587973 10.2084633,4.64587973 C5.0325167,4.64587973 0.835634744,8.84276169 0.835634744,14.0187082 C0.835634744,18.7581292 4.35278396,22.6743875 8.91759465,23.3042316 L18.9327394,17.4485523 C19.3505568,16.3884187 19.5812918,15.2347439 19.5812918,14.0187082 L19.5812918,14.0187082 Z M10.2084633,20.067706 C6.86592428,20.067706 4.15946548,17.3612472 4.15946548,14.0187082 C4.15946548,10.6761693 6.86592428,7.96971047 10.2084633,7.96971047 C13.5510022,7.96971047 16.257461,10.6761693 16.257461,14.0187082 C16.257461,17.3612472 13.5510022,20.067706 10.2084633,20.067706 Z" id="Shape" fill="#FBCB1A" fill-rule="nonzero"></path>
            <path d="M10.2084633,7.97594655 C6.86592428,7.97594655 4.15946548,10.6824053 4.15946548,14.0249443 C4.15946548,17.3674833 6.86592428,20.0739421 10.2084633,20.0739421 C13.5510022,20.0739421 16.257461,17.3674833 16.257461,14.0249443 C16.257461,10.6824053 13.5510022,7.97594655 10.2084633,7.97594655 Z M13.4699332,12.6966592 C13.1269488,12.2788419 12.7091314,11.9919822 12.1728285,11.8797327 C11.8734967,11.8173719 11.5741648,11.7300668 11.2685969,11.6489978 C11.2561247,12.2164811 11.2561247,12.7964365 11.2311804,13.3639198 C11.1812918,14.5612472 11.125167,15.7585746 11.0690423,16.955902 C11.0253898,17.891314 10.3331849,18.3652561 9.69710468,18.4837416 C8.76169265,18.6583519 7.96347439,18.3964365 7.39599109,17.6231626 C6.72873051,16.7126949 7.13407572,15.5340757 8.20668151,15.1910913 C8.83652561,14.9853007 9.44766147,15.0538976 10.033853,15.3594655 C10.0587973,15.3719376 10.0899777,15.3844098 10.1398664,15.4155902 C10.0962138,14 10.0525612,12.6093541 10.0026726,11.2249443 C9.99643653,11.0191537 9.96525612,10.813363 9.93407572,10.6075724 C9.87171492,10.2271715 9.92783964,9.85924276 10.0213808,9.46636971 C10.2396437,9.65345212 10.4454343,9.82806236 10.6449889,10.0089087 C11.0628062,10.3830735 11.5554566,10.5826281 12.0979955,10.6512249 C12.6155902,10.7135857 13.0271715,10.9505568 13.4200445,11.274833 C13.6757238,11.4806236 13.7817372,11.7051225 13.7817372,12.0293987 C13.7817372,12.3910913 13.8253898,12.752784 13.8565702,13.1581292 C13.7131403,12.9772829 13.5884187,12.8400891 13.4699332,12.6966592 L13.4699332,12.6966592 Z" id="Shape" fill="#F78C1E" fill-rule="nonzero"></path>
            <path d="M13.4262806,11.2685969 C13.0334076,10.9443207 12.6218263,10.7135857 12.1042316,10.6449889 C11.5616927,10.576392 11.0628062,10.3768374 10.6512249,10.0026726 C10.4516704,9.82182628 10.2458797,9.65345212 10.0276169,9.46013363 C9.93407572,9.85300668 9.877951,10.2209354 9.9403118,10.6013363 C9.9714922,10.8071269 10.0026726,11.0129176 10.0089087,11.2187082 C10.0587973,12.6093541 10.0962138,13.9937639 10.1461024,15.4093541 C10.0962138,15.3844098 10.0650334,15.3719376 10.0400891,15.3532294 C9.45389755,15.0476615 8.84276169,14.9790646 8.21291759,15.1848552 C7.1403118,15.5340757 6.73496659,16.7126949 7.40222717,17.6169265 C7.97594655,18.3902004 8.77416481,18.6521158 9.70334076,18.4775056 C10.3394209,18.35902 11.0316258,17.885078 11.0752784,16.9496659 C11.1314031,15.7523385 11.1937639,14.5550111 11.2374165,13.3576837 C11.2623608,12.7839644 11.2623608,12.210245 11.274833,11.6427617 C11.5804009,11.7238307 11.8734967,11.8111359 12.1790646,11.8734967 C12.7153675,11.9857461 13.1394209,12.2663697 13.4761693,12.6904232 C13.5946548,12.833853 13.7193764,12.9710468 13.8690423,13.145657 C13.8378619,12.7340757 13.7942094,12.3786192 13.7942094,12.0169265 C13.7879733,11.6988864 13.6819599,11.4743875 13.4262806,11.2685969 Z" id="Shape" fill="#FFFFFF"></path>
        </g>
    </g>
</svg>