<?xml version="1.0" encoding="UTF-8"?>
<svg width="48px" height="48px" viewBox="0 0 48 48" version="1.1" xmlns="http://www.w3.org/2000/svg" xmlns:xlink="http://www.w3.org/1999/xlink">
    <!-- Generator: Sketch 54 (76480) - https://sketchapp.com -->
    <title>Icon/Store/iHeart media</title>
    <desc>Created with Sketch.</desc>
    <g id="Icon/Store/iHeart-media" stroke="none" stroke-width="1" fill="none" fill-rule="evenodd">
        <path d="M37.9090909,20.9436027 C37.9090909,23.4637976 36.5289112,25.947952 33.8080363,28.3286732 C33.6878012,28.4335714 33.5381754,28.4848485 33.3891433,28.4848485 C33.2151735,28.4848485 33.0415007,28.4142326 32.9165156,28.275052 C32.6852486,28.0177876 32.7089988,27.6239797 32.9705471,27.3954305 C35.409686,25.2625973 36.6464743,23.0916726 36.6464743,20.9436027 L36.6464743,20.9134225 C36.6464743,19.1700021 35.5382336,17.1177471 34.1233193,16.2419348 C33.827927,16.0590954 33.738864,15.6743708 33.9244119,15.3831171 C34.1093661,15.0912773 34.4994621,15.0036667 34.7948544,15.1859201 C36.5695833,16.2855935 37.9090909,18.748065 37.9090909,20.9134225 L37.9090909,20.9436027 Z M29.5964668,25.317235 C29.4970094,25.3695978 29.3890617,25.3939394 29.2817204,25.3939394 C29.0558186,25.3939394 28.8365878,25.2829869 28.7183305,25.0862728 C28.5448864,24.7961548 28.6555631,24.4290494 28.9666708,24.2671494 C30.459442,23.4865196 31.4634162,21.9699808 31.4673582,20.4893883 C31.4640227,19.1290887 30.6604794,17.8907801 29.3681392,17.2562 C29.0524832,17.101093 28.9314969,16.7373841 29.0973603,16.4430204 C29.263527,16.1489399 29.6534729,16.0357231 29.9685225,16.190547 C31.6832536,17.0320308 32.7496919,18.6745233 32.7575758,20.4808971 L32.7575758,20.4990117 C32.7493887,22.3985063 31.4803968,24.332532 29.5964668,25.317235 Z M24.0001396,24.3636364 C22.5773375,24.3630783 21.4242424,23.2100497 21.4242424,21.7877393 C21.4242424,20.3657079 22.5773375,19.2126793 24.0001396,19.2121212 C25.4226625,19.2126793 26.5757576,20.3657079 26.5757576,21.7877393 C26.5757576,23.2100497 25.4226625,24.3630783 24.0001396,24.3636364 Z M19.2814754,25.0862728 C19.1632238,25.2829869 18.9440034,25.3939394 18.7184157,25.3939394 C18.6107764,25.3939394 18.5031371,25.3695978 18.4033812,25.317235 C16.5195418,24.332532 15.2506109,22.3985063 15.2424242,20.4990117 L15.2424242,20.4808971 C15.2503077,18.6745233 16.3166948,17.0320308 18.0313434,16.190547 C18.3463779,16.0357231 18.7363051,16.1489399 18.9024638,16.4430204 C19.0683192,16.7373841 18.9473387,17.101093 18.6316978,17.2562 C17.3394198,17.8907801 16.5359151,19.1290887 16.5325798,20.4893883 C16.5365216,21.9699808 17.5404476,23.4865196 19.033147,24.2671494 C19.3445429,24.4290494 19.4552143,24.7961548 19.2814754,25.0862728 Z M15.0834753,28.275052 C14.958483,28.4142326 14.7848001,28.4848485 14.6111172,28.4848485 C14.4617796,28.4848485 14.3121452,28.4335714 14.1922001,28.3286732 C11.4708715,25.947952 10.0909091,23.4637976 10.0909091,20.9436027 L10.0909091,20.9134225 C10.0909091,18.748065 11.430197,16.2855935 13.2050282,15.1859201 C13.5007344,15.0036667 13.890556,15.0912773 14.0755208,15.3831171 C14.2610794,15.6743708 14.1723082,16.0590954 13.876602,16.2419348 C12.4616061,17.1177471 11.3535984,19.1700021 11.3535984,20.9134225 L11.3535984,20.9436027 C11.3535984,23.0916726 12.590458,25.2625973 15.0294406,27.3954305 C15.291004,27.6239797 15.3147555,28.0177876 15.0834753,28.275052 Z M31.7396694,12 C28.5294013,12 25.6609464,13.6731312 24.0001508,16.1163538 C22.3390536,13.6731312 19.4709004,12 16.2603306,12 C11.1445976,12 7,16.0771815 7,21.1087423 C7,24.3012831 9.05570591,26.6029514 11.2028235,28.7327958 L19.5985146,36.5405435 C20.0383766,36.9494784 20.7624291,36.6426288 20.7624291,36.0473289 L20.7624291,29.9640518 C20.7624291,28.20397 22.2114393,26.7771493 24.0001508,26.7741817 C25.7885607,26.7771493 27.2375709,28.20397 27.2375709,29.9640518 L27.2375709,36.0473289 C27.2375709,36.6426288 27.9616234,36.9494784 28.4014854,36.5405435 L36.7971765,28.7327958 C38.9445958,26.6029514 41,24.3012831 41,21.1087423 C41,16.0771815 36.8554024,12 31.7396694,12 L31.7396694,12 Z" id="Fill-1" fill="#C6002B"></path>
    </g>
</svg>