<?xml version="1.0" encoding="UTF-8"?>
<svg width="48px" height="48px" viewBox="0 0 48 48" version="1.1" xmlns="http://www.w3.org/2000/svg" xmlns:xlink="http://www.w3.org/1999/xlink">
    <!-- Generator: Sketch 54.1 (76490) - https://sketchapp.com -->
    <title>Icon/Store/Netease</title>
    <desc>Created with Sketch.</desc>
    <g id="Icon/Store/Netease" stroke="none" stroke-width="1" fill="none" fill-rule="evenodd">
        <g id="NetEase_Music_logo" transform="translate(4.000000, 4.000000)" fill="#E20000" fill-rule="nonzero">
            <g id="#ffffffff" transform="translate(6.666667, 3.809524)">
                <path d="M14.1151179,4.53667502 C14.3009709,2.03174603 16.852982,0.0106934002 19.4188627,0.136340852 C20.9056865,0.173767753 22.3647712,0.747201337 23.5090153,1.653467 C24.2732316,2.22690058 24.5492372,3.37243108 24.037448,4.17978279 C23.4479889,4.99649123 22.1428571,4.95371763 21.3855756,4.38563074 C20.6823856,3.85898079 19.7850208,3.3871345 18.8682386,3.57694236 C18.0665742,3.75605681 17.6934813,4.62756892 17.8224688,5.35338346 C17.9528433,6.08320802 18.2011096,6.78629908 18.3980583,7.50142022 C19.850208,7.56157059 21.3009709,7.9197995 22.5783634,8.59482038 C24.7059639,9.77376775 26.5270458,11.5368421 27.5298197,13.712949 C28.4882108,15.7340017 28.6907074,18.0357561 28.3092926,20.2131997 C27.7697642,23.041604 26.0804438,25.6173768 23.7836338,27.4325815 C21.1789182,29.4883876 17.779473,30.4895572 14.4341193,30.4601504 C11.2940361,30.4601504 8.18307906,29.3747703 5.73231623,27.4900585 C2.45076283,24.9971596 0.338418863,21.1261487 0.105409154,17.1027569 C-0.0998613037,14.289056 0.646324549,11.4299081 2.14563107,9.01319967 C3.8668516,6.21687552 6.60055479,4.00868839 9.76976422,2.8898914 C10.3162275,2.71612364 10.9472954,2.72280702 11.4549237,3.00083542 C12.2468793,3.40050125 12.5783634,4.4845447 12.0859917,5.21704261 C11.8196949,5.68086884 11.332871,5.97894737 10.8238558,6.14736842 C8.22052705,7.11378446 6.02912621,9.05463659 4.80027739,11.467335 C3.78779473,13.4028404 3.43550624,15.6377611 3.75589459,17.7791145 C4.16227462,20.594152 5.76421637,23.2260652 8.110957,24.9477026 C9.98196949,26.3298246 12.3411928,27.1171261 14.704577,27.0529657 C17.4160888,27.0449457 20.185853,26.13066 22.1428571,24.2833751 C23.5506241,22.9400167 24.6019417,21.1809524 24.8307906,19.2628237 C25.1608877,17.1923141 24.5852982,14.980117 23.1414702,13.392147 C22.1373093,12.3134503 20.8834951,11.3630744 19.3911234,11.0275689 C19.742025,12.0621554 20.0638003,13.1060986 20.368932,14.1540518 C20.7919556,15.7032581 20.8085992,17.435589 19.9916782,18.8725146 C19.1192788,20.4912281 17.4160888,21.6688388 15.5395284,21.922807 C13.7642164,22.2208855 11.8640777,21.6274018 10.5811373,20.4123642 C9.34535368,19.2828739 8.63661581,17.6614871 8.57697642,16.0280702 C8.45353675,14.4788638 8.79056865,12.8828739 9.63384189,11.5488722 C10.7572816,9.72163743 12.7087379,8.45981621 14.8085992,7.89172932 C14.5450763,6.78228906 14.0319001,5.69690894 14.1151179,4.53667502 L14.1151179,4.53667502 Z M12.3037448,14.1420217 C11.9181692,15.4626566 12.0416089,17.1067669 13.1664355,18.0678363 C14.2163662,18.9888053 16.0416089,18.6145363 16.7350902,17.4596491 C17.1692094,16.8140351 17.1775312,16 17.0208044,15.2701754 C16.6338419,13.8880535 16.1886269,12.5206349 15.7337032,11.1572264 C14.2260749,11.6116959 12.7572816,12.6168755 12.3037448,14.1420217 Z" id="Shape"></path>
            </g>
        </g>
    </g>
</svg>