<?xml version="1.0" encoding="UTF-8"?>
<svg width="48px" height="48px" viewBox="0 0 48 48" version="1.1" xmlns="http://www.w3.org/2000/svg" xmlns:xlink="http://www.w3.org/1999/xlink">
    <!-- Generator: Sketch 54.1 (76490) - https://sketchapp.com -->
    <title>Icon/Store/Saavn</title>
    <desc>Created with Sketch.</desc>
    <g id="Icon/Store/Saavn" stroke="none" stroke-width="1" fill="none" fill-rule="evenodd">
        <g id="Saavn_logo" transform="translate(9.000000, 9.000000)" fill="#1F1F1F">
            <path d="M30.470261,4.32048193 C29.8046085,2.55084847 28.3641232,1.15683051 26.535502,0.512650602 C24.8603815,0 23.3041566,0 20.1923293,0 L10.8076707,0 C7.69522088,0 6.13899598,0 4.46449799,0.512650602 C2.63587676,1.15683051 1.19539153,2.55084847 0.529738956,4.32048193 C0,5.94156627 0,7.44759036 0,10.4590361 L0,19.5409639 C0,22.553012 0,24.0590361 0.529738956,25.6795181 C1.19552682,27.4492788 2.63626245,28.8433185 4.46512048,29.4873494 C6.13961847,30 7.69584337,30 10.8076707,30 L20.1923293,30 C23.3047791,30 24.861004,30 26.535502,29.4873494 C28.36436,28.8433185 29.8050957,27.4492788 30.4708835,25.6795181 C31,24.0584337 31,22.5524096 31,19.5409639 L31,10.4590361 C31,7.44759036 31,5.94156627 30.470261,4.32048193 Z M29.0074096,18.9590361 C29.0074096,21.5837349 29.0074096,23.2475904 28.5461446,24.660241 C27.9659839,26.2024096 27.0739558,27.0656627 25.4803815,27.6271084 C24.0206426,28.0722892 22.3013253,28.0722892 19.5891365,28.0722892 L11.4108635,28.0722892 C8.6986747,28.0722892 6.97935743,28.0722892 5.51961847,27.6253012 C3.92604418,27.0638554 3.03401606,26.2006024 2.45385542,24.6584337 C1.99196787,23.2457831 1.99196787,21.5819277 1.99196787,18.9572289 L1.99196787,11.0427711 C1.99196787,8.41807229 1.99196787,6.75421687 2.45323293,5.34156627 C3.03339357,3.79939759 3.92542169,2.93614458 5.51899598,2.3746988 C6.97935743,1.92771084 8.6986747,1.92771084 11.4108635,1.92771084 L19.5891365,1.92771084 C22.3013253,1.92771084 24.0206426,1.92771084 25.4803815,2.37409639 C27.0739558,2.93554217 27.9659839,3.79879518 28.5461446,5.34096386 C29.0080321,6.75421687 29.0080321,8.41807229 29.0080321,11.0427711 L29.0074096,18.9590361 Z M4.43586345,21.3584337 C4.01070281,21.2783133 3.92106426,21.6909639 3.92106426,21.8012048 L3.92106426,22.073494 C3.92168675,24.6987952 5.60240964,26.2048193 8.11789157,26.2048193 L11.3398996,26.2048193 C11.7351807,26.2048193 11.9343775,25.7487952 11.7059237,25.436747 C9.71084337,22.8825301 6.98371486,22.1174699 4.43586345,21.3584337 Z M22.9244378,3.79518072 L18.0627912,3.79518072 C17.9299194,3.79831566 17.8049829,3.85706152 17.7203188,3.95621318 C17.6356547,4.05536485 17.5995851,4.18517615 17.6214458,4.31204819 C19.2467671,13.9006024 15.158253,23.2644578 14.2948594,25.1 C14.1703614,25.3981928 14.1404819,25.3036145 14.1336345,25.1066265 C12.9085743,15 10.9284337,10.7584337 7.75248996,4.0560241 C7.62799197,3.85180723 7.44746988,3.80542169 7.23955823,3.8 C6.18879518,3.79939759 3.92168675,4.60662651 3.92168675,7.85722892 L3.92168675,10.813253 C3.92168675,11.0801205 4.03497992,11.1644578 4.14018072,11.2415663 C10.8008233,15.8433735 12.5705622,22.0590361 13.0722892,25.6813253 C13.1395181,26.0885542 13.2023896,26.2018072 13.4999398,26.2054217 L14.9845783,26.2054217 C15.2958233,26.2054217 15.3524699,26 15.4514458,25.7313253 C16.4555221,22.4301205 19.284739,16.2240964 26.816245,12.4253012 C26.9787007,12.3498694 27.0804861,12.1893912 27.0764458,12.0150602 L27.0764458,7.85843373 C27.0783133,5.43012048 25.3845181,3.79518072 22.9244378,3.79518072 Z M26.5871687,20.5933735 C23.3944177,21.6271084 20.0385743,22.5987952 17.3494177,25.3945783 C16.9472892,25.8656627 17.4583534,26.2048193 17.6787149,26.2048193 L22.9225703,26.2048193 C25.3863855,26.2048193 27.0770683,24.4518072 27.0770683,22.0722892 L27.0770683,21.0156627 C27.0783133,20.8981928 27.0054819,20.4728916 26.5871687,20.5927711 L26.5871687,20.5933735 Z" id="Shape"></path>
        </g>
    </g>
</svg>