<?xml version="1.0" encoding="UTF-8"?>
<svg width="48px" height="48px" viewBox="0 0 48 48" version="1.1" xmlns="http://www.w3.org/2000/svg" xmlns:xlink="http://www.w3.org/1999/xlink">
    <!-- Generator: Sketch 54 (76480) - https://sketchapp.com -->
    <title>Icon/Store/Shazam</title>
    <desc>Created with Sketch.</desc>
    <defs>
        <linearGradient x1="49.9465062%" y1="-3.62493619%" x2="49.9465062%" y2="107.558734%" id="linearGradient-1">
            <stop stop-color="#72C6EF" offset="0%"></stop>
            <stop stop-color="#0071B9" offset="29%"></stop>
            <stop stop-color="#0F1136" offset="61%"></stop>
            <stop stop-color="#000000" offset="100%"></stop>
        </linearGradient>
    </defs>
    <g id="Icon/Store/Shazam" stroke="none" stroke-width="1" fill="none" fill-rule="evenodd">
        <g id="Group" transform="translate(8.000000, 8.000000)" fill-rule="nonzero">
            <path d="M0,16 C0,24.8347045 7.16440531,32 16.000421,32 C24.836577,32 32,24.8347045 32,16 C32,7.16206782 24.836577,0 16.000421,0 C7.16440531,0.000140333643 0,7.16220815 0,16" id="Path" fill="url(#linearGradient-1)"></path>
            <path d="M19.2303258,27.9999977 C18.7329313,28.0008186 18.2570331,27.7783346 17.913902,27.3845654 C17.2179443,26.5887501 17.2446035,25.330835 17.970809,24.5704796 C17.9974682,24.5413268 20.6705608,21.746863 22.0770873,20.0477315 C22.7427971,19.245469 23.0768055,18.2154502 23.0175914,17.1522141 C22.9549168,16.0252062 22.4580056,14.9682772 21.6168325,14.1748446 C20.5126566,13.1313707 18.3314766,12.8994098 16.9676303,14.2370746 C16.1554234,15.032049 15.1708291,16.2018049 15.1614728,16.2142789 C14.4792292,17.0229887 13.3286562,17.0749872 12.5887365,16.3327122 C11.8493296,15.5888954 11.7989592,14.3285976 12.4797929,13.5200279 C12.5251647,13.4656468 13.5928125,12.196519 14.5376743,11.2713382 C17.1277134,8.73154096 21.3716452,8.68122435 23.9971871,11.1608939 C25.5868671,12.6618425 26.5295501,14.7046406 26.6529769,16.9107224 C26.7726867,19.0528924 26.104029,21.1185362 24.7755574,22.7244628 C23.2803379,24.5260496 20.6000678,27.3285023 20.4867664,27.4490379 C20.1484577,27.8027664 19.6983927,28.0001237 19.2303258,27.9999977 M12.6634459,22.6666667 C10.9778541,22.6666667 9.29508215,22.0577176 8.00246614,20.8367363 C6.41351615,19.3367175 5.47068191,17.2948813 5.34661128,15.0879491 C5.22907743,12.9466068 5.89480351,10.8810853 7.22561482,9.27609468 C8.71933291,7.47321313 11.3996686,4.67008549 11.5129728,4.55179941 C12.2393243,3.79078831 13.3904383,3.82148102 14.0865412,4.61570753 C14.7803369,5.41063478 14.7558561,6.67029736 14.0288637,7.42976682 C14.0014349,7.45821714 11.3304557,10.2525154 9.92248476,11.9497243 C9.25752771,12.7557233 8.92197306,13.7834387 8.98118858,14.8450702 C9.04463379,15.9728522 9.54155717,17.0305596 10.3819819,17.8249262 C11.4877229,18.8697398 13.6681873,19.0986037 15.0328361,17.7634006 C15.8442939,16.9660909 16.8296813,15.7971049 16.8396787,15.7853324 C17.5192474,14.9754091 18.6725402,14.9232736 19.4110681,15.6678872 C20.1510059,16.410819 20.2008648,17.6720233 19.5200144,18.4812457 C19.4746415,18.5324003 18.4056859,19.800612 17.4620826,20.7274198 C16.1471646,22.0174948 14.4038954,22.6666667 12.6634459,22.6666667" id="Shape" fill="#FFFFFF"></path>
        </g>
    </g>
</svg>