<?xml version="1.0" encoding="UTF-8"?>
<svg width="48px" height="48px" viewBox="0 0 48 48" version="1.1" xmlns="http://www.w3.org/2000/svg" xmlns:xlink="http://www.w3.org/1999/xlink">
    <!-- Generator: Sketch 54.1 (76490) - https://sketchapp.com -->
    <title>Icon/Store/Slacker</title>
    <desc>Created with Sketch.</desc>
    <g id="Icon/Store/Slacker" stroke="none" stroke-width="1" fill="none" fill-rule="evenodd">
        <g id="Slacker-radio" transform="translate(4.000000, 15.000000)" fill="#000000" fill-rule="nonzero">
            <path d="M17.6947547,12.4426218 C17.408805,12.7143487 17.1552271,13.0013911 16.8565249,13.2251952 C16.5578228,13.4489994 16.2189014,13.6698392 15.8677179,13.7973039 C15.1810464,14.041364 14.6660427,13.7335716 14.4634746,13.0270816 C14.4579827,13.0079367 14.4505881,12.9893984 14.4414031,12.9717481 C14.2780733,13.1199628 14.1068959,13.2681775 13.9420947,13.4213326 C13.4869296,13.849179 12.9827165,14.1880966 12.3661836,14.3298886 C11.8536323,14.4479663 11.3852242,14.4168412 11.0619981,13.9114292 C10.7142481,14.1233761 10.3861172,14.3382874 10.0437623,14.5265201 C9.78724148,14.667818 9.52189198,14.809116 9.24329953,14.8911281 C8.30403096,15.1663134 7.57566865,14.6623835 7.46383929,13.6816964 C7.38781494,13.0167066 7.5334874,12.3897585 7.79197019,11.7825724 C8.1657157,10.9058003 8.53831675,10.0285341 8.90977335,9.15077388 C8.94361645,9.07073796 8.97255475,8.98773774 9.02503607,8.85088619 L6.75705809,10.0741513 C6.97924538,11.2929699 6.62217618,12.4030978 6.08755334,13.4489994 C5.38126262,14.8298661 4.25904514,15.7107553 2.71011034,15.9577797 C2.37083882,16.0118316 2.02541142,16.0139968 1.68549832,15.9642024 C0.514232869,15.7863448 -0.127805016,14.8708721 0.0213008028,13.6718154 C0.0909489157,13.1095878 0.289593181,12.7143487 0.849230483,12.4366932 C2.14605873,11.7944296 3.39972476,11.0617551 4.6749719,10.3774973 C4.85546841,10.2786875 4.87557808,10.1858063 4.81132524,10.0114071 C4.65976703,9.59887624 4.40618904,9.26341703 4.08639629,8.97390437 C3.67684577,8.59990935 3.31830513,8.18342612 3.11328463,7.65874618 C2.78319182,6.8124404 2.93475003,6.00368233 3.35852447,5.23790653 C4.15359201,3.8002242 6.02084811,3.00875785 7.59823072,3.44253279 C8.42763184,3.67078339 9.02650751,4.15989181 9.20357067,5.05560248 C9.28891414,5.48591908 9.17855621,5.88906299 8.99707873,6.27491519 C8.96920549,6.33146325 8.91900901,6.37359805 8.85876347,6.39101668 C8.18141105,6.4932848 7.50258718,6.58863624 6.82376332,6.68250554 C6.81738709,6.68250554 6.80953941,6.6750948 6.79972982,6.66916621 C6.90322103,6.30752241 7.01308848,5.94637266 7.10922249,5.58225862 C7.20535651,5.21814457 7.13227503,4.95876889 6.90763535,4.80511968 C6.67073367,4.64405974 6.34456469,4.66480979 6.06106744,4.87922702 C5.93844752,4.97210821 5.80258465,5.07684658 5.73342702,5.20678145 C5.47052992,5.70527679 5.179185,6.1983376 4.99770752,6.72795803 C4.78042502,7.36231683 4.97710737,7.95122313 5.45140121,8.42254579 C5.77658923,8.74565378 6.12728219,9.04257717 6.4961229,9.37803638 C7.10431769,9.04652956 7.78608443,8.67648693 8.46637973,8.30249191 C8.8170727,8.10981283 9.23643281,7.97691368 9.49295368,7.6953058 C9.74947454,7.41369792 9.82844177,6.99178015 9.98343335,6.62914825 C10.5200181,5.37525212 11.0590553,4.12234409 11.5868114,2.86449557 C11.6608738,2.68812011 11.7614221,2.62043541 11.9443711,2.59672106 C12.5329467,2.52063753 13.1215223,2.42627419 13.7591458,2.33191085 C13.6885168,2.50186367 13.634564,2.63426878 13.5791398,2.76568579 C12.1770219,6.08009523 10.775885,9.39483404 9.37572904,12.7099022 C9.30628084,12.8665899 9.26175606,13.033314 9.24379001,13.2039511 C9.22417082,13.4475172 9.41496741,13.6313034 9.6322499,13.5423746 C10.0069764,13.3897135 10.3566884,13.1748022 10.7113052,12.9747124 C10.7471102,12.9544564 10.7534864,12.8576228 10.751034,12.7968548 C10.7260196,12.1407579 10.8834635,11.5271491 11.1434178,10.9308321 C11.6206545,9.83947806 12.0846482,8.74219543 12.5564897,7.64837115 C12.7569181,7.16851758 13.0581041,6.73805825 13.4393531,6.38657024 C13.827813,6.03332527 14.2790543,5.82335448 14.8082818,5.79716989 C15.3826335,5.76851505 15.8417225,5.94143217 16.0747003,6.57282668 C16.1727963,6.34655228 16.252254,6.15436725 16.3439737,5.96860486 C16.3768358,5.90190826 16.4342219,5.80853302 16.4911176,5.79914609 C17.1665081,5.68946723 17.8438605,5.59362174 18.5633942,5.48789527 C18.3255115,6.0427122 18.1067576,6.55454687 17.8870227,7.06638154 C17.2258561,8.60649667 16.5640356,10.1462824 15.901561,11.6857388 C15.8471178,11.8127094 15.7823745,11.9510431 15.9172564,12.0399719 C16.0285953,12.1130911 16.2282205,12.2054783 16.301302,12.1565674 C16.651014,11.9228823 16.9712972,11.6452268 17.2994281,11.3794285 C17.3180663,11.364113 17.3185568,11.3181664 17.3170853,11.2865473 C17.2979566,10.8265878 17.4696245,10.4185034 17.6461972,10.0089368 C18.1558056,8.82321946 18.6575663,7.63750208 19.1632508,6.4488204 C19.6689354,5.26013873 20.643028,4.65937526 21.9246514,4.74781001 C22.2179177,4.76242761 22.5088727,4.80779587 22.7928004,4.88317941 C23.3416471,5.04127506 23.621711,5.4305856 23.6580065,6.00763473 C23.6903782,6.52786823 23.5653058,7.02043499 23.4014856,7.50559102 C23.3761649,7.56975018 23.3235948,7.619076 23.2582656,7.63997232 C22.67999,7.73581781 22.0992621,7.82079422 21.4636005,7.91762781 C21.5690536,7.6478771 21.6715638,7.42851939 21.741212,7.19878664 C21.847646,6.84702382 21.9560421,6.49229671 22.0119567,6.1306529 C22.0320664,6.00121209 21.9349514,5.77493769 21.8309697,5.72701495 C21.726988,5.6790922 21.5067627,5.7497412 21.3998381,5.84163429 C21.2399435,5.98114014 21.1122229,6.15413491 21.0256021,6.34852847 C20.4689077,7.62070441 19.9254562,8.89831489 19.3849476,10.1774075 C19.2333894,10.5365811 19.135784,10.9110701 19.2270132,11.3072974 C19.3123566,11.6803043 19.5536726,11.8705131 19.9225133,11.7934415 C20.2143487,11.7326735 20.5258033,11.6536257 20.7685908,11.4910836 C21.4400574,11.0414991 22.0820953,10.5474501 22.7305094,10.060812 C22.8080052,10.0025142 22.8531294,9.88888295 22.8933487,9.79254341 C24.1767705,6.7225235 25.456105,3.6513508 26.7313521,0.579025321 C26.8176765,0.371524779 26.9241106,0.277655487 27.1492408,0.251470894 C27.7083876,0.186256438 28.2626296,0.0899169013 28.8580719,0 L26.636199,5.43700824 L26.685247,5.50666913 C26.9304868,5.36141875 27.1958363,5.24087082 27.4180236,5.06597751 C27.9482322,4.64751808 28.2577248,4.06503442 28.5054171,3.44944948 C28.5755557,3.27455616 28.6662944,3.19847263 28.8556195,3.17574638 C29.3725851,3.11250812 29.8856268,3.02259122 30.4619405,2.93415647 C30.1225285,3.61100347 29.8483504,4.26808852 29.4760763,4.86094721 C29.2681129,5.19245403 28.8982913,5.42070462 28.5981177,5.70083035 C28.7943096,5.77345554 29.0277779,5.91722378 29.0395494,6.21118288 C29.0488685,6.4700645 29.0537733,6.75463668 28.9596012,6.98683966 C28.6246036,7.81585373 28.2430104,8.62609394 27.8874127,9.44670918 C27.8030475,9.62363333 27.7448798,9.81205662 27.7147638,10.0059725 C27.6789588,10.3191995 27.8893746,10.4777892 28.132162,10.2969673 C28.4970789,10.0222762 28.8070621,9.6833586 29.1347025,9.36617921 C29.1641313,9.33801842 29.1582455,9.27379206 29.170017,9.22636336 C29.2641891,8.84643975 29.3171609,8.44922443 29.4613619,8.09005088 C29.9518416,6.8801251 30.4786168,5.68403269 30.991168,4.48349384 C31.5356005,3.20687146 32.5145979,2.60610799 33.8849981,2.73060832 C34.177276,2.75329372 34.4660541,2.80931498 34.7457899,2.89759685 C35.2137075,3.05075201 35.4618902,3.40893747 35.5084858,3.89359945 C35.5771529,4.59465485 35.3530037,5.24284702 35.1131592,5.88362845 C35.0910876,5.94242027 34.9944631,5.98688467 34.9233435,6.01158712 C33.9266888,6.35742135 32.9310151,6.70325559 31.9314175,7.03031597 C31.73964,7.09355423 31.630263,7.19285806 31.5640483,7.3761502 C31.4124901,7.80103226 31.2207125,8.2135631 31.0980926,8.6458559 C30.9970538,8.99860682 30.9823394,9.38692926 31.2991893,9.65322162 C31.6013247,9.90913896 31.9412271,9.76537072 32.2521912,9.64383469 C32.9236579,9.38198877 33.4926143,8.95216622 34.0473468,8.50060552 C35.3147463,7.47100759 35.3147463,7.46952545 35.9214696,5.94736076 C36.4773466,4.55875396 37.0351855,3.17129994 37.5949863,1.78499871 C37.6764059,1.5829327 38.1457949,1.36159879 38.3414963,1.44163471 C38.3900935,1.46910879 38.4262882,1.51441591 38.4425351,1.56811124 C38.7495754,2.5324947 39.4666567,3.08335924 40.3362771,3.48205671 C41.0460012,3.80714089 41.1387019,4.03390934 40.8395093,4.77004221 C40.4652733,5.69094938 40.0773039,6.606422 39.7074822,7.52930536 C39.6284053,7.71742136 39.5829104,7.91811922 39.5730908,8.12216405 C39.5642621,8.51740318 39.8404022,8.71502274 40.2107143,8.58953432 C40.4069062,8.52431987 40.5883837,8.41266481 40.7845756,8.31780742 C40.8905192,8.8034575 40.8566761,9.22735146 40.3735536,9.48178665 C40.049837,9.65223352 39.7300443,9.84046616 39.3886704,9.96496648 C38.3694537,10.3369853 37.7141728,9.51340578 37.626377,8.79308247 C37.5670289,8.30595025 37.6582582,7.84352047 37.843169,7.39492406 C38.2473242,6.41522508 38.6441223,5.43206775 39.0580871,4.45632115 C39.1502973,4.23844559 39.1159637,4.10406428 38.9246767,3.98055206 C38.7476135,3.86642676 38.5813409,3.7335276 38.3910348,3.59667605 C38.1688475,4.13420127 37.9496031,4.66233955 37.7318301,5.19146593 C37.0291362,6.90153388 36.3279138,8.6129193 35.6281628,10.3256222 C35.5614576,10.4896464 35.4775855,10.5726466 35.3010129,10.5958669 C34.8738051,10.6497183 34.4485592,10.7208613 33.984075,10.7905222 L34.5186978,9.44226274 L34.4912309,9.41953649 C34.3632157,9.53860227 34.236672,9.65964426 34.1066949,9.7762398 C33.4926143,10.3280924 32.8383145,10.8137425 32.0466803,11.0765765 C31.2619128,11.3344701 30.1686336,11.31372 29.4353665,10.2569494 C29.3828597,10.3272239 29.3265319,10.3945175 29.2666415,10.4585213 C28.8301146,10.8764867 28.4117354,11.3171783 27.9462702,11.7000662 C27.5578103,12.0197159 27.0741974,12.1032102 26.5763605,12.0088468 C26.1084429,11.9204121 25.8121932,11.6239827 25.8185694,11.1477196 C25.8183653,10.6969525 25.8787523,10.2482328 25.998085,9.81378752 C26.1756386,9.20907165 26.4473644,8.63301063 26.6646469,8.03916384 C26.7696771,7.76292178 26.8517067,7.47835608 26.9098867,7.18841162 C26.9819872,6.80255942 26.7877573,6.64841616 26.4120498,6.75908312 C26.16681,6.83121426 25.997104,6.95225624 25.8901795,7.21706645 C25.2035079,8.90770182 24.5006506,10.5904324 23.7977932,12.273163 C23.7634596,12.3546811 23.695283,12.4707825 23.6280872,12.4821457 C22.993897,12.5928126 22.3567639,12.6842117 21.6897116,12.7859857 L21.9491753,12.1180316 L21.9123894,12.0829542 C21.8461746,12.132359 21.7799598,12.1817639 21.7137451,12.2311688 C21.1786318,12.6308544 20.6155611,12.9761946 19.955866,13.1273735 C19.2584039,13.2899156 18.4049693,13.2311238 17.6947547,12.4426218 Z M15.0765742,7.10145901 C14.7528576,7.13851268 14.5694182,7.38800738 14.443365,7.68344862 C13.8670514,9.03566049 13.2922092,10.3878723 12.7335528,11.7474949 C12.6519291,11.961464 12.6169678,12.1906188 12.6310426,12.4194015 C12.645757,12.7158308 12.8973731,12.8640455 13.1318223,12.6911284 C13.4079624,12.4895564 13.7203979,12.253401 13.8577322,11.9574657 C14.4757366,10.6156289 15.0373358,9.24810152 15.6175733,7.88847892 C15.7544171,7.56784118 15.4537531,7.1063995 15.0765742,7.10145901 Z M4.90500686,11.0726241 C4.04911984,11.5345599 3.25846661,11.9619122 2.47124675,12.3907466 C2.42073678,12.4296339 2.38589497,12.485611 2.37315081,12.5483482 C2.27505488,12.9386469 2.16813031,13.3284515 2.08916308,13.7231965 C1.99695291,14.1836501 2.26475481,14.5907464 2.682153,14.6465739 C2.99066471,14.688074 3.285443,14.6134727 3.49193494,14.3822578 C3.69159313,14.1665171 3.85703026,13.9210549 3.9824146,13.6545237 C4.23206876,13.091802 4.44493693,12.5122827 4.65829559,11.9342454 C4.75148672,11.6758579 4.81181572,11.4036369 4.90500686,11.0726241 Z M32.1491905,6.01158712 C32.3615682,5.94192622 32.5145979,5.89350943 32.6661561,5.84212834 C33.5156669,5.55310973 33.524005,5.55508593 33.7731687,4.67666697 C33.8417438,4.44177766 33.8704318,4.19690705 33.8580217,3.95239127 C33.8398739,3.66880719 33.62112,3.56357478 33.3871612,3.72364662 C33.2115695,3.84370051 33.0345063,4.00970094 32.9457295,4.19743953 C32.6661561,4.77103031 32.4282734,5.3648771 32.1491905,6.01158712 Z" id="Shape"></path>
            <path d="M31,17.9948087 L31,15.0114681 C31.6504712,15.0413015 32.3099833,14.9215477 32.9476068,15.1034895 C33.6927698,15.3177858 34.101515,15.9938695 33.9782729,16.758193 C33.8635958,17.477136 33.2645152,17.9624541 32.4275154,17.9918673 C31.9626212,18.0082547 31.494872,17.9948087 31,17.9948087 Z M31.9321675,15.7358736 L31.9321675,17.2737647 C32.3190242,17.2930933 32.6973158,17.3208258 32.9142981,16.9796325 C33.1131986,16.667012 33.1179569,16.3333821 32.9142981,16.0220222 C32.6935091,15.6871317 32.3156933,15.712343 31.9321675,15.7358736 Z" id="Shape"></path>
            <path d="M26,17.9984126 C25.6507624,17.9984126 25.3418593,18.0043166 25.03394,17.9933521 C24.9596249,17.980801 24.8947557,17.9422981 24.8548942,17.8870801 C24.7079183,17.6928508 24.5732743,17.4919633 24.4515494,17.2852938 C24.3497295,17.1056435 24.2154452,17.026783 23.9498278,17.1077521 L23.9498278,17.9878698 L23,17.9878698 L23,15.0105671 C23.5868175,15.0105671 24.1682243,14.9814688 24.7437285,15.0198448 C25.2139695,15.0510516 25.5307427,15.3175751 25.6896212,15.6971179 C25.8489916,16.0842516 25.7678308,16.4443956 25.4505657,16.758151 C25.4013773,16.805383 25.3443187,16.8424938 25.2739793,16.9006904 L26,17.9984126 Z M23.9567142,16.3444493 C23.9879054,16.3514083 24.0196279,16.3564813 24.0516478,16.359631 C24.181997,16.359631 24.3118544,16.3630047 24.4422036,16.359631 C24.6881456,16.3558356 24.7929169,16.262215 24.7953763,16.0509362 C24.7978357,15.8396573 24.6797836,15.7245293 24.4343335,15.7207339 C24.2803738,15.7182036 24.1264142,15.7207339 23.9572061,15.7207339 L23.9567142,16.3444493 Z" id="Shape"></path>
            <path d="M39.4949333,17.9999985 C39.0980676,18.0005546 38.7173151,17.8427048 38.4368057,17.561327 C38.1562963,17.2799493 37.9991203,16.8982055 38.0000068,16.5004445 C37.9975069,15.6711172 38.6849731,14.9929563 39.521182,15.0000552 C39.9180581,15.0033521 40.2972487,15.1650855 40.5747861,15.4494413 C40.8523236,15.7337972 41.0053068,16.1173118 40.9998593,16.51506 C40.9986094,17.3452225 40.3353087,17.9991634 39.4949333,17.9999985 Z M38.8257995,16.4991917 C38.8257995,16.9585371 39.0891199,17.2713096 39.4845172,17.2792438 C39.895747,17.2871779 40.1703168,16.986933 40.1819829,16.5158952 C40.1928157,16.074506 39.9290786,15.7433597 39.5528471,15.7270738 C39.1095356,15.7074472 38.8266328,16.0101976 38.8257995,16.4991917 Z" id="Shape"></path>
            <path d="M30,18 L29.1246816,18 L28.9205755,17.4132918 C28.6764574,17.4132918 28.4372846,17.4065237 28.1985614,17.4183678 C28.1329023,17.4303166 28.076898,17.4703458 28.0470553,17.5266572 C27.9836655,17.676401 27.9423048,17.834605 27.8901544,17.9957699 L27,17.9957699 C27.249513,17.3189616 27.4945302,16.6539974 27.7386483,15.9907252 C27.8438483,15.7047737 27.9436535,15.4171301 28.0618912,15.1358317 C28.0861681,15.07788 28.1796793,15.0448856 28.2417204,15.003008 C28.251611,14.99624 28.2709426,15.003008 28.2866777,15.003008 C28.9048404,14.9953939 28.9043908,14.9958169 29.1062491,15.5474158 C29.3816874,16.299519 29.6575753,17.0513403 29.9339128,17.8028796 C29.9559419,17.8608313 29.9739248,17.920898 30,18 Z M28.7861532,16.8578859 L28.5047205,15.9441946 L28.2151956,16.8578859 L28.7861532,16.8578859 Z" id="Shape"></path>
            <polygon id="Path" points="35 15 36 15 36 18 35 18"></polygon>
        </g>
    </g>
</svg>