<?xml version="1.0" encoding="UTF-8"?>
<svg width="48px" height="48px" viewBox="0 0 48 48" version="1.1" xmlns="http://www.w3.org/2000/svg" xmlns:xlink="http://www.w3.org/1999/xlink">
    <!-- Generator: Sketch 54 (76480) - https://sketchapp.com -->
    <title>Icon/Store/soundcloud</title>
    <desc>Created with Sketch.</desc>
    <defs>
        <path d="M0,17.2664824 C0,17.7139311 0.152960965,18.052251 0.458818055,18.2815796 C0.764707565,18.5108738 1.09167054,18.5919468 1.43973941,18.5248673 C1.76670239,18.4577535 1.99611142,18.3346999 2.12799892,18.1557411 C2.25982157,17.9767823 2.32576532,17.6803398 2.32576532,17.2664824 L2.32576532,12.4007273 C2.32576532,12.0539494 2.21239006,11.7603263 1.98560711,11.5198579 C1.75885658,11.2793551 1.48198361,11.1591209 1.15498821,11.1591209 C0.838561969,11.1591209 0.566973583,11.2793551 0.340190634,11.5198579 C0.113407685,11.7603263 0,12.0539494 0,12.4007273 L0,17.2664824 L0,17.2664824 Z M3.63890181,19.3470122 C3.63890181,19.6714417 3.74702492,19.9146951 3.96323872,20.0769098 C4.17948493,20.2391246 4.45635789,20.3201976 4.79385761,20.3201976 C5.14192648,20.3201976 5.4240516,20.2390902 5.64029781,20.0769098 C5.85651161,19.9147294 5.96463471,19.6714417 5.96463471,19.3470122 L5.96463471,8.00476929 C5.96463471,7.66919997 5.85122703,7.38114672 5.6244765,7.1406783 C5.39769355,6.90020988 5.12082059,6.77994129 4.79385761,6.77994129 C4.47743136,6.77994129 4.20581056,6.90020988 3.97906003,7.1406783 C3.75227708,7.3811811 3.63890181,7.66919997 3.63890181,8.00476929 L3.63890181,19.3470122 L3.63890181,19.3470122 Z M7.26198232,19.8839231 C7.26198232,20.2083182 7.3727315,20.451606 7.59422987,20.6138207 C7.81572825,20.7760011 8.10051187,20.8571085 8.44861316,20.8571085 C8.78611287,20.8571085 9.06298583,20.7760011 9.27919963,20.6138207 C9.49544584,20.451606 9.60356895,20.2083182 9.60356895,19.8839231 L9.60356895,9.53160968 C9.60356895,9.18486618 9.49016126,8.88842369 9.26341074,8.64235099 C9.03662779,8.39627828 8.7650394,8.27325912 8.44861316,8.27325912 C8.12161776,8.27325912 7.84211871,8.39627828 7.61008361,8.64235099 C7.3780485,8.88842369 7.26201474,9.18486618 7.26201474,9.53160968 L7.26201474,19.8839231 L7.26198232,19.8839231 Z M10.9008841,19.9342585 C10.9008841,20.5494918 11.2911324,20.8571085 12.0716612,20.8571085 C12.8521577,20.8571085 13.2424059,20.5494918 13.2424059,19.9342585 L13.2424059,3.15579267 C13.2424059,2.21619859 12.9734436,1.68489196 12.435519,1.56183842 C12.0874501,1.47234181 11.7446334,1.57861689 11.4071337,1.88062927 C11.0696016,2.18264166 10.9008517,2.6076732 10.9008517,3.15579267 L10.9008517,19.9342585 L10.9008841,19.9342585 Z M14.6031036,20.420834 L14.6031036,2.16586319 C14.6031036,1.58422117 14.7665689,1.23747767 15.0935643,1.12559831 C15.8002388,0.946639469 16.5016611,0.857142857 17.1977988,0.857142857 C18.8115403,0.857142857 20.3145973,1.25982604 21.7068404,2.06519239 C23.0991159,2.87055875 24.2250875,3.96954826 25.0846906,5.36216092 C25.944326,6.75480797 26.4426973,8.29000321 26.5798046,9.96788417 C27.2231938,9.67704597 27.9087624,9.53164406 28.6365427,9.53164406 C30.1132093,9.53164406 31.3762882,10.0853334 32.425747,11.1927122 C33.4752382,12.3001253 34,13.631194 34,15.1860214 C34,16.752023 33.4752382,18.088696 32.425747,19.1960747 C31.3762882,20.3034535 30.1184939,20.8571429 28.652364,20.8571429 L14.8878224,20.8403644 C14.7928621,20.8068075 14.7216662,20.7452635 14.6742023,20.6558013 C14.6267383,20.566339 14.6031036,20.4879478 14.6031036,20.420834 L14.6031036,20.420834 L14.6031036,20.420834 Z" id="path-1"></path>
    </defs>
    <g id="Icon/Store/soundcloud" stroke="none" stroke-width="1" fill="none" fill-rule="evenodd">
        <g id="Icon" transform="translate(7.000000, 13.000000)">
            <mask id="mask-2" fill="white">
                <use xlink:href="#path-1"></use>
            </mask>
            <use id="Soundcloud" fill="#FF4300" xlink:href="#path-1"></use>
        </g>
    </g>
</svg>