<?xml version="1.0" encoding="UTF-8"?>
<svg width="168px" height="168px" viewBox="0 0 168 168" version="1.1" xmlns="http://www.w3.org/2000/svg" xmlns:xlink="http://www.w3.org/1999/xlink">
    <!-- Generator: Sketch 52.5 (67469) - http://www.bohemiancoding.com/sketch -->
    <title>spotify</title>
    <desc>Created with Sketch.</desc>
    <g id="Page-5" stroke="none" stroke-width="1" fill="none" fill-rule="evenodd">
        <g id="spotify" fill="#1DB954" fill-rule="nonzero">
            <path d="M83.996,0.277 C37.747,0.277 0.253,37.77 0.253,84.019 C0.253,130.273 37.747,167.764 83.996,167.764 C130.247,167.764 167.739,130.273 167.739,84.019 C167.739,37.773 130.249,0.281 83.995,0.281 L83.996,0.277 Z M122.4,121.057 C120.896,123.524 117.682,124.297 115.223,122.794 C95.558,110.775 70.806,108.06 41.656,114.719 C38.847,115.363 36.047,113.602 35.407,110.794 C34.764,107.985 36.517,105.185 39.333,104.545 C71.233,97.252 98.596,100.391 120.669,113.879 C123.129,115.389 123.909,118.599 122.399,121.059 L122.4,121.057 Z M132.65,98.258 C130.756,101.331 126.738,102.295 123.669,100.408 C101.164,86.574 66.847,82.567 40.222,90.649 C36.769,91.692 33.122,89.746 32.074,86.299 C31.034,82.846 32.981,79.206 36.428,78.156 C66.841,68.928 104.649,73.398 130.499,89.283 C133.569,91.173 134.539,95.193 132.649,98.259 L132.65,98.258 Z M133.53,74.514 C106.536,58.483 62.01,57.009 36.241,64.83 C32.103,66.085 27.727,63.749 26.473,59.611 C25.219,55.471 27.553,51.098 31.694,49.84 C61.275,40.86 110.45,42.595 141.524,61.042 C145.246,63.251 146.467,68.058 144.261,71.775 C142.061,75.497 137.241,76.724 133.531,74.514 L133.53,74.514 Z" id="Shape"></path>
        </g>
    </g>
</svg>