<?xml version="1.0" encoding="UTF-8"?>
<svg width="297px" height="108px" viewBox="0 0 297 108" version="1.1" xmlns="http://www.w3.org/2000/svg" xmlns:xlink="http://www.w3.org/1999/xlink">
    <!-- Generator: Sketch 52.5 (67469) - http://www.bohemiancoding.com/sketch -->
    <title>theorchard</title>
    <desc>Created with Sketch.</desc>
    <g id="Page-5" stroke="none" stroke-width="1" fill="none" fill-rule="evenodd">
        <g id="theorchard">
            <polygon id="Path" fill="#BFBFBF" points="132.2 43.3 132.2 60.8 127.8 60.8 127.8 43.3 121.6 43.3 121.6 39 138.4 39 138.4 43.3"></polygon>
            <path d="M151.4,60.8 L151.4,52 C151.4,49.1 150.4,48.2 148.6,48.2 C146.8,48.2 145.8,49.1 145.8,51.9 L145.8,60.8 L141.5,60.8 L141.5,40.3 L145.8,38.2 L145.8,45.6 C146.5,44.8 147.9,44.2 149.6,44.2 C153.8,44.2 155.6,47.1 155.6,51.7 L155.6,60.9 L151.4,60.9 L151.4,60.8 Z" id="Path" fill="#BFBFBF"></path>
            <path d="M172.9,54 L163.1,54 C163.3,56.2 164.9,57.1 166.5,57.1 C167.7,57.1 168.7,56.7 169.3,56 L172.4,58.6 C171.1,60.3 168.7,61.2 166.6,61.2 C161.9,61.2 158.9,57.9 158.9,52.7 C158.9,47.7 162,44.2 166.2,44.2 C170.6,44.2 173.1,48.1 173.1,52.7 C172.9,53.3 172.9,53.7 172.9,54 Z M165.9,47.9 C164.4,47.9 163.4,49.2 163.2,50.8 L168.8,50.8 C168.7,49.3 167.8,47.9 165.9,47.9 Z" id="Shape" fill="#BFBFBF" fill-rule="nonzero"></path>
            <path d="M104.9,97.2 C94.5,97.2 88.3,89.1 88.3,77.5 C88.3,65.9 94.5,57.9 104.9,57.9 C115.3,57.9 121.5,66 121.5,77.5 C121.5,89.1 115.3,97.2 104.9,97.2 Z M104.9,65.5 C98.7,65.5 96.2,70.8 96.2,77.6 C96.2,84.4 98.8,89.7 104.9,89.7 C111.1,89.7 113.6,84.4 113.6,77.6 C113.6,70.7 111.1,65.5 104.9,65.5 Z" id="Shape" fill="#BFBFBF" fill-rule="nonzero"></path>
            <path d="M144.7,76.8 C143.5,75.7 142,74.9 140.3,74.9 C137.4,74.9 135.5,76.1 135.5,81.1 L135.5,96.6 L128,96.6 L128,68 L135.5,68 L135.5,69.9 C136.8,68.5 138.7,67.4 141.4,67.4 C143.8,67.4 145.7,68.4 146.7,69.4 L144.7,76.8 Z" id="Path" fill="#BFBFBF"></path>
            <path d="M162.4,97.2 C154.9,97.2 149,91.1 149,82.3 C149,73.5 154.8,67.4 162.7,67.4 C168.1,67.4 171.6,70.1 174,73.7 L169,78.7 C167.3,76.3 165.5,74.6 162.5,74.6 C158.9,74.6 156.6,77.6 156.6,82.3 C156.6,86.9 158.9,89.9 162.5,89.9 C165.4,89.9 167.3,88.6 169.3,86.3 L174.1,90.8 C171.3,94.5 168.1,97.2 162.4,97.2 Z" id="Path" fill="#BFBFBF"></path>
            <path d="M197,96.6 L197,81.1 C197,76 195.3,74.4 192.2,74.4 C189.1,74.4 187.3,75.9 187.3,80.9 L187.3,96.5 L179.8,96.5 L179.8,60.7 L187.3,56.9 L187.3,69.9 C188.6,68.5 191,67.4 194,67.4 C201.3,67.4 204.6,72.4 204.6,80.5 L204.6,96.6 L197,96.6 Z" id="Path" fill="#BFBFBF"></path>
            <path d="M227.2,96.6 L227.2,94.7 C225.8,96.1 223.4,97.2 220.8,97.2 C215.5,97.2 210.1,93.9 210.1,87 C210.1,80.7 215.2,77.5 221.7,77.5 C224.3,77.5 226,78.1 227.2,78.7 L227.2,77.3 C227.2,75.3 225.8,73.7 223.1,73.7 C219.7,73.7 217.9,74.2 215.3,75.6 L212.4,70.4 C215.7,68.5 218.5,67.5 223.1,67.5 C230,67.5 234.7,71.1 234.7,77.5 L234.7,96.7 L227.2,96.7 L227.2,96.6 Z M227.2,84.6 C225.9,83.8 224.6,83.4 222,83.4 C219.2,83.4 217.6,84.7 217.6,87 C217.6,89 218.7,90.8 222,90.8 C224.4,90.8 226.4,89.6 227.2,88.2 L227.2,84.6 Z" id="Shape" fill="#BFBFBF" fill-rule="nonzero"></path>
            <path d="M258.5,76.8 C257.3,75.7 255.8,74.9 254.2,74.9 C251.3,74.9 249.3,76.1 249.3,81.1 L249.3,96.6 L241.8,96.6 L241.8,68 L249.3,68 L249.3,69.9 C250.6,68.5 252.5,67.4 255.2,67.4 C257.7,67.4 259.5,68.4 260.5,69.4 L258.5,76.8 Z" id="Path" fill="#BFBFBF"></path>
            <path d="M280,96.6 L280,94.8 C278.6,96.1 276.7,97.2 274,97.2 C267.9,97.2 262.9,92.6 262.9,81.9 C262.9,73.4 266.9,67.4 274,67.4 C276.5,67.4 278.7,68.4 280,69.6 L280,60.6 L287.5,56.8 L287.5,96.5 L280,96.5 L280,96.6 Z M280,77 C278.9,75.4 277.1,74.5 274.9,74.5 C272,74.5 270.4,77 270.4,81.8 C270.4,87.7 272.4,90.1 275.3,90.1 C277.6,90.1 278.8,89.1 279.9,87.7 L279.9,77 L280,77 Z" id="Shape" fill="#BFBFBF" fill-rule="nonzero"></path>
            <path d="M77,69.1 C77,90.4 59.8,107.6 38.5,107.6 C17.3,107.6 0,90.4 0,69.1 C0,47.8 17.3,30.6 38.5,30.6 C59.8,30.6 77,47.8 77,69.1 Z" id="Path" fill="#FF893E"></path>
            <path d="M42.8,5.5 C38.8,4.9 35.6,4.9 32.8,4.5 C29.4,4.2 22.8,3.3 21,0.3 C21,0.3 21,0.6 20.9,1.1 C20.8,2.2 20.8,4.5 21.5,7.4 C22.1,9.9 23,12.4 24.3,14.8 C24.7,15.6 25.2,16.3 25.7,17.1 C28.9,21.8 34,25.1 41.7,26.8 C51.8,29.1 61.3,30.7 68.7,40.1 C68.7,40.1 68.7,40 68.7,40 C70,34.8 64.9,9 42.8,5.5 Z" id="Path" fill="#78A22F"></path>
            <path d="M293.5,91.9 C295.1,91.9 296.4,93.2 296.4,94.7 C296.4,96.3 295.1,97.5 293.5,97.5 C291.9,97.5 290.6,96.2 290.6,94.7 C290.6,93.2 291.9,91.9 293.5,91.9 Z M293.5,92.6 C292.4,92.6 291.5,93.5 291.5,94.7 C291.5,95.9 292.4,96.8 293.5,96.8 C294.7,96.8 295.5,95.8 295.5,94.7 C295.6,93.5 294.7,92.6 293.5,92.6 Z M293.2,96.1 L292.4,96.1 L292.4,93.5 C292.6,93.5 293,93.4 293.5,93.4 C294.1,93.4 294.4,93.5 294.5,93.6 C294.7,93.7 294.8,93.9 294.8,94.2 C294.8,94.5 294.6,94.7 294.2,94.8 C294.5,94.9 294.7,95.1 294.7,95.5 C294.8,95.9 294.8,96 294.9,96.1 L294,96.1 C293.9,96 293.9,95.8 293.8,95.5 C293.8,95.2 293.6,95.1 293.4,95.1 L293.1,95.1 L293.1,96.1 L293.2,96.1 Z M293.2,94.6 L293.4,94.6 C293.7,94.6 293.9,94.5 293.9,94.3 C293.9,94.1 293.7,94 293.4,94 C293.3,94 293.2,94 293.1,94 L293.1,94.6 L293.2,94.6 Z" id="Shape" fill="#BFBFBF" fill-rule="nonzero"></path>
            <path d="M67.1,100.2 C68.7,100.2 70,101.5 70,103 C70,104.6 68.7,105.8 67.1,105.8 C65.5,105.8 64.2,104.5 64.2,103 C64.2,101.4 65.5,100.2 67.1,100.2 Z M67.1,100.9 C66,100.9 65.1,101.8 65.1,103 C65.1,104.2 66,105.1 67.1,105.1 C68.3,105.1 69.1,104.1 69.1,103 C69.1,101.9 68.3,100.9 67.1,100.9 Z M66.7,104.3 L65.9,104.3 L65.9,101.7 C66.1,101.7 66.5,101.6 67,101.6 C67.6,101.6 67.9,101.7 68,101.8 C68.2,101.9 68.3,102.1 68.3,102.4 C68.3,102.7 68.1,102.9 67.7,103 C68,103.1 68.2,103.3 68.2,103.7 C68.3,104.1 68.3,104.2 68.4,104.3 L67.5,104.3 C67.4,104.2 67.4,104 67.3,103.7 C67.3,103.4 67.1,103.3 66.9,103.3 L66.6,103.3 L66.6,104.3 L66.7,104.3 Z M66.8,102.8 L67,102.8 C67.3,102.8 67.5,102.7 67.5,102.5 C67.5,102.3 67.3,102.2 67,102.2 C66.9,102.2 66.8,102.2 66.7,102.2 L66.7,102.8 L66.8,102.8 Z" id="Shape" fill="#BFBFBF" fill-rule="nonzero"></path>
        </g>
    </g>
</svg>