<?xml version="1.0" encoding="UTF-8"?>
<svg width="48px" height="48px" viewBox="0 0 48 48" version="1.1" xmlns="http://www.w3.org/2000/svg" xmlns:xlink="http://www.w3.org/1999/xlink">
    <!-- Generator: Sketch 54 (76480) - https://sketchapp.com -->
    <title>Icon/Store/Tidal</title>
    <desc>Created with Sketch.</desc>
    <g id="Icon/Store/Tidal" stroke="none" stroke-width="1" fill="none" fill-rule="evenodd">
        <g id="tidal" transform="translate(8.000000, 13.000000)" fill="#000000" fill-rule="nonzero" stroke="#000000" stroke-width="0.094">
            <path d="M5.29609516,0.470588235 L5.36229635,0.470588235 C5.86724593,1.03281157 6.43806568,1.53078082 6.97595035,2.06890887 L10.6335661,5.61894766 L10.6335661,5.68320175 C8.86284975,7.39396705 7.10007758,9.12079587 5.32919576,10.8315612 C3.55003879,9.11276411 1.77915697,7.38593529 0,5.66713823 C0.0911921386,5.49847123 0.264804758,5.38602656 0.397207137,5.24948661 C2.02741143,3.65116597 3.68244117,2.07694063 5.29609516,0.470588235 Z M15.971037,0.470588235 L16.0372382,0.470588235 C16.0870546,0.542874093 16.13654,0.607128189 16.2027411,0.671382284 C17.9156969,2.31789349 19.6039928,3.98849998 21.3333333,5.62697942 C21.2919576,5.72336056 21.200931,5.78761466 21.1264546,5.85990052 C19.4136643,7.51444348 17.7088182,9.17701821 15.9958624,10.8315612 C14.2084303,9.12079587 12.4540988,7.37790353 10.6583915,5.67516999 C12.3961727,3.91621412 14.2249806,2.22151234 15.971037,0.470588235 Z M26.6459788,0.470588235 L26.71218,0.470588235 C27.0431859,0.85611281 27.4321179,1.18541505 27.7879493,1.54684434 C29.1285234,2.84798978 30.4609878,4.14110345 31.8013964,5.44224889 C31.8677631,5.51453475 31.9753401,5.57878885 32,5.68320175 C30.2042927,7.37790353 28.4665115,9.1368594 26.6625291,10.8315612 L21.5733126,5.89202756 C21.4905612,5.80367818 21.3829842,5.73942409 21.3416085,5.62697942 C22.2435997,4.77561265 23.1207655,3.9001506 24.0144815,3.04075206 C24.8916473,2.18135353 25.7853633,1.34605029 26.6459788,0.470588235 Z M10.7328679,15.93173 C12.4789242,14.2370282 14.2332558,12.5423265 15.9793121,10.8395929 L16.053623,10.87172 C17.8079545,12.5824853 19.562286,14.2932506 21.3331678,15.9879524 C21.2754073,16.1164605 21.1512801,16.1887464 21.0600879,16.2931593 C19.7858805,17.5220189 18.5113421,18.766942 17.2369692,19.9958016 C16.8232118,20.3813262 16.4260047,20.8150413 16.0041376,21.1764706 C15.4000517,20.6463743 14.8456168,20.0520239 14.2579157,19.5058641 C13.0664598,18.3492904 11.8831135,17.1927167 10.683217,16.0441747 C10.6997673,16.0120476 10.7163176,15.9638571 10.7328679,15.93173 Z" id="Shape"></path>
        </g>
    </g>
</svg>