<?xml version="1.0" encoding="UTF-8"?>
<svg width="48px" height="48px" viewBox="0 0 48 48" version="1.1" xmlns="http://www.w3.org/2000/svg" xmlns:xlink="http://www.w3.org/1999/xlink">
    <!-- Generator: Sketch 54.1 (76490) - https://sketchapp.com -->
    <title>Icon/Store/Uma</title>
    <desc>Created with Sketch.</desc>
    <g id="Icon/Store/Uma" stroke="none" stroke-width="1" fill="none" fill-rule="evenodd">
        <g id="Uma_logo" transform="translate(7.000000, 10.000000)" fill="#321163" fill-rule="nonzero">
            <path d="M6.22781662,28 C5.52683296,27.8688195 4.81387351,27.7829276 4.1280592,27.5994311 C1.83110024,26.9849131 0.578431272,25.4372961 0.169657205,23.2002008 C0.0589143685,22.5599588 0.00548607845,21.9114893 0.00997983561,21.2621657 C-0.000665322374,14.3387527 -0.00279435397,7.41533971 0.00359274082,0.491926713 C0.00359274082,0.335759502 0.00359274082,0.179592292 0.00359274082,0 L4.55439778,0 C4.55439778,0.142892998 4.55439778,0.281100979 4.55439778,0.41930896 C4.55067198,7.60300064 4.54694617,14.7866923 4.54322037,21.970384 C4.54322037,23.0869796 5.25617982,23.9857219 6.28769563,24.18015 C7.67130004,24.4417301 9.00700124,23.3782314 9.01498511,21.9938091 C9.02376736,20.432137 9.01498511,18.8704649 9.01498511,17.3087928 C9.01498511,17.1674614 9.01498511,17.026911 9.01498511,16.8590312 L12.9606129,16.8590312 C12.97692,16.940746 12.9875893,17.023441 12.9925484,17.1065562 C12.9925484,18.7330377 13.0093145,20.3595192 12.9925484,21.9860007 C12.9582178,24.8750941 11.1618473,27.1176553 8.34513854,27.7985443 C7.98825962,27.8852171 7.62180006,27.9336289 7.25933243,27.9992192 L6.22781662,28 Z" id="Path"></path>
            <path d="M26.9800464,28 L23.0531873,28 L23.0531873,27.5352261 C23.0531873,22.9739929 23.051059,18.4127598 23.0468022,13.8515267 C23.045838,13.4737978 22.9959501,13.0977346 22.8983478,12.7324517 C22.7267472,12.0954519 22.3133096,11.8044767 21.6548424,11.7753792 C20.9963752,11.7462816 20.4081444,12.0474803 20.2006275,12.5964011 C20.086304,12.9019128 20.0268849,13.2247165 20.0250362,13.550328 C20.0138622,18.2027858 20.0109357,22.8549814 20.0162567,27.506915 C20.0162567,27.6641989 20.0162567,27.8167643 20.0162567,27.9968543 L15.9816484,27.9968543 C15.9816484,27.814405 15.9816484,27.6468976 15.9816484,27.4801767 C15.9816484,22.9724201 15.9872354,18.4638771 15.973667,13.9537612 C15.9749908,13.4979256 15.9099449,13.0442598 15.7805166,12.6066246 C15.5985402,12.0144507 15.1108754,11.7517866 14.4468211,11.7761656 C13.7053471,11.8036903 13.3294222,12.0553445 13.1482439,12.7025678 C13.0630708,13.0181082 13.0138148,13.3420108 13.0013858,13.6682909 C12.9782397,14.1747451 12.9950007,14.6835585 12.9950007,15.2136052 L9.01785861,15.2136052 C9.06494899,13.9922958 8.8526432,12.7670542 9.22936627,11.5827064 C9.84313754,9.65676501 11.2366936,8.54948635 13.1985269,8.14526672 C14.7038229,7.83463102 16.1572396,7.99270134 17.4526243,8.90730723 C17.6353988,9.03628002 17.8077975,9.17862196 17.9993516,9.3256824 C18.7668628,8.67137672 19.7059951,8.24345856 20.709044,8.09100378 C23.8800626,7.58061752 26.4468875,9.46330582 26.9249746,12.0695001 C26.9804994,12.4187759 27.0045374,12.7722089 26.9968074,13.1256615 C27.0010642,17.9490344 27.0010642,22.7724074 26.9968074,27.5957804 C26.9984037,27.7223939 26.9872297,27.8497939 26.9800464,28 Z" id="Path"></path>
            <path d="M33.9836376,28 L29.9580278,28 L29.9580278,19.9267397 L27.8890402,19.9267397 L27.8890402,16.8576574 L29.9482569,16.8576574 C29.9482569,16.1824593 29.9482569,15.5568387 29.9482569,14.9312181 C29.9482569,14.4590515 29.9531423,13.986885 29.9482569,13.5147185 C29.9287151,12.1115971 29.2211393,11.5662448 27.7848173,11.8621358 C27.5495015,10.5959426 26.9428916,9.50838573 26,8.56326577 C26.8842662,8.11155981 27.8019164,7.98092708 28.7366656,8.00217457 C31.1981176,8.05883455 33.162068,9.4580213 33.7849627,11.5985095 C33.9148152,12.03862 33.9827365,12.49363 33.9868946,12.9512665 C34.0010081,17.869143 34.0037222,22.7870195 33.995037,27.7048959 C33.998294,27.7938206 33.9901516,27.8827453 33.9836376,28 Z" id="Path"></path>
        </g>
    </g>
</svg>