<?xml version="1.0" encoding="UTF-8"?>
<svg width="48px" height="48px" viewBox="0 0 48 48" version="1.1" xmlns="http://www.w3.org/2000/svg" xmlns:xlink="http://www.w3.org/1999/xlink">
    <!-- Generator: Sketch 54 (76480) - https://sketchapp.com -->
    <title>Icon/Store/Yandex</title>
    <desc>Created with Sketch.</desc>
    <g id="Icon/Store/Yandex" stroke="none" stroke-width="1" fill="none" fill-rule="evenodd">
        <g id="Group" transform="translate(11.000000, 8.000000)">
            <ellipse id="Oval" fill="#FFCC00" cx="12.48" cy="19.24" rx="12.48" ry="13"></ellipse>
            <path d="M18.9762198,6.25376211 L18.976328,18.4124218 L18.9481792,18.4220239 C18.9481895,18.4271868 18.9481967,18.4323705 18.9481967,18.4375764 C18.9481967,19.6268101 18.8636549,20.7360886 18.705725,21.3022342 C17.9461798,24.0250448 15.4891564,26 12.5754099,26 C9.05581682,26 6.24,23.1000904 6.24,19.5111165 C6.24,15.9221427 9.05581682,13.0222331 12.5754099,13.0222331 C14.2337621,13.0222331 15.7441685,13.6681518 16.8778789,14.7267298 C17.2482819,15.0725858 17.5784748,15.4624909 17.8604798,15.88831 C17.7822541,15.507203 17.705188,15.0277493 17.705188,14.6179331 L17.705188,5.19491815 L17.705188,0 L26,2.591742 L26,8.46127535 L18.9762198,6.25376211 Z" id="Combined-Shape" fill="#FF3333"></path>
        </g>
    </g>
</svg>