<?xml version="1.0" encoding="UTF-8"?>
<svg width="512px" height="206px" viewBox="0 0 512 206" version="1.1" xmlns="http://www.w3.org/2000/svg" xmlns:xlink="http://www.w3.org/1999/xlink">
    <!-- Generator: Sketch 51.3 (57544) - http://www.bohemiancoding.com/sketch -->
    <title>Artboard</title>
    <desc>Created with Sketch.</desc>
    <defs>
        <polygon id="path-1" points="0 0.0131958763 438.447945 0.0131958763 438.447945 89.6791753 0 89.6791753"></polygon>
        <polygon id="path-3" points="0 0.0131958763 438.447945 0.0131958763 438.447945 89.6791753 0 89.6791753"></polygon>
        <polygon id="path-5" points="0 0.0131958763 438.447945 0.0131958763 438.447945 89.6791753 0 89.6791753"></polygon>
        <polygon id="path-7" points="0 0.0131958763 438.447945 0.0131958763 438.447945 89.6791753 0 89.6791753"></polygon>
        <polygon id="path-9" points="0 0.0131958763 438.447945 0.0131958763 438.447945 89.6791753 0 89.6791753"></polygon>
        <polygon id="path-11" points="0 0.0131958763 438.447945 0.0131958763 438.447945 89.6791753 0 89.6791753"></polygon>
        <polygon id="path-13" points="0 0.0131958763 438.447945 0.0131958763 438.447945 89.6791753 0 89.6791753"></polygon>
    </defs>
    <g id="Artboard" stroke="none" stroke-width="1" fill="none" fill-rule="evenodd">
        <g id="logo-lockup-negative">
            <polygon id="Fill-1" fill="#2B2B2B" fill-rule="nonzero" points="335.920385 22.7866392 481.301113 22.7866392 481.301113 0.00439862543 335.920385 0.00439862543"></polygon>
            <polygon id="Fill-2" fill="#2B2B2B" fill-rule="nonzero" points="190.539656 45.5688797 335.920385 45.5688797 335.920385 22.7866392 190.539656 22.7866392"></polygon>
            <g id="Group-12" transform="translate(0.000000, 116.123711)">
                <g id="Fill-3-Clipped">
                    <mask id="mask-2" fill="white">
                        <use xlink:href="#path-1"></use>
                    </mask>
                    <g id="path-1"></g>
                    <path d="M26.3433677,44.1199725 C36.6467079,44.1199725 42.0842887,39.7187079 42.0842887,30.9205773 L42.0842887,30.4596014 C42.0842887,20.9656082 36.185732,17.7264605 26.3433677,17.7264605 L13.9585979,17.7264605 L13.9585979,44.1199725 L26.3433677,44.1199725 Z M0,5.79914777 L26.3433677,5.79914777 C44.5176082,5.79914777 57.2551478,13.2081924 57.2551478,30.1112302 L57.2551478,30.5774845 C57.2551478,43.5411134 49.1493608,50.1399313 38.8451409,52.8046186 L62.1129897,88.5742405 L45.4404399,88.5742405 L23.7921649,55.1156564 L13.9585979,55.1156564 L13.9585979,88.5742405 L0,88.5742405 L0,5.79914777 Z" id="Fill-3" fill="#2B2B2B" fill-rule="nonzero" mask="url(#mask-2)"></path>
                </g>
                <g id="Fill-5-Clipped">
                    <mask id="mask-4" fill="white">
                        <use xlink:href="#path-3"></use>
                    </mask>
                    <g id="path-1"></g>
                    <path d="M108.205306,51.9899931 C107.508564,41.5731684 102.188866,36.9414158 93.5042199,36.9414158 C85.0544605,36.9414158 79.3828729,42.6138832 77.9893883,51.9899931 L108.205306,51.9899931 Z M63.4061856,58.9380619 L63.4061856,58.0108316 C63.4061856,39.2568522 76.252811,26.755079 93.5042199,26.755079 C108.558076,26.755079 122.100564,35.6702131 122.100564,57.318488 L122.100564,61.3669828 L77.763299,61.3669828 C78.2242749,72.828921 84.0146254,79.3107354 94.4270515,79.3107354 C102.876811,79.3107354 107.282474,75.9545842 108.322309,70.0516289 L121.864797,70.0516289 C119.902131,82.7847698 109.597911,89.7319588 94.083079,89.7319588 C76.252811,89.7319588 63.4061856,78.0395326 63.4061856,58.9380619 Z" id="Fill-5" fill="#2B2B2B" fill-rule="nonzero" mask="url(#mask-4)"></path>
                </g>
                <g id="Fill-6-Clipped">
                    <mask id="mask-6" fill="white">
                        <use xlink:href="#path-5"></use>
                    </mask>
                    <g id="path-1"></g>
                    <polyline id="Fill-6" fill="#2B2B2B" fill-rule="nonzero" mask="url(#mask-6)" points="123.737732 28.0262818 138.781911 28.0262818 154.640715 74.2171271 170.27343 28.0262818 184.050804 28.0262818 162.167643 88.5742405 145.846983 88.5742405 123.737732 28.0262818"></polyline>
                </g>
                <g id="Fill-7-Clipped">
                    <mask id="mask-8" fill="white">
                        <use xlink:href="#path-7"></use>
                    </mask>
                    <g id="path-1"></g>
                    <path d="M229.446378,51.9899931 C228.749636,41.5731684 223.421141,36.9414158 214.736495,36.9414158 C206.286735,36.9414158 200.615148,42.6138832 199.23046,51.9899931 L229.446378,51.9899931 Z M184.63846,58.9380619 L184.63846,58.0108316 C184.63846,39.2568522 197.493883,26.755079 214.736495,26.755079 C229.790351,26.755079 243.332838,35.6702131 243.332838,57.318488 L243.332838,61.3669828 L198.995574,61.3669828 C199.45743,72.828921 205.2469,79.3107354 215.668124,79.3107354 C224.117883,79.3107354 228.514749,75.9545842 229.554584,70.0516289 L243.106749,70.0516289 C241.134405,82.7847698 230.830186,89.7319588 215.315354,89.7319588 C197.493883,89.7319588 184.63846,78.0395326 184.63846,58.9380619 Z" id="Fill-7" fill="#2B2B2B" fill-rule="nonzero" mask="url(#mask-8)"></path>
                </g>
                <g id="Fill-8-Clipped">
                    <mask id="mask-10" fill="white">
                        <use xlink:href="#path-9"></use>
                    </mask>
                    <g id="path-1"></g>
                    <polygon id="Fill-8" fill="#2B2B2B" fill-rule="nonzero" mask="url(#mask-10)" points="252.731821 88.5742405 266.736165 88.5742405 266.736165 0.0131958763 252.731821 0.0131958763"></polygon>
                </g>
                <g id="Fill-9-Clipped">
                    <mask id="mask-12" fill="white">
                        <use xlink:href="#path-11"></use>
                    </mask>
                    <g id="path-1"></g>
                    <path d="M314.438378,67.3869416 L314.438378,61.3669828 L307.255423,61.3669828 C296.60723,61.3669828 289.777045,63.8003024 289.777045,71.2093471 C289.777045,76.3029553 292.554337,79.6591065 299.502405,79.6591065 C308.069168,79.6591065 314.438378,75.1443574 314.438378,67.3869416 Z M275.881787,71.7882062 C275.881787,57.6624605 289.542158,52.5688522 306.91145,52.5688522 L314.438378,52.5688522 L314.438378,49.443189 C314.438378,41.3426804 311.661086,37.2897869 303.437416,37.2897869 C296.146254,37.2897869 292.554337,40.7638213 291.858474,46.7837801 L278.315107,46.7837801 C279.473704,32.6580344 290.699876,26.755079 304.252041,26.755079 C317.794529,26.755079 328.441842,32.3096632 328.441842,48.8643299 L328.441842,88.5742405 L314.664467,88.5742405 L314.664467,81.1651959 C310.729457,86.3758076 305.409759,89.7319588 296.146254,89.7319588 C285.028289,89.7319588 275.881787,84.4087423 275.881787,71.7882062 Z" id="Fill-9" fill="#2B2B2B" fill-rule="nonzero" mask="url(#mask-12)"></path>
                </g>
                <g id="Fill-10-Clipped">
                    <mask id="mask-14" fill="white">
                        <use xlink:href="#path-13"></use>
                    </mask>
                    <g id="path-1"></g>
                    <path d="M343.396289,71.6712027 L343.396289,38.5653883 L335.290502,38.5653883 L335.290502,28.0262818 L343.396289,28.0262818 L343.396289,14.7142818 L357.399753,14.7142818 L357.399753,28.0262818 L370.716151,28.0262818 L370.716151,38.5653883 L357.399753,38.5653883 L357.399753,70.4 C357.399753,75.7240962 359.950955,78.1574158 364.347821,78.1574158 C367.125113,78.1574158 369.205663,77.8090447 371.178007,76.9996976 L371.178007,88.1132646 C368.979574,88.9226117 365.967395,89.6149553 361.678735,89.6149553 C349.647615,89.6149553 343.396289,83.1331409 343.396289,71.6712027" id="Fill-10" fill="#2B2B2B" fill-rule="nonzero" mask="url(#mask-14)"></path>
                </g>
                <g id="Fill-11-Clipped" fill="#2B2B2B" fill-rule="nonzero">
                    <path d="M424.090832,58.7075739 L424.090832,57.8973471 C424.090832,45.3955739 417.839505,37.7507629 407.418282,37.7507629 C396.997058,37.7507629 390.636646,45.2776907 390.636646,57.7803436 L390.636646,58.7075739 C390.636646,71.0923436 396.770089,78.8488797 407.418282,78.8488797 C417.839505,78.8488797 424.090832,71.0923436 424.090832,58.7075739 Z M376.280412,58.9380619 L376.280412,58.0108316 C376.280412,39.2568522 389.588014,26.755079 407.418282,26.755079 C425.131546,26.755079 438.447945,39.1398488 438.447945,57.6624605 L438.447945,58.5896907 C438.447945,77.4606735 425.131546,89.7319588 407.300399,89.7319588 C389.478928,89.7319588 376.280412,77.3427904 376.280412,58.9380619 Z" id="Fill-11"></path>
                </g>
            </g>
            <path d="M447.612041,144.149993 L461.615505,144.149993 L461.615505,155.498447 C465.433512,147.854515 471.105979,143.339766 481.301113,143.227162 L481.301113,156.307794 C469.02455,156.421278 461.615505,160.360687 461.615505,173.207313 L461.615505,204.697952 L447.612041,204.697952 L447.612041,144.149993" id="Fill-13" fill="#2B2B2B" fill-rule="nonzero"></path>
            <path d="M500.848605,143.227162 L503.285443,143.227162 L506.135753,150.381086 L508.920962,143.227162 L511.390351,143.227162 L511.390351,153.421416 L509.617704,153.421416 L509.617704,145.473979 L506.356564,153.421416 L505.755711,153.421416 L502.462021,145.473979 L502.462021,153.421416 L500.848605,153.421416 L500.848605,143.227162 Z M494.199643,144.619766 L491.096852,144.619766 L491.096852,143.227162 L499.043409,143.227162 L499.043409,144.619766 L495.972289,144.619766 L495.972289,153.421416 L494.199643,153.421416 L494.199643,144.619766 Z" id="Fill-14" fill="#2B2B2B" fill-rule="nonzero"></path>
        </g>
    </g>
</svg>