<?xml version="1.0" encoding="UTF-8"?>
<svg width="582px" height="234px" viewBox="0 0 582 234" version="1.1" xmlns="http://www.w3.org/2000/svg" xmlns:xlink="http://www.w3.org/1999/xlink">
    <!-- Generator: Sketch 48.1 (47250) - http://www.bohemiancoding.com/sketch -->
    <title>logo-lockup-negative</title>
    <desc>Created with Sketch.</desc>
    <defs>
        <polygon id="path-1" points="0 0.015 498.392 0.015 498.392 101.94 0 101.94"></polygon>
    </defs>
    <g id="Page-1" stroke="none" stroke-width="1" fill="none" fill-rule="evenodd">
        <g id="logo-lockup-negative">
            <g id="revelator_logo_lockup_negative">
                <polygon id="Fill-1" fill="#FFFFFE" points="381.847 25.902 547.104 25.902 547.104 0.005 381.847 0.005"></polygon>
                <polygon id="Fill-2" fill="#FFFFFE" points="216.59 51.799 381.847 51.799 381.847 25.902 216.59 25.902"></polygon>
                <g id="Group-12" transform="translate(0.000000, 132.000000)">
                    <mask id="mask-2" fill="white">
                        <use xlink:href="#path-1"></use>
                    </mask>
                    <g id="Clip-4"></g>
                    <path d="M29.945,50.152 C41.657,50.152 47.838,45.149 47.838,35.148 L47.838,34.624 C47.838,23.832 41.133,20.15 29.945,20.15 L15.867,20.15 L15.867,50.152 L29.945,50.152 Z M0,6.592 L29.945,6.592 C50.604,6.592 65.083,15.014 65.083,34.228 L65.083,34.758 C65.083,49.494 55.869,56.995 44.156,60.024 L70.605,100.684 L51.653,100.684 L27.045,62.651 L15.867,62.651 L15.867,100.684 L0,100.684 L0,6.592 Z" id="Fill-3" fill="#FFFFFE" mask="url(#mask-2)"></path>
                    <path d="M122.999,59.098 C122.207,47.257 116.16,41.992 106.288,41.992 C96.683,41.992 90.236,48.44 88.652,59.098 L122.999,59.098 Z M72.075,66.996 L72.075,65.942 C72.075,44.624 86.678,30.413 106.288,30.413 C123.4,30.413 138.794,40.547 138.794,65.155 L138.794,69.757 L88.395,69.757 C88.919,82.786 95.501,90.154 107.337,90.154 C116.942,90.154 121.95,86.339 123.132,79.629 L138.526,79.629 C136.295,94.103 124.582,102 106.946,102 C86.678,102 72.075,88.709 72.075,66.996 Z" id="Fill-5" fill="#FFFFFE" mask="url(#mask-2)"></path>
                    <polyline id="Fill-6" fill="#FFFFFE" mask="url(#mask-2)" points="140.655 31.858 157.756 31.858 175.783 84.364 193.553 31.858 209.214 31.858 184.339 100.684 165.787 100.684 140.655 31.858"></polyline>
                    <path d="M260.816,59.098 C260.024,47.257 253.967,41.992 244.095,41.992 C234.49,41.992 228.043,48.44 226.469,59.098 L260.816,59.098 Z M209.882,66.996 L209.882,65.942 C209.882,44.624 224.495,30.413 244.095,30.413 C261.207,30.413 276.601,40.547 276.601,65.155 L276.601,69.757 L226.202,69.757 C226.727,82.786 233.308,90.154 245.154,90.154 C254.759,90.154 259.757,86.339 260.939,79.629 L276.344,79.629 C274.102,94.103 262.389,102 244.753,102 C224.495,102 209.882,88.709 209.882,66.996 Z" id="Fill-7" fill="#FFFFFE" mask="url(#mask-2)"></path>
                    <polygon id="Fill-8" fill="#FFFFFE" mask="url(#mask-2)" points="287.285 100.684 303.204 100.684 303.204 0.015 287.285 0.015"></polygon>
                    <path d="M357.428,76.6 L357.428,69.757 L349.263,69.757 C337.159,69.757 329.395,72.523 329.395,80.945 C329.395,86.735 332.552,90.55 340.45,90.55 C350.188,90.55 357.428,85.418 357.428,76.6 Z M313.6,81.603 C313.6,65.546 329.128,59.756 348.872,59.756 L357.428,59.756 L357.428,56.203 C357.428,46.995 354.271,42.388 344.923,42.388 C336.635,42.388 332.552,46.337 331.761,53.18 L316.366,53.18 C317.683,37.123 330.444,30.413 345.849,30.413 C361.243,30.413 373.346,36.727 373.346,55.545 L373.346,100.684 L357.685,100.684 L357.685,92.262 C353.212,98.185 347.165,102 336.635,102 C323.997,102 313.6,95.949 313.6,81.603 Z" id="Fill-9" fill="#FFFFFE" mask="url(#mask-2)"></path>
                    <path d="M390.345,81.47 L390.345,43.838 L381.131,43.838 L381.131,31.858 L390.345,31.858 L390.345,16.726 L406.263,16.726 L406.263,31.858 L421.4,31.858 L421.4,43.838 L406.263,43.838 L406.263,80.025 C406.263,86.077 409.163,88.843 414.161,88.843 C417.318,88.843 419.683,88.447 421.925,87.527 L421.925,100.16 C419.426,101.08 416.002,101.867 411.127,101.867 C397.451,101.867 390.345,94.499 390.345,81.47" id="Fill-10" fill="#FFFFFE" mask="url(#mask-2)"></path>
                    <path d="M482.072,66.734 L482.072,65.813 C482.072,51.602 474.966,42.912 463.12,42.912 C451.274,42.912 444.044,51.468 444.044,65.68 L444.044,66.734 C444.044,80.812 451.016,89.629 463.12,89.629 C474.966,89.629 482.072,80.812 482.072,66.734 Z M427.725,66.996 L427.725,65.942 C427.725,44.624 442.852,30.413 463.12,30.413 C483.255,30.413 498.392,44.491 498.392,65.546 L498.392,66.6 C498.392,88.051 483.255,102 462.986,102 C442.728,102 427.725,87.917 427.725,66.996 Z" id="Fill-11" fill="#FFFFFE" mask="url(#mask-2)"></path>
                </g>
                <path d="M508.809,163.858 L524.727,163.858 L524.727,176.758 C529.067,168.069 535.515,162.937 547.104,162.809 L547.104,177.678 C533.149,177.807 524.727,182.285 524.727,196.888 L524.727,232.684 L508.809,232.684 L508.809,163.858" id="Fill-13" fill="#FFFFFE"></path>
                <path d="M569.324,162.809 L572.094,162.809 L575.334,170.941 L578.5,162.809 L581.307,162.809 L581.307,174.397 L579.292,174.397 L579.292,165.363 L575.585,174.397 L574.902,174.397 L571.158,165.363 L571.158,174.397 L569.324,174.397 L569.324,162.809 Z M561.766,164.392 L558.239,164.392 L558.239,162.809 L567.272,162.809 L567.272,164.392 L563.781,164.392 L563.781,174.397 L561.766,174.397 L561.766,164.392 Z" id="Fill-14" fill="#FFFFFE"></path>
            </g>
        </g>
    </g>
</svg>