<?xml version="1.0" encoding="UTF-8"?>
<svg width="505px" height="45px" viewBox="0 0 505 45" version="1.1" xmlns="http://www.w3.org/2000/svg" xmlns:xlink="http://www.w3.org/1999/xlink">
    <!-- Generator: Sketch 50.2 (55047) - http://www.bohemiancoding.com/sketch -->
    <title>Artboard</title>
    <desc>Created with Sketch.</desc>
    <defs></defs>
    <g id="Artboard" stroke="none" stroke-width="1" fill="none" fill-rule="evenodd">
        <g id="Group">
            <rect id="Rectangle-4" fill="#4711E9" x="0" y="17" width="2" height="12" rx="1"></rect>
            <rect id="Rectangle-4-Copy" fill="#4711E9" x="4.6146789" y="14" width="2" height="18" rx="1"></rect>
            <rect id="Rectangle-4-Copy-2" fill="#4711E9" x="9.2293578" y="12" width="2" height="22" rx="1"></rect>
            <rect id="Rectangle-4-Copy-3" fill="#4711E9" x="13.8440367" y="3" width="2" height="40" rx="1"></rect>
            <rect id="Rectangle-4-Copy-4" fill="#4711E9" x="18.4587156" y="15" width="2" height="15" rx="1"></rect>
            <rect id="Rectangle-4-Copy-5" fill="#4711E9" x="23.0733945" y="12" width="2" height="21" rx="1"></rect>
            <rect id="Rectangle-4-Copy-6" fill="#4711E9" x="27.6880734" y="8" width="2" height="30" rx="1"></rect>
            <rect id="Rectangle-4-Copy-7" fill="#4711E9" x="32.3027523" y="3" width="2" height="40" rx="1"></rect>
            <rect id="Rectangle-4-Copy-8" fill="#4711E9" x="36.9174312" y="12" width="2" height="22" rx="1"></rect>
            <rect id="Rectangle-4-Copy-9" fill="#4711E9" x="41.5321101" y="5" width="2" height="36" rx="1"></rect>
            <rect id="Rectangle-4-Copy-10" fill="#4711E9" x="46.146789" y="12" width="2" height="21" rx="1"></rect>
            <rect id="Rectangle-4-Copy-11" fill="#4711E9" x="50.7614679" y="3" width="2" height="40" rx="1"></rect>
            <rect id="Rectangle-4-Copy-12" fill="#4711E9" x="55.3761468" y="12" width="2" height="22" rx="1"></rect>
            <rect id="Rectangle-4-Copy-13" fill="#4711E9" x="59.9908257" y="7" width="2" height="31" rx="1"></rect>
            <rect id="Rectangle-4-Copy-14" fill="#4711E9" x="64.6055046" y="8" width="2" height="30" rx="1"></rect>
            <rect id="Rectangle-4-Copy-15" fill="#4711E9" x="69.2201835" y="12" width="2" height="22" rx="1"></rect>
            <rect id="Rectangle-4-Copy-16" fill="#4711E9" x="73.8348624" y="0" width="2" height="45" rx="1"></rect>
            <rect id="Rectangle-4-Copy-33" fill="#4711E9" x="78.4495413" y="14" width="2" height="18" rx="1"></rect>
            <rect id="Rectangle-4-Copy-32" fill="#4711E9" x="83.0642202" y="5" width="2" height="36" rx="1"></rect>
            <rect id="Rectangle-4-Copy-31" fill="#4711E9" x="87.6788991" y="7" width="2" height="32" rx="1"></rect>
            <rect id="Rectangle-4-Copy-30" fill="#4711E9" x="92.293578" y="12" width="2" height="21" rx="1"></rect>
            <rect id="Rectangle-4-Copy-29" fill="#4711E9" x="96.9082569" y="12" width="2" height="21" rx="1"></rect>
            <rect id="Rectangle-4-Copy-28" fill="#4711E9" x="101.522936" y="5" width="2" height="35" rx="1"></rect>
            <rect id="Rectangle-4-Copy-27" fill="#4711E9" x="106.137615" y="15" width="2" height="15" rx="1"></rect>
            <rect id="Rectangle-4-Copy-26" fill="#4711E9" x="110.752294" y="6" width="2" height="33" rx="1"></rect>
            <rect id="Rectangle-4-Copy-25" fill="#4711E9" x="115.366972" y="12" width="2" height="21" rx="1"></rect>
            <rect id="Rectangle-4-Copy-24" fill="#4711E9" x="119.981651" y="0" width="2" height="45" rx="1"></rect>
            <rect id="Rectangle-4-Copy-23" fill="#4711E9" x="124.59633" y="12" width="2" height="21" rx="1"></rect>
            <rect id="Rectangle-4-Copy-22" fill="#4711E9" x="129.211009" y="12" width="2" height="21" rx="1"></rect>
            <rect id="Rectangle-4-Copy-21" fill="#4711E9" x="133.825688" y="15" width="2" height="15" rx="1"></rect>
            <rect id="Rectangle-4-Copy-20" fill="#4711E9" x="138.440367" y="5" width="2" height="35" rx="1"></rect>
            <rect id="Rectangle-4-Copy-19" fill="#4711E9" x="143.055046" y="9" width="2" height="27" rx="1"></rect>
            <rect id="Rectangle-4-Copy-18" fill="#4711E9" x="147.669725" y="3" width="2" height="39" rx="1"></rect>
            <rect id="Rectangle-4-Copy-17" fill="#4711E9" x="152.284404" y="12" width="2" height="22" rx="1"></rect>
            <rect id="Rectangle-4-Copy-50" fill="#4711E9" x="156.899083" y="6" width="2" height="33" rx="1"></rect>
            <rect id="Rectangle-4-Copy-49" fill="#4711E9" x="161.513761" y="9" width="2" height="27" rx="1"></rect>
            <rect id="Rectangle-4-Copy-48" fill="#4711E9" x="166.12844" y="8" width="2" height="30" rx="1"></rect>
            <rect id="Rectangle-4-Copy-47" fill="#4711E9" x="170.743119" y="12" width="2" height="22" rx="1"></rect>
            <rect id="Rectangle-4-Copy-46" fill="#4711E9" x="175.357798" y="7" width="2" height="31" rx="1"></rect>
            <rect id="Rectangle-4-Copy-45" fill="#4711E9" x="179.972477" y="15" width="2" height="15" rx="1"></rect>
            <rect id="Rectangle-4-Copy-44" fill="#4711E9" x="184.587156" y="12" width="2" height="22" rx="1"></rect>
            <rect id="Rectangle-4-Copy-43" fill="#4711E9" x="189.201835" y="12" width="2" height="21" rx="1"></rect>
            <rect id="Rectangle-4-Copy-42" fill="#4711E9" x="193.816514" y="12" width="2" height="22" rx="1"></rect>
            <rect id="Rectangle-4-Copy-41" fill="#4711E9" x="203.045872" y="5" width="2" height="36" rx="1"></rect>
            <rect id="Rectangle-4-Copy-40" fill="#4711E9" x="212.275229" y="12" width="2" height="21" rx="1"></rect>
            <rect id="Rectangle-4-Copy-39" fill="#4711E9" x="221.504587" y="15" width="2" height="15" rx="1"></rect>
            <rect id="Rectangle-4-Copy-24" fill="#4711E9" x="230.733945" y="0" width="2" height="45" rx="1"></rect>
            <rect id="Rectangle-4-Copy-23" fill="#4711E9" x="239.963303" y="12" width="2" height="21" rx="1"></rect>
            <rect id="Rectangle-4-Copy-22" fill="#4711E9" x="249.192661" y="12" width="2" height="21" rx="1"></rect>
            <rect id="Rectangle-4-Copy-21" fill="#4711E9" x="258.422018" y="15" width="2" height="15" rx="1"></rect>
            <rect id="Rectangle-4-Copy-20" fill="#4711E9" x="267.651376" y="5" width="2" height="35" rx="1"></rect>
            <rect id="Rectangle-4-Copy-19" fill="#4711E9" x="276.880734" y="9" width="2" height="27" rx="1"></rect>
            <rect id="Rectangle-4-Copy-18" fill="#4711E9" x="281.495413" y="3" width="2" height="39" rx="1"></rect>
            <rect id="Rectangle-4-Copy-17" fill="#4711E9" x="290.724771" y="12" width="2" height="22" rx="1"></rect>
            <rect id="Rectangle-4-Copy-50" fill="#4711E9" x="299.954128" y="6" width="2" height="33" rx="1"></rect>
            <rect id="Rectangle-4-Copy-49" fill="#4711E9" x="309.183486" y="9" width="2" height="27" rx="1"></rect>
            <rect id="Rectangle-4-Copy-48" fill="#4711E9" x="318.412844" y="8" width="2" height="30" rx="1"></rect>
            <rect id="Rectangle-4-Copy-47" fill="#4711E9" x="327.642202" y="12" width="2" height="22" rx="1"></rect>
            <rect id="Rectangle-4-Copy-46" fill="#4711E9" x="336.87156" y="7" width="2" height="31" rx="1"></rect>
            <rect id="Rectangle-4-Copy-45" fill="#4711E9" x="350.715596" y="15" width="2" height="15" rx="1"></rect>
            <rect id="Rectangle-4-Copy-44" fill="#4711E9" x="359.944954" y="12" width="2" height="22" rx="1"></rect>
            <rect id="Rectangle-4-Copy-43" fill="#4711E9" x="369.174312" y="12" width="2" height="21" rx="1"></rect>
            <rect id="Rectangle-4-Copy-42" fill="#4711E9" x="378.40367" y="12" width="2" height="22" rx="1"></rect>
            <rect id="Rectangle-4-Copy-41" fill="#4711E9" x="387.633028" y="5" width="2" height="36" rx="1"></rect>
            <rect id="Rectangle-4-Copy-40" fill="#4711E9" x="396.862385" y="12" width="2" height="21" rx="1"></rect>
            <rect id="Rectangle-4-Copy-39" fill="#4711E9" x="406.091743" y="15" width="2" height="15" rx="1"></rect>
            <rect id="Rectangle-4-Copy-41" fill="#4711E9" x="415.321101" y="5" width="2" height="36" rx="1"></rect>
            <rect id="Rectangle-4-Copy-40" fill="#4711E9" x="424.550459" y="12" width="2" height="21" rx="1"></rect>
            <rect id="Rectangle-4-Copy-39" fill="#4711E9" x="433.779817" y="15" width="2" height="15" rx="1"></rect>
            <rect id="Rectangle-4-Copy-43" fill="#4711E9" x="438.394495" y="12" width="2" height="21" rx="1"></rect>
            <rect id="Rectangle-4-Copy-42" fill="#4711E9" x="443.009174" y="12" width="2" height="22" rx="1"></rect>
            <rect id="Rectangle-4-Copy-41" fill="#4711E9" x="447.623853" y="5" width="2" height="36" rx="1"></rect>
            <rect id="Rectangle-4-Copy-40" fill="#4711E9" x="452.238532" y="12" width="2" height="21" rx="1"></rect>
            <rect id="Rectangle-4-Copy-39" fill="#4711E9" x="456.853211" y="15" width="2" height="15" rx="1"></rect>
            <rect id="Rectangle-4-Copy-41" fill="#4711E9" x="461.46789" y="5" width="2" height="36" rx="1"></rect>
            <rect id="Rectangle-4-Copy-40" fill="#4711E9" x="466.082569" y="12" width="2" height="21" rx="1"></rect>
            <rect id="Rectangle-4-Copy-39" fill="#4711E9" x="470.697248" y="15" width="2" height="15" rx="1"></rect>
            <g id="Group-2" transform="translate(475.000000, 7.000000)" fill="#D8D8D8">
                <rect id="Rectangle-4-Copy-38" x="0.311926605" y="1" width="2" height="30" rx="1"></rect>
                <rect id="Rectangle-4-Copy-37" x="4.9266055" y="5" width="2" height="21" rx="1"></rect>
                <rect id="Rectangle-4-Copy-36" x="9.5412844" y="5" width="2" height="22" rx="1"></rect>
                <rect id="Rectangle-4-Copy-35" x="14.1559633" y="8" width="2" height="15" rx="1"></rect>
                <rect id="Rectangle-4-Copy-34" x="18.7706422" y="5" width="2" height="22" rx="1"></rect>
                <rect id="Rectangle-4-Copy-51" x="23.3853211" y="0" width="2" height="31" rx="1"></rect>
                <rect id="Rectangle-4-Copy-52" x="28" y="5" width="2" height="21" rx="1"></rect>
            </g>
            <rect id="Rectangle-4-Copy-17" fill="#4711E9" x="198.431193" y="12" width="2" height="22" rx="1"></rect>
            <rect id="Rectangle-4-Copy-50" fill="#4711E9" x="207.66055" y="6" width="2" height="33" rx="1"></rect>
            <rect id="Rectangle-4-Copy-49" fill="#4711E9" x="216.889908" y="9" width="2" height="27" rx="1"></rect>
            <rect id="Rectangle-4-Copy-48" fill="#4711E9" x="226.119266" y="8" width="2" height="30" rx="1"></rect>
            <rect id="Rectangle-4-Copy-47" fill="#4711E9" x="235.348624" y="12" width="2" height="22" rx="1"></rect>
            <rect id="Rectangle-4-Copy-46" fill="#4711E9" x="244.577982" y="7" width="2" height="31" rx="1"></rect>
            <rect id="Rectangle-4-Copy-45" fill="#4711E9" x="253.807339" y="15" width="2" height="15" rx="1"></rect>
            <rect id="Rectangle-4-Copy-44" fill="#4711E9" x="263.036697" y="12" width="2" height="22" rx="1"></rect>
            <rect id="Rectangle-4-Copy-43" fill="#4711E9" x="272.266055" y="12" width="2" height="21" rx="1"></rect>
            <rect id="Rectangle-4-Copy-42" fill="#4711E9" x="286.110092" y="12" width="2" height="22" rx="1"></rect>
            <rect id="Rectangle-4-Copy-41" fill="#4711E9" x="295.33945" y="5" width="2" height="36" rx="1"></rect>
            <rect id="Rectangle-4-Copy-40" fill="#4711E9" x="304.568807" y="12" width="2" height="21" rx="1"></rect>
            <rect id="Rectangle-4-Copy-39" fill="#4711E9" x="313.798165" y="15" width="2" height="15" rx="1"></rect>
            <rect id="Rectangle-4-Copy-24" fill="#4711E9" x="323.027523" y="0" width="2" height="45" rx="1"></rect>
            <rect id="Rectangle-4-Copy-23" fill="#4711E9" x="332.256881" y="12" width="2" height="21" rx="1"></rect>
            <rect id="Rectangle-4-Copy-22" fill="#4711E9" x="341.486239" y="12" width="2" height="21" rx="1"></rect>
            <rect id="Rectangle-4-Copy-21" fill="#4711E9" x="346.100917" y="15" width="2" height="15" rx="1"></rect>
            <rect id="Rectangle-4-Copy-20" fill="#4711E9" x="355.330275" y="5" width="2" height="35" rx="1"></rect>
            <rect id="Rectangle-4-Copy-19" fill="#4711E9" x="364.559633" y="9" width="2" height="27" rx="1"></rect>
            <rect id="Rectangle-4-Copy-18" fill="#4711E9" x="373.788991" y="3" width="2" height="39" rx="1"></rect>
            <rect id="Rectangle-4-Copy-17" fill="#4711E9" x="383.018349" y="12" width="2" height="22" rx="1"></rect>
            <rect id="Rectangle-4-Copy-50" fill="#4711E9" x="392.247706" y="6" width="2" height="33" rx="1"></rect>
            <rect id="Rectangle-4-Copy-49" fill="#4711E9" x="401.477064" y="9" width="2" height="27" rx="1"></rect>
            <rect id="Rectangle-4-Copy-48" fill="#4711E9" x="410.706422" y="8" width="2" height="30" rx="1"></rect>
            <rect id="Rectangle-4-Copy-47" fill="#4711E9" x="419.93578" y="12" width="2" height="22" rx="1"></rect>
            <rect id="Rectangle-4-Copy-46" fill="#4711E9" x="429.165138" y="7" width="2" height="31" rx="1"></rect>
        </g>
    </g>
</svg>