<?xml version="1.0" encoding="UTF-8" standalone="no"?>
<svg width="512px" height="512px" viewBox="0 0 512 512" version="1.1" xmlns="http://www.w3.org/2000/svg" xmlns:xlink="http://www.w3.org/1999/xlink" style="background: #000000;">
    <!-- Generator: Sketch 49 (51002) - http://www.bohemiancoding.com/sketch -->
    <title>vynil</title>
    <desc>Created with Sketch.</desc>
    <defs></defs>
    <g id="vynil" stroke="none" stroke-width="1" fill="none" fill-rule="evenodd">
        <g id="Page-1" transform="translate(96.000000, 96.000000)" stroke-width="12.5">
            <path d="M0,160 C0,71.64 71.64,0 160,0 C248.36,0 320,71.64 320,160 C320,183.786667 314.8,206.373333 305.493333,226.666667 C298.76,241.333333 289.88,254.8 279.253333,266.666667 C249.96,299.4 207.386667,320 160,320 C71.64,320 0,248.36 0,160 Z" id="Stroke-1" stroke="#4611EA"></path>
            <path d="M94.8146667,160 C94.8146667,124 124.001333,94.8133333 160.001333,94.8133333 C196.001333,94.8133333 225.188,124 225.188,160 C225.188,196 196.001333,225.186667 160.001333,225.186667 C124.001333,225.186667 94.8146667,196 94.8146667,160 Z" id="Stroke-3" stroke="#FFFFFF"></path>
        </g>
    </g>
</svg>