<?xml version="1.0" encoding="UTF-8"?>
<svg width="40px" height="40px" viewBox="0 0 40 40" version="1.1" xmlns="http://www.w3.org/2000/svg" xmlns:xlink="http://www.w3.org/1999/xlink">
    <!-- Generator: Sketch 52.5 (67469) - http://www.bohemiancoding.com/sketch -->
    <title>amazon-white</title>
    <desc>Created with Sketch.</desc>
    <g id="Page-5" stroke="none" stroke-width="1" fill="none" fill-rule="evenodd">
        <g id="amazon-white">
            <rect id="Rectangle" fill-opacity="0.01" fill="#FFFFFF" x="0" y="0" width="40" height="40"></rect>
            <g id="amazon" transform="translate(6.000000, 6.000000)" fill-rule="nonzero">
                <path d="M14.8182156,15.1430588 C14.3852433,16.0077647 13.6427698,16.5644706 12.8393839,16.7522353 C12.717559,16.7522353 12.5315291,16.8131765 12.3454992,16.8131765 C10.9873161,16.8131765 10.1839302,15.7623529 10.1839302,14.2174118 C10.1839302,12.2376471 11.3577297,11.312 12.8393839,10.8771765 C13.6427698,10.6927059 14.5712732,10.6301176 15.4981303,10.6301176 L15.4981303,11.3729412 C15.4981303,12.7943529 15.5590427,13.9061176 14.8182156,15.1430588 Z M15.4981303,7.78894118 C14.6947444,7.84988235 13.766241,7.91082353 12.8393839,8.03270588 C11.4186421,8.22047059 9.99790026,8.46752941 8.82574708,9.02423529 C6.53906061,9.95152941 4.99320129,11.9296471 4.99320129,14.8334118 C4.99320129,18.4832941 7.34080022,20.3362353 10.3090477,20.3362353 C11.2968172,20.3362353 12.1002031,20.2110588 12.8393839,20.0282353 C14.016476,19.656 15.0025992,18.9757647 16.1763987,17.7388235 C16.8563134,18.6661176 17.0439896,19.1009412 18.2161428,20.0891765 C18.5256439,20.2110588 18.835145,20.2110588 19.0804411,20.0282353 C19.8229145,19.4089412 21.1218315,18.2955294 21.8000999,17.6778824 C22.109601,17.4308235 22.0486886,17.0585882 21.8610124,16.7522353 C21.1827439,15.8858824 20.501183,15.1430588 20.501183,13.4745882 L20.501183,7.91082353 C20.501183,5.56211765 20.6888592,3.39788235 18.9586162,1.792 C17.5378744,0.495764706 15.3121003,0 13.5818574,0 L12.8393839,0 C9.69004542,0.182823529 6.35467697,1.54329412 5.61055725,5.43858824 C5.48708606,5.93435294 5.85914592,6.11882353 6.1060883,6.17976471 L9.56657423,6.61294118 C9.93698781,6.55035294 10.1230177,6.24070588 10.1839302,5.93435294 C10.491785,4.57388235 11.604672,3.89364706 12.8393839,3.76847059 L13.0879726,3.76847059 C13.830446,3.76847059 14.6338319,4.07811765 15.065158,4.69741176 C15.5590427,5.43858824 15.4981303,6.42847059 15.4981303,7.29482353 L15.4981303,7.78894118 Z" id="Amazon" fill="#343B45"></path>
                <path d="M27.9967074,20.9687059 L28,21.1449412 C27.9802446,22.2501176 27.504469,24.2134118 26.1380544,25.4421176 C25.9931816,25.5557647 25.8252607,25.6348235 25.6277068,25.6364706 L25.6211217,25.6364706 C25.4894191,25.6364706 25.331376,25.5903529 25.2095511,25.4750588 C25.0844336,25.3597647 25.0251674,25.1851765 25.02846,25.0418824 C25.02846,24.9430588 25.0498617,24.8524706 25.0827873,24.7701176 C25.2177825,24.4127059 25.4219215,23.8741176 25.5898423,23.3371765 C25.762702,22.8002353 25.8878195,22.2501176 25.8845269,21.9536471 C25.8861732,21.8762353 25.8762955,21.8202353 25.8697104,21.7988235 C25.8647715,21.7955294 25.8565401,21.7905882 25.8450161,21.7872941 C25.8137368,21.7708235 25.7561169,21.7510588 25.6787416,21.7345882 C25.523991,21.7016471 25.2984503,21.6835294 25.0482154,21.6851765 C24.6942646,21.6851765 24.2859866,21.7164706 23.9007564,21.7592941 C23.4513213,21.8218824 23.0677375,21.8597647 22.8043323,21.9157647 L22.7845769,21.9190588 L22.7582363,21.9207059 C22.7318958,21.9256471 22.7022627,21.9272941 22.6709834,21.9272941 C22.5376345,21.9272941 22.3861765,21.8910588 22.2561202,21.7856471 C22.1260638,21.6802353 22.0470423,21.5023529 22.0519811,21.3475294 C22.0602125,21.0625882 22.2149631,20.8764706 22.4026393,20.7364706 C22.703909,20.5174118 23.0282267,20.3329412 23.38547,20.1847059 L23.38547,20.1715294 L23.6900323,20.0727059 L23.69991,20.0677647 L24.2382444,19.8882353 L24.2398906,19.9244706 C24.7749325,19.8075294 25.3066817,19.7614118 25.7890425,19.7614118 C26.4607258,19.7630588 27.0188156,19.8421176 27.4023994,19.9903529 C27.5308095,20.0463529 27.6493418,20.0974118 27.772813,20.2324706 L27.7876296,20.2505882 L27.8007998,20.2687059 C27.9226247,20.4531765 27.9835372,20.6755294 27.9967074,20.9670588 L27.9967074,20.9687059 Z M23.9452061,22.6717647 C24.3847635,22.6717647 24.7913953,22.9962353 24.801273,23.4755294 C24.801273,23.7456471 24.6465224,24.0058824 24.422628,24.1722353 C24.0620921,24.4604706 23.6801546,24.7207059 23.298217,24.9496471 L23.2801079,24.9611765 C20.3596027,26.796 16.597847,27.9209412 13.27071,27.9950588 C13.1669942,27.9967059 13.0632784,28 12.9612089,28 C7.73096918,27.9967059 3.84244979,25.1341176 0.29471088,22.0524706 C0.121851211,21.9157647 -0.00161998029,21.7049412 2.6302266e-05,21.476 C-0.00161998029,21.2997647 0.0741090172,21.1268235 0.200872774,21.0065882 C0.327636531,20.888 0.502142482,20.8237647 0.671709585,20.8237647 C0.803412189,20.8237647 0.940053641,20.86 1.07175625,20.9291765 C4.85162099,23.0291765 8.59856009,25.1604706 13.1916884,25.1571765 C13.2954042,25.1571765 13.4040589,25.1571765 13.5110672,25.1538824 C16.4315725,25.0912941 19.5874961,24.3764706 22.5919618,23.1576471 L22.5919618,23.1543529 L22.8685373,23.044 L23.0809077,22.9550588 C23.2257806,22.8941176 23.3788849,22.8249412 23.5286966,22.7656471 C23.6620455,22.7030588 23.805272,22.6701176 23.9452061,22.6717647 Z" id="Fill-237" fill="#FF9A00"></path>
            </g>
        </g>
    </g>
</svg>