<?xml version="1.0" encoding="UTF-8"?>
<svg width="40px" height="40px" viewBox="0 0 40 40" version="1.1" xmlns="http://www.w3.org/2000/svg" xmlns:xlink="http://www.w3.org/1999/xlink">
    <!-- Generator: Sketch 52.5 (67469) - http://www.bohemiancoding.com/sketch -->
    <title>amazon</title>
    <desc>Created with Sketch.</desc>
    <g id="Page-5" stroke="none" stroke-width="1" fill="none" fill-rule="evenodd">
        <g id="amazon">
            <rect id="Rectangle" fill-opacity="0.01" fill="#000000" x="0" y="0" width="40" height="40"></rect>
            <path d="M20.8250143,21.1430588 C20.392042,22.0077647 19.6495685,22.5644706 18.8461826,22.7522353 C18.7243577,22.7522353 18.5383278,22.8131765 18.3522979,22.8131765 C16.9941148,22.8131765 16.1907289,21.7623529 16.1907289,20.2174118 C16.1907289,18.2376471 17.3645284,17.312 18.8461826,16.8771765 C19.6495685,16.6927059 20.5780719,16.6301176 21.504929,16.6301176 L21.504929,17.3729412 C21.504929,18.7943529 21.5658414,19.9061176 20.8250143,21.1430588 Z M21.504929,13.7889412 C20.7015431,13.8498823 19.7730397,13.9108235 18.8461826,14.0327059 C17.4254408,14.2204706 16.004699,14.4675294 14.8325458,15.0242353 C12.5458593,15.9515294 11,17.9296471 11,20.8334118 C11,24.4832941 13.3475989,26.3362353 16.3158464,26.3362353 C17.3036159,26.3362353 18.1070018,26.2110588 18.8461826,26.0282353 C20.0232747,25.656 21.0093979,24.9757647 22.1831974,23.7388235 C22.8631121,24.6661176 23.0507883,25.1009412 24.2229415,26.0891765 C24.5324426,26.2110588 24.8419437,26.2110588 25.0872398,26.0282353 C25.8297132,25.4089412 27.1286302,24.2955294 27.8068986,23.6778824 C28.1163997,23.4308235 28.0554873,23.0585882 27.8678111,22.7522353 C27.1895426,21.8858824 26.5079817,21.1430588 26.5079817,19.4745882 L26.5079817,13.9108235 C26.5079817,11.5621176 26.6956579,9.39788235 24.9654149,7.792 C23.5446731,6.49576471 21.318899,6 19.5886561,6 L18.8461826,6 C15.6968441,6.18282353 12.3614757,7.54329412 11.617356,11.4385882 C11.4938848,11.9343529 11.8659446,12.1188235 12.112887,12.1797647 L15.5733729,12.6129412 C15.9437865,12.5503529 16.1298164,12.2407059 16.1907289,11.9343529 C16.4985837,10.5738823 17.6114707,9.89364706 18.8461826,9.76847059 L19.0947713,9.76847059 C19.8372447,9.76847059 20.6406306,10.0781176 21.0719567,10.6974118 C21.5658414,11.4385882 21.504929,12.4284706 21.504929,13.2948235 L21.504929,13.7889412 Z" id="Amazon" fill="#FFFFFF" fill-rule="nonzero"></path>
            <path d="M33.9967074,27.2072941 L34,27.3835294 C33.9802446,28.4887058 33.504469,30.452 32.1380544,31.6807058 C31.9931816,31.7943529 31.8252607,31.8734117 31.6277068,31.8750588 L31.6211217,31.8750588 C31.4894191,31.8750588 31.331376,31.8289411 31.2095511,31.713647 C31.0844336,31.5983529 31.0251674,31.4237647 31.02846,31.2804706 C31.02846,31.181647 31.0498617,31.0910588 31.0827873,31.0087058 C31.2177825,30.6512941 31.4219215,30.1127058 31.5898423,29.5757647 C31.762702,29.0388235 31.8878195,28.4887058 31.8845269,28.1922353 C31.8861732,28.1148235 31.8762955,28.0588235 31.8697104,28.0374117 C31.8647715,28.0341176 31.8565401,28.0291764 31.8450161,28.0258823 C31.8137368,28.0094117 31.7561169,27.989647 31.6787416,27.9731764 C31.523991,27.9402353 31.2984503,27.9221176 31.0482154,27.9237647 C30.6942646,27.9237647 30.2859866,27.9550588 29.9007564,27.9978823 C29.4513213,28.0604706 29.0677375,28.0983529 28.8043323,28.1543529 L28.7845769,28.157647 L28.7582363,28.1592941 C28.7318958,28.1642353 28.7022627,28.1658823 28.6709834,28.1658823 C28.5376345,28.1658823 28.3861765,28.129647 28.2561202,28.0242353 C28.1260638,27.9188235 28.0470423,27.7409411 28.0519811,27.5861176 C28.0602125,27.3011764 28.2149631,27.1150588 28.4026393,26.9750588 C28.703909,26.756 29.0282267,26.5715294 29.38547,26.4232941 L29.38547,26.4101176 L29.6900323,26.3112941 L29.69991,26.3063529 L30.2382444,26.1268235 L30.2398906,26.1630588 C30.7749325,26.0461176 31.3066817,26 31.7890425,26 C32.4607258,26.001647 33.0188156,26.0807058 33.4023994,26.2289411 C33.5308095,26.2849411 33.6493418,26.336 33.772813,26.4710588 L33.7876296,26.4891764 L33.8007998,26.5072941 C33.9226247,26.6917647 33.9835372,26.9141176 33.9967074,27.205647 L33.9967074,27.2072941 Z M29.9452061,28.9103529 C30.3847635,28.9103529 30.7913953,29.2348235 30.801273,29.7141176 C30.801273,29.9842353 30.6465224,30.2444706 30.422628,30.4108235 C30.0620921,30.6990588 29.6801546,30.9592941 29.298217,31.1882353 L29.2801079,31.1997647 C26.3596027,33.0345882 22.597847,34.1595294 19.27071,34.233647 C19.1669942,34.2352941 19.0632784,34.2385882 18.9612089,34.2385882 C13.7309692,34.2352941 9.84244979,31.3727058 6.29471088,28.2910588 C6.12185121,28.1543529 5.99838002,27.9435294 6.0000263,27.7145882 C5.99838002,27.5383529 6.07410902,27.3654117 6.20087277,27.2451764 C6.32763653,27.1265882 6.50214248,27.0623529 6.67170959,27.0623529 C6.80341219,27.0623529 6.94005364,27.0985882 7.07175625,27.1677647 C10.851621,29.2677647 14.5985601,31.3990588 19.1916884,31.3957647 C19.2954042,31.3957647 19.4040589,31.3957647 19.5110672,31.3924706 C22.4315725,31.3298823 25.5874961,30.6150588 28.5919618,29.3962353 L28.5919618,29.3929411 L28.8685373,29.2825882 L29.0809077,29.193647 C29.2257806,29.1327058 29.3788849,29.0635294 29.5286966,29.0042353 C29.6620455,28.941647 29.805272,28.9087058 29.9452061,28.9103529 Z" id="Fill-237" fill="#FFFFFF" fill-rule="nonzero"></path>
        </g>
    </g>
</svg>