<?xml version="1.0" encoding="UTF-8"?>
<svg width="48px" height="48px" viewBox="0 0 48 48" version="1.1" xmlns="http://www.w3.org/2000/svg" xmlns:xlink="http://www.w3.org/1999/xlink">
    <!-- Generator: Sketch 54 (76480) - https://sketchapp.com -->
    <title>Icon/Store/Deezer</title>
    <desc>Created with Sketch.</desc>
    <g id="Icon/Store/Deezer" stroke="none" stroke-width="1" fill="none" fill-rule="evenodd">
        <g id="Deezer-logomark" transform="translate(7.000000, 13.000000)" fill-rule="nonzero">
            <rect id="Rectangle" fill="#ED1C24" x="0" y="19.5" width="6" height="2"></rect>
            <rect id="Rectangle" fill="#ED1C24" x="0" y="16.5" width="6" height="2"></rect>
            <rect id="Rectangle" fill="#ED1C24" x="0" y="13.5" width="6" height="2"></rect>
            <rect id="Rectangle" fill="#F69679" x="0" y="11.5" width="6" height="2"></rect>
            <rect id="Rectangle" fill="#F69679" x="0" y="8.5" width="6" height="2"></rect>
            <rect id="Rectangle" fill="#FFF200" x="7" y="19.5" width="6" height="2"></rect>
            <rect id="Rectangle" fill="#FFF200" x="7" y="16.5" width="6" height="2"></rect>
            <rect id="Rectangle" fill="#FFF200" x="7" y="13.5" width="6" height="2"></rect>
            <rect id="Rectangle" fill="#EC008C" x="14" y="19.5" width="6" height="2"></rect>
            <rect id="Rectangle" fill="#EC008C" x="14" y="16.5" width="6" height="2"></rect>
            <rect id="Rectangle" fill="#EC008C" x="14" y="13.5" width="6" height="2"></rect>
            <rect id="Rectangle" fill="#F49AC1" x="14" y="11.5" width="6" height="2"></rect>
            <rect id="Rectangle" fill="#F49AC1" x="14" y="8.5" width="6" height="2"></rect>
            <rect id="Rectangle" fill="#F49AC1" x="14" y="6.5" width="6" height="2"></rect>
            <rect id="Rectangle" fill="#F49AC1" x="14" y="3.5" width="6" height="2"></rect>
            <rect id="Rectangle" fill="#BFD730" x="21" y="19.5" width="6" height="2"></rect>
            <rect id="Rectangle" fill="#BFD730" x="21" y="16.5" width="6" height="2"></rect>
            <rect id="Rectangle" fill="#BFD730" x="21" y="13.5" width="6" height="2"></rect>
            <rect id="Rectangle" fill="#DDE89A" x="21" y="11.5" width="6" height="2"></rect>
            <rect id="Rectangle" fill="#DDE89A" x="21" y="8.5" width="6" height="2"></rect>
            <rect id="Rectangle" fill="#20C4F4" x="28" y="19.5" width="6" height="2"></rect>
            <rect id="Rectangle" fill="#20C4F4" x="28" y="16.5" width="6" height="2"></rect>
            <rect id="Rectangle" fill="#20C4F4" x="28" y="13.5" width="6" height="2"></rect>
            <rect id="Rectangle" fill="#ABE1FA" x="28" y="11.5" width="6" height="2"></rect>
            <rect id="Rectangle" fill="#ABE1FA" x="28" y="8.5" width="6" height="2"></rect>
            <rect id="Rectangle" fill="#ABE1FA" x="28" y="6.5" width="6" height="2"></rect>
            <rect id="Rectangle" fill="#ABE1FA" x="28" y="3.5" width="6" height="2"></rect>
            <rect id="Rectangle" fill="#ABE1FA" x="28" y="0.5" width="6" height="2"></rect>
        </g>
    </g>
</svg>