<?xml version="1.0" encoding="UTF-8"?>
<svg width="48px" height="48px" viewBox="0 0 48 48" version="1.1" xmlns="http://www.w3.org/2000/svg" xmlns:xlink="http://www.w3.org/1999/xlink">
    <!-- Generator: Sketch 54 (76480) - https://sketchapp.com -->
    <title>Icon/Store/iTunes</title>
    <desc>Created with Sketch.</desc>
    <defs>
        <path d="M17.9465418,5.14626575 C18.9803796,3.81170354 19.7640954,1.92542286 19.4806237,0 C17.7909103,0.117426564 15.8158725,1.19849652 14.6634583,2.60761528 C13.6129457,3.88439617 12.7495614,5.78372424 13.086763,7.6271349 C14.9339607,7.68491623 16.8404465,6.57775148 17.9465418,5.14626575 L17.9465418,5.14626575 Z M27.0769231,23.2579153 C26.3376735,24.905615 25.9819443,25.6418609 25.0296278,27.1013053 C23.7012018,29.138563 21.8280655,31.6753496 19.5047096,31.6939887 C17.4425922,31.7163557 16.9108513,30.3426513 14.111337,30.3594265 C11.3118228,30.3743378 10.7282047,31.7200835 8.66238184,31.6995805 C6.34087866,31.6790774 4.56593847,29.3901914 3.23751247,27.3529337 C-0.47911594,21.6605412 -0.870047442,14.9784106 1.42181165,11.4239271 C3.05223687,8.90018797 5.62386211,7.42396831 8.03985585,7.42396831 C10.498463,7.42396831 12.0455142,8.78089749 14.081693,8.78089749 C16.0567308,8.78089749 17.2591694,7.42024048 20.1031497,7.42024048 C22.2560521,7.42024048 24.5367947,8.60009786 26.1598089,10.6354916 C20.8386938,13.5692918 21.7002254,21.2132019 27.0769231,23.2579153 L27.0769231,23.2579153 Z" id="path-1"></path>
    </defs>
    <g id="Icon/Store/iTunes" stroke="none" stroke-width="1" fill="none" fill-rule="evenodd">
        <g id="Icon" transform="translate(10.000000, 8.000000)">
            <mask id="mask-2" fill="white">
                <use xlink:href="#path-1"></use>
            </mask>
            <use id="Apple" fill="#0B0B0A" xlink:href="#path-1"></use>
        </g>
    </g>
</svg>