<?xml version="1.0" encoding="UTF-8"?>
<svg width="48px" height="48px" viewBox="0 0 48 48" version="1.1" xmlns="http://www.w3.org/2000/svg" xmlns:xlink="http://www.w3.org/1999/xlink">
    <!-- Generator: Sketch 54.1 (76490) - https://sketchapp.com -->
    <title>Icon/Store/KKbox</title>
    <desc>Created with Sketch.</desc>
    <g id="Icon/Store/KKbox" stroke="none" stroke-width="1" fill="none" fill-rule="evenodd">
        <g id="KKbox_blue" transform="translate(10.000000, 7.000000)" fill-rule="nonzero">
            <path d="M1.86909091,28.5119423 L12.3345455,33.3579699 C13.4482925,33.9696938 14.8283341,33.9444623 15.9163636,33.292483 L26.1818182,28.377522 C27.4472727,27.7778002 28,26.3818961 28,25.1824526 L28,13.2638443 C28,11.9989139 27.3927273,10.7339835 26.2690909,10.1997486 L15.5236364,5.3744011 L15.5236364,0.614540466 L1.86909091,10.0687749 C0.672727273,10.7994704 0,11.7335198 0,12.9295166 L0,25.775281 C0.0419189072,26.9446985 0.760595868,27.9969617 1.86909091,28.5119423 Z" id="Path" fill="#00B6DE"></path>
            <rect id="Rectangle" fill="#FFFFFF" x="5.18518519" y="10.9849108" width="4.14814815" height="15.5555556" rx="1"></rect>
            <path d="M11.4074074,18.2441701 L11.4074074,18.6086807 L18.1742094,25.8114106 C18.8139443,26.2893744 19.5746123,26.5438792 20.3531197,26.5404318 L23.2425441,26.5404318 C24.1154616,26.5404318 23.7940385,25.997311 23.7940385,25.997311 L16.6618292,18.2806212 L16.6956632,18.2441701 L11.4074074,18.2441701 Z" id="Path" fill="#FFFFFF"></path>
            <path d="M23.7368839,11.477623 C23.7368839,11.477623 24.1880873,10.9912045 23.3027714,10.9912045 L20.5135137,10.9912045 C19.6164038,10.9372436 18.7339066,11.2319453 18.0592403,11.8107863 L11.4074074,18.1408895 L11.4074074,18.2441701 L16.7500666,18.2441701 L23.7368839,11.477623 Z" id="Path" fill="#FFFFFF"></path>
            <path d="M23.7368839,11.477623 C23.7368839,11.477623 24.1880873,10.9912045 23.3027714,10.9912045 L20.5135137,10.9912045 C19.6164038,10.9372436 18.7339066,11.2319453 18.0592403,11.8107863 L11.4074074,18.1408895 L11.4074074,18.2441701 L16.7500666,18.2441701 L23.7368839,11.477623 Z" id="Path" fill="#FFFFFF"></path>
        </g>
    </g>
</svg>