<?xml version="1.0" encoding="UTF-8"?>
<svg width="48px" height="48px" viewBox="0 0 48 48" version="1.1" xmlns="http://www.w3.org/2000/svg" xmlns:xlink="http://www.w3.org/1999/xlink">
    <!-- Generator: Sketch 54 (76480) - https://sketchapp.com -->
    <title>Icon/Store/MixCloud</title>
    <desc>Created with Sketch.</desc>
    <g id="Icon/Store/MixCloud" stroke="none" stroke-width="1" fill="none" fill-rule="evenodd">
        <g id="Group" transform="translate(4.000000, 12.000000)" fill="#273A4B" fill-rule="nonzero">
            <path d="M27.1971067,9.83597884 C26.676311,4.30687831 22.0470163,0 16.4339964,0 C11.8047016,0 7.63833635,3.02645503 6.19168174,7.39153439 C2.66184448,7.91534392 0,10.9417989 0,14.6666667 C0,18.7407407 3.24050633,22 7.29113924,22 L25.9240506,22 C29.2802893,22 32,19.2645503 32,15.8306878 C32,12.9206349 29.9168174,10.4761905 27.1971067,9.83597884 Z M25.8661844,19.2645503 L7.23327306,19.2645503 C4.74502712,19.2645503 2.66184448,17.2275132 2.66184448,14.6666667 C2.66184448,12.1640212 4.68716094,10.0687831 7.23327306,10.0687831 C8.44846293,10.0687831 9.60578662,10.5343915 10.4737794,11.4074074 C10.994575,11.9312169 11.8625678,11.9312169 12.3833635,11.4074074 C12.9041591,10.8835979 12.9041591,10.010582 12.3833635,9.42857143 C11.4575045,8.4973545 10.3001808,7.85714286 9.02712477,7.50793651 C10.3001808,4.65608466 13.1934901,2.73544974 16.4339964,2.73544974 C20.8896926,2.73544974 24.5352622,6.4021164 24.5352622,10.8835979 C24.5352622,11.7566138 24.4195298,12.6296296 24.1301989,13.4444444 C23.8987342,14.1428571 24.3037975,14.957672 24.9981917,15.1904762 C25.1139241,15.2486772 25.2875226,15.2486772 25.403255,15.2486772 C25.9819168,15.2486772 26.5027125,14.8994709 26.676311,14.3174603 C26.8499096,13.7936508 26.965642,13.2116402 27.0813743,12.6296296 C28.3544304,13.0952381 29.2224231,14.3756614 29.2224231,15.7724868 C29.2802893,17.7513228 27.7179024,19.2645503 25.8661844,19.2645503 Z" id="Shape"></path>
            <path d="M37.1131033,24 C36.8764724,24 36.6871677,23.9425316 36.497863,23.7701266 C35.9772751,23.3678481 35.8352966,22.5058227 36.213906,21.8736708 C37.2550818,19.9772151 37.7756698,17.7934175 37.7756698,15.4946833 C37.7756698,13.195949 37.2077557,11.0121515 36.213906,9.11569573 C35.8826227,8.48354382 36.0246013,7.62151847 36.497863,7.21923998 C37.018451,6.81696148 37.6810174,6.98936655 38.0596268,7.56405012 C39.3374335,9.86278437 40,12.6212655 40,15.4372149 C40,18.2531644 39.3374335,20.9541771 38.0596268,23.3103797 C37.8229959,23.7701266 37.4443865,24 37.1131033,24 L37.1131033,24 Z" id="Path"></path>
            <path d="M33.2796453,22 C33.0076098,22 32.7899814,21.9403163 32.572353,21.7612653 C31.973875,21.3434795 31.8106537,20.4482242 32.2459105,19.7917037 C33.0076098,18.5383463 33.4428666,17.0462541 33.4428666,15.4944783 C33.4428666,13.9427025 33.0076098,12.4506104 32.2459105,11.197253 C31.8650608,10.5407325 32.0282821,9.64547718 32.572353,9.22769139 C33.1708311,8.80990559 33.9325304,8.98895665 34.3677872,9.5857935 C35.4559291,11.3166204 36,13.3458657 36,15.4944783 C36,17.5834073 35.4559291,19.6126526 34.3677872,21.4031631 C34.0957517,21.7612653 33.714902,22 33.2796453,22 L33.2796453,22 Z" id="Path"></path>
        </g>
    </g>
</svg>