<?xml version="1.0" encoding="UTF-8"?>
<svg width="48px" height="48px" viewBox="0 0 48 48" version="1.1" xmlns="http://www.w3.org/2000/svg" xmlns:xlink="http://www.w3.org/1999/xlink">
    <!-- Generator: Sketch 54 (76480) - https://sketchapp.com -->
    <title>Icon/Store/Tesla</title>
    <desc>Created with Sketch.</desc>
    <defs>
        <path d="M13.4825316,0.324038462 L12.0613671,2.2474359 L10.6417215,0.324038462 C8.42339241,0.235897436 3.31655696,0.407371795 0.220860759,1.73076923 L0.220860759,1.73076923 C0.647696203,2.58717949 2.50572152,3.80512821 3.52648101,4.07564103 L3.52648101,4.07564103 C3.58481013,2.39262821 5.83959494,2.04166667 8.00475949,2.04166667 L8.00475949,2.04166667 L12.0613671,25 L16.1188861,2.04166667 C18.2819241,2.04166667 20.5367089,2.39262821 20.5947342,4.07564103 L20.5947342,4.07564103 C21.6164051,3.80512821 23.4756456,2.58717949 23.9030886,1.73076923 L23.9030886,1.73076923 C21.2330127,0.589423077 17.0664304,0.304807692 14.5479494,0.304807692 L14.5479494,0.304807692 C14.1466329,0.304807692 13.7872405,0.311858974 13.4825316,0.324038462" id="path-1"></path>
        <path d="M10.7820227,0.310454545 C7.11720455,0.455909091 3.45209091,1.05545455 0,2.855 L0,2.855 L0.770545455,4.59454545 C3.69288636,3.01590909 7.16122727,2.25772727 10.8222045,2.08772727 L10.8222045,2.08772727 C12.2072955,2.02227273 13.6180909,2.02227273 15.002,2.08772727 L15.002,2.08772727 C18.6623864,2.25772727 22.1313182,3.01590909 25.0536591,4.59454545 L25.0536591,4.59454545 L25.8250909,2.855 C22.3735909,1.05545455 18.7067045,0.455909091 15.0448409,0.310454545 L15.0448409,0.310454545 C14.33575,0.282272727 13.624,0.268181818 12.9125455,0.268181818 L12.9125455,0.268181818 C12.2010909,0.268181818 11.4899318,0.282272727 10.7820227,0.310454545" id="path-3"></path>
    </defs>
    <g id="Icon/Store/Tesla" stroke="none" stroke-width="1" fill="none" fill-rule="evenodd">
        <g id="Group-7" transform="translate(11.000000, 9.000000)">
            <g id="Group-3" transform="translate(1.000000, 4.500000)">
                <mask id="mask-2" fill="white">
                    <use xlink:href="#path-1"></use>
                </mask>
                <g id="Clip-2"></g>
                <path d="M13.4825316,0.324038462 L12.0613671,2.2474359 L10.6417215,0.324038462 C8.42339241,0.235897436 3.31655696,0.407371795 0.220860759,1.73076923 L0.220860759,1.73076923 C0.647696203,2.58717949 2.50572152,3.80512821 3.52648101,4.07564103 L3.52648101,4.07564103 C3.58481013,2.39262821 5.83959494,2.04166667 8.00475949,2.04166667 L8.00475949,2.04166667 L12.0613671,25 L16.1188861,2.04166667 C18.2819241,2.04166667 20.5367089,2.39262821 20.5947342,4.07564103 L20.5947342,4.07564103 C21.6164051,3.80512821 23.4756456,2.58717949 23.9030886,1.73076923 L23.9030886,1.73076923 C21.2330127,0.589423077 17.0664304,0.304807692 14.5479494,0.304807692 L14.5479494,0.304807692 C14.1466329,0.304807692 13.7872405,0.311858974 13.4825316,0.324038462" id="Fill-1" fill="#AD1D20" mask="url(#mask-2)"></path>
            </g>
            <g id="Group-6" transform="translate(0.000000, 0.500000)">
                <mask id="mask-4" fill="white">
                    <use xlink:href="#path-3"></use>
                </mask>
                <g id="Clip-5"></g>
                <path d="M10.7820227,0.310454545 C7.11720455,0.455909091 3.45209091,1.05545455 0,2.855 L0,2.855 L0.770545455,4.59454545 C3.69288636,3.01590909 7.16122727,2.25772727 10.8222045,2.08772727 L10.8222045,2.08772727 C12.2072955,2.02227273 13.6180909,2.02227273 15.002,2.08772727 L15.002,2.08772727 C18.6623864,2.25772727 22.1313182,3.01590909 25.0536591,4.59454545 L25.0536591,4.59454545 L25.8250909,2.855 C22.3735909,1.05545455 18.7067045,0.455909091 15.0448409,0.310454545 L15.0448409,0.310454545 C14.33575,0.282272727 13.624,0.268181818 12.9125455,0.268181818 L12.9125455,0.268181818 C12.2010909,0.268181818 11.4899318,0.282272727 10.7820227,0.310454545" id="Fill-4" fill="#AD1D20" mask="url(#mask-4)"></path>
            </g>
        </g>
    </g>
</svg>