<?xml version="1.0" encoding="UTF-8"?>
<svg width="48px" height="48px" viewBox="0 0 48 48" version="1.1" xmlns="http://www.w3.org/2000/svg" xmlns:xlink="http://www.w3.org/1999/xlink">
    <!-- Generator: Sketch 54.1 (76490) - https://sketchapp.com -->
    <title>Icon/Store/Tunecore</title>
    <desc>Created with Sketch.</desc>
    <g id="Icon/Store/Tunecore" stroke="none" stroke-width="1" fill="none" fill-rule="evenodd">
        <g id="Tunecore_logo" transform="translate(5.000000, 21.000000)" fill="#000000" fill-rule="nonzero">
            <path d="M13.7163925,3.75152762 C13.7564199,4.13449673 13.9165295,4.44230369 14.165557,4.71321786 C14.7588203,5.35856625 15.871296,5.38885137 16.4731365,4.76828171 C16.5692022,4.66916677 16.6341038,4.54251991 16.7195909,4.43294283 C16.7481819,4.39742665 16.7939275,4.35337556 16.8339549,4.3525496 C17.1138608,4.34566662 17.3943384,4.34897045 17.6939721,4.34897045 C17.6192869,4.63746606 17.4829619,4.90779925 17.2936981,5.14271593 C16.8488222,5.69996215 16.2444085,5.9505027 15.5276322,5.99455378 C14.1552643,6.07880148 13.1159815,5.17437765 12.8620935,4.06208776 C12.561888,2.75597311 13.3790187,1.41048779 14.6916314,1.07569955 C15.7780893,0.798177718 16.9217292,1.30173668 17.4578105,2.29095885 C17.6805343,2.70173521 17.7791733,3.13976818 17.7994729,3.59955138 C17.8049052,3.72014122 17.7694523,3.75483145 17.6416506,3.75428081 C16.3933676,3.74960038 15.1450846,3.75152762 13.8962298,3.75152762 L13.7163925,3.75152762 Z M13.7798645,2.96356384 L16.7904966,2.96356384 C16.6521161,2.32041801 15.9773686,1.79097904 15.3037647,1.78629861 C14.623013,1.78161818 13.9313968,2.30968056 13.7798645,2.96356384 Z" id="Shape"></path>
            <path d="M12.4981059,5.9993759 C12.231964,5.9993759 11.9809594,6.00078012 11.7299548,5.9993759 C11.631975,5.9993759 11.6603231,5.91765039 11.6603231,5.86372841 C11.658947,4.97457734 11.6603231,4.08542627 11.6583965,3.19571351 C11.6602917,3.06003969 11.6524729,2.92440581 11.6350025,2.7898944 C11.5824346,2.43125703 11.4382171,2.11895886 11.1079479,1.94932928 C10.4215385,1.59630878 9.45467545,1.96983087 9.37541085,2.90419777 C9.35531948,3.14122983 9.35999829,3.38163202 9.35944784,3.61922577 C9.3577965,4.35391282 9.35944784,5.08888071 9.35944784,5.82356776 C9.35944784,5.87440047 9.35944784,5.92523317 9.35944784,5.99853337 C9.08422353,5.99853337 8.82028342,5.99853337 8.55689375,5.99572494 C8.53872894,5.99572494 8.51313308,5.95612598 8.50515158,5.93028836 C8.49951839,5.89812559 8.49849857,5.86529787 8.50212411,5.8328356 C8.50212411,4.32114772 8.50212411,2.80945984 8.50212411,1.29777196 C8.50212411,1.24750094 8.50212411,1.19694908 8.50212411,1.13741022 L9.33605378,1.13741022 L9.33605378,1.56176501 C9.41063956,1.49885603 9.4574277,1.45785285 9.50559195,1.41909643 C10.076132,0.959355332 10.7165789,0.89728888 11.3771173,1.13825275 C12.0183899,1.37303806 12.3475582,1.89259886 12.4592993,2.56156849 C12.4863358,2.73693964 12.4992229,2.91427909 12.4978307,3.09180135 C12.5014086,3.99976895 12.499482,4.90773654 12.499482,5.81598498 C12.4981059,5.86990697 12.4981059,5.9260757 12.4981059,5.9993759 Z" id="Path"></path>
            <path d="M7.14902905,1 L8,1 L8,5.85692214 L7.17220725,5.85692214 L7.17220725,5.43852717 C7.0745277,5.51776651 7.00361346,5.57902245 6.92773245,5.63522057 C5.79227673,6.46723367 4.23740601,5.80100501 4.03680423,4.39549014 C4.01430428,4.23812947 4.00268659,4.07935371 4.00203694,3.92033507 C3.99872577,3.00739669 4.00038135,2.09389632 4.00065728,1.18123892 C4.00065728,1.12504081 4.00065728,1.06884269 4.00065728,1.00280991 L4.84997265,1.00280991 L4.84997265,1.16887534 C4.84997265,2.10991278 4.8477652,3.05151221 4.84997265,3.99226866 C4.84997265,4.36120929 4.93992613,4.70598473 5.23820745,4.94314078 C5.59691764,5.22778423 6.00584726,5.2438007 6.41505281,5.08363607 C6.81515264,4.92852927 7.04500309,4.61129091 7.12336748,4.18446622 C7.14055833,4.0782441 7.14822401,3.97064961 7.14626974,3.863013 C7.14792533,2.96384315 7.14792533,2.0646733 7.14626974,1.16550345 C7.14902905,1.1163301 7.14902905,1.0654708 7.14902905,1 Z" id="Path"></path>
            <path d="M3.49917378,5.1634908 C3.49917378,5.42032884 3.50305244,5.66090048 3.49400223,5.90204286 C3.49400223,5.93058042 3.42450957,5.9799504 3.38249076,5.98451641 C2.24733629,6.10751329 1.37269848,5.48767749 1.25536902,4.48286999 C1.24050082,4.35559248 1.23435961,4.22603195 1.23403639,4.09875444 C1.23209706,3.42355576 1.23403639,2.74835709 1.23403639,2.07258767 L1.23403639,1.88966191 L0.5,1.88966191 L0.5,1.0335351 L1.23371317,1.0335351 L1.23371317,0.000475427907 C1.55467227,0.000475427907 1.85914708,-0.0023783281 2.16297544,0.00589756433 C2.18657062,0.00589756433 2.22761977,0.082663601 2.22761977,0.124043063 C2.23311454,0.418265308 2.23052876,0.712487553 2.23052876,1.02440308 L3.47040705,1.02440308 L3.47040705,1.88052989 L2.24216474,1.88052989 C2.23731642,1.94445402 2.23117521,1.99011412 2.23117521,2.03605959 C2.23117521,2.763482 2.22923588,3.49147516 2.23311454,4.21861219 C2.23382339,4.32312534 2.24879962,4.42718197 2.27771913,4.52853009 C2.39246282,4.92805593 2.73184556,5.15264653 3.2279908,5.16320543 C3.30718011,5.16577381 3.38733908,5.1634908 3.49917378,5.1634908 Z" id="Path"></path>
            <path d="M32.851647,5.99942344 L32.3675437,5.99942344 C32.3648206,5.94176713 32.3602821,5.89102959 32.3602821,5.84029204 C32.3602821,5.46091356 32.3687539,5.08124679 32.3572565,4.70215659 C32.3454564,4.31153513 32.1421331,4.10051306 31.7327632,4.05294661 C31.51885,4.0281544 31.3003984,4.03103721 31.0840648,4.0295958 C30.5603255,4.02671299 30.0365862,4.0295958 29.4922726,4.0295958 L29.4922726,6 L29,6 L29,1.00206327 L29.1597541,1.00206327 C29.8302372,1.00379296 30.5013254,0.991108571 31.1712033,1.01330625 C31.4895013,1.02397266 31.8238351,1.05424222 32.118533,1.15744701 C32.7236622,1.37192846 32.9805395,1.83606171 32.9989959,2.44289431 C33.0150318,2.96871981 32.8404521,3.39422333 32.3699642,3.69028845 C32.3554636,3.70299656 32.3423836,3.71710152 32.3309333,3.73237756 C32.6761595,3.95435433 32.83077,4.27405853 32.8452931,4.65977921 C32.8522521,4.83736063 32.8507393,5.01523032 32.8513444,5.19281174 C32.8522521,5.45658933 32.851647,5.72007864 32.851647,5.99942344 Z M29.4889443,3.5663274 C30.1824223,3.5663274 30.8529054,3.59256102 31.5197577,3.55739067 C31.9944815,3.53231018 32.4952259,3.25555992 32.5257849,2.66371796 C32.5433337,2.32152779 32.5257849,1.98769779 32.2292716,1.73718115 C31.994179,1.53970831 31.7052298,1.46619652 31.4056909,1.45783635 C30.8169002,1.44140431 30.2272019,1.45005275 29.6381087,1.44053946 C29.5146623,1.43852149 29.4868264,1.4774395 29.4868264,1.58842788 C29.4922726,2.0874432 29.4892469,2.58674679 29.4892469,3.08605038 L29.4889443,3.5663274 Z" id="Shape"></path>
            <path d="M26.2102616,1.00002132 C27.4790931,1.00417206 28.52415,1.90515963 28.6749799,3.1124719 C28.7740801,3.90609362 28.5831451,4.61642381 28.0242896,5.21828128 C26.922272,6.40567 24.9260275,6.20975501 24.0867271,4.83862682 C23.4598674,3.81477731 23.6045944,2.57149195 24.4517414,1.70371032 C24.8812725,1.26400846 25.5470749,0.99725416 26.2102616,1.00002132 Z M24.1448504,3.50208814 C24.1422366,3.82580209 24.2185381,4.14567909 24.3677532,4.43655835 C24.9228307,5.55587491 26.3831784,5.91781954 27.4070203,5.16930254 C28.1210649,4.64713929 28.3611141,3.92878434 28.2262681,3.09393192 C28.1399537,2.55015473 27.8161406,2.06649823 27.3348431,1.76247413 C26.8535457,1.45845003 26.2596613,1.36241897 25.6999391,1.49811027 C24.7911814,1.71643926 24.1454316,2.54769437 24.1448504,3.50125799 L24.1448504,3.50208814 Z" id="Shape"></path>
            <path d="M37.2887714,1 L37.2887714,1.42158808 C37.2198824,1.42476226 37.1594023,1.42995636 37.0947178,1.42995636 C36.0597654,1.42995636 35.0248129,1.43313054 33.9898605,1.42735931 C33.8449671,1.42735931 33.8087438,1.46342947 33.8106843,1.58924221 C33.8184465,2.1271205 33.8139186,2.6649988 33.8139186,3.22047933 C33.8870121,3.22365351 33.9491092,3.22855905 34.0115298,3.22855905 C34.9384591,3.22855905 35.8650649,3.23173322 36.7929645,3.22567344 C36.9420623,3.22567344 36.9870181,3.26145504 36.9818433,3.39505893 C36.9711704,3.67438628 36.9792559,3.67467484 36.6626252,3.67467484 L33.8281492,3.67467484 C33.8232978,3.73238711 33.8168294,3.77278569 33.8168294,3.81462708 C33.8168294,4.34355998 33.8210339,4.87220431 33.8132717,5.40171432 C33.8113312,5.5286813 33.8637257,5.55003484 33.9911542,5.54974628 C35.020285,5.54570642 36.0494158,5.54743779 37.0785467,5.54743779 L37.2975038,5.54743779 C37.2975038,5.68104168 37.3062362,5.80512305 37.2910353,5.92660736 C37.2874777,5.95546349 37.2020941,5.99586208 37.1535807,5.9964392 C36.6471009,6.0016333 36.140621,5.99961337 35.6334943,5.99961337 L33.3,5.99961337 L33.3,1 L37.2887714,1 Z" id="Path"></path>
            <path d="M23.3,4.39774631 C22.9483137,5.23231314 22.3523333,5.77670493 21.4137934,5.9506427 C19.8169066,6.24583518 18.5105564,5.17489137 18.3258907,3.86004443 C18.170735,2.75620854 18.7213856,1.75606633 19.7505851,1.2576677 C20.8762245,0.71243967 22.6693377,0.98226622 23.2762703,2.55216615 C23.2788155,2.57067608 23.2788155,2.5894055 23.2762703,2.60791544 C23.1399767,2.60791544 23.0024661,2.61795031 22.8701274,2.60234051 C22.8232765,2.59676558 22.7715579,2.53488387 22.744786,2.48777572 C22.5014045,2.05934245 22.1515436,1.73906279 21.6547411,1.56345254 C20.5634793,1.17738873 19.3608705,1.66909744 18.9020964,2.68819441 C18.4786126,3.62896363 18.841251,4.714681 19.7627542,5.26687769 C20.7600099,5.86423131 22.1256843,5.55315028 22.6860702,4.58868761 C22.7736875,4.43760705 22.8631302,4.37126539 23.0432325,4.39635257 C23.1156385,4.4061087 23.1919995,4.39774631 23.3,4.39774631 Z" id="Path"></path>
        </g>
    </g>
</svg>