<?xml version="1.0" encoding="UTF-8"?>
<svg width="48px" height="48px" viewBox="0 0 48 48" version="1.1" xmlns="http://www.w3.org/2000/svg" xmlns:xlink="http://www.w3.org/1999/xlink">
    <!-- Generator: Sketch 54 (76480) - https://sketchapp.com -->
    <title>Icon/Store/youTube</title>
    <desc>Created with Sketch.</desc>
    <g id="Icon/Store/youTube" stroke="none" stroke-width="1" fill="none" fill-rule="evenodd">
        <g id="youtube-icon" transform="translate(8.000000, 13.000000)" fill-rule="nonzero">
            <path d="M21.1037091,10.944 C18.2283636,9.40741818 15.4752,7.99476364 12.6609455,6.51985455 L12.6609455,15.3431273 C15.6224,13.7332364 18.7438545,12.2589091 21.1159273,10.944 L21.1037091,10.944 L21.1037091,10.944 Z" id="Shape" fill="#FFFFFF"></path>
            <path d="M21.1037091,10.944 C18.2283636,9.40741818 12.6609455,6.51985455 12.6609455,6.51985455 L20.0837818,11.5089455 C20.0843636,11.5089455 18.7316364,12.2589091 21.1037091,10.944 Z" id="Shape" fill="#E8E0E0"></path>
            <path d="M13.2020364,22.2498909 C7.22967273,22.1399273 5.18981818,22.0410182 3.936,21.7826909 C3.08770909,21.6110545 2.35054545,21.2299636 1.81003636,20.6772364 C1.39229091,20.2589091 1.06007273,19.6206545 0.802327273,18.7351273 C0.581236364,17.9973818 0.495127273,17.3835636 0.372363636,15.8842182 C0.184436364,12.5003636 0.139636364,9.73381818 0.372363636,6.64261818 C0.564363636,4.93556364 0.657454545,2.90909091 1.9328,1.72683636 C2.53498182,1.17352727 3.23549091,0.817454545 4.02210909,0.670254545 C5.25090909,0.436945455 10.4861091,0.252509091 15.9057455,0.252509091 C21.3131636,0.252509091 26.56,0.436945455 27.7899636,0.670254545 C28.7726545,0.854690909 29.6942545,1.40741818 30.2353455,2.12014545 C31.3989818,3.95054545 31.4193455,6.22661818 31.5374545,8.00698182 C31.5863273,8.85527273 31.5863273,13.6721455 31.5374545,14.5204364 C31.3536,17.3341091 31.2058182,18.3296 30.7880727,19.3617455 C30.5297455,20.0133818 30.3092364,20.3572364 29.9275636,20.7383273 C29.3289677,21.3247756 28.5658527,21.7148573 27.7399273,21.8565818 C22.5716364,22.2452364 18.1829818,22.3296 13.2020364,22.2498909 L13.2020364,22.2498909 Z M21.1165091,10.944 C18.2411636,9.40741818 15.488,7.98254545 12.6737455,6.50763636 L12.6737455,15.3314909 C15.6352,13.7216 18.7572364,12.2466909 21.1287273,10.9317818 L21.1165091,10.944 Z" id="Shape" fill="#CD201F"></path>
        </g>
    </g>
</svg>