<?xml version="1.0" encoding="UTF-8"?>
<svg width="80px" height="14px" viewBox="0 0 80 14" version="1.1" xmlns="http://www.w3.org/2000/svg" xmlns:xlink="http://www.w3.org/1999/xlink">
    <!-- Generator: Sketch 48.1 (47250) - http://www.bohemiancoding.com/sketch -->
    <title>logo</title>
    <desc>Created with Sketch.</desc>
    <defs>
        <polygon id="path-1" points="0.06 0.903 9.704 0.903 9.704 13.819 0.06 13.819"></polygon>
    </defs>
    <g id="Page-1" stroke="none" stroke-width="1" fill="none" fill-rule="evenodd">
        <g id="logo">
            <g id="revelator_logotype_negative">
                <g id="Group-3">
                    <mask id="mask-2" fill="white">
                        <use xlink:href="#path-1"></use>
                    </mask>
                    <g id="Clip-2"></g>
                    <path d="M4.122,6.882 C5.73,6.882 6.578,6.196 6.578,4.823 L6.578,4.751 C6.578,3.269 5.658,2.764 4.122,2.764 L2.189,2.764 L2.189,6.882 L4.122,6.882 Z M0,0.903 L4.122,0.903 C6.958,0.903 8.945,2.059 8.945,4.697 L8.945,4.769 C8.945,6.792 7.681,7.822 6.073,8.238 L9.704,13.819 L7.102,13.819 L3.724,8.598 L2.189,8.598 L2.189,13.819 L0,13.819 L0,0.903 Z" id="Fill-1" fill="#FFFFFE" mask="url(#mask-2)"></path>
                </g>
                <path d="M16.896,8.111 C16.787,6.485 15.957,5.762 14.602,5.762 C13.283,5.762 12.398,6.647 12.181,8.111 L16.896,8.111 Z M9.905,9.195 L9.905,9.05 C9.905,6.124 11.91,4.173 14.602,4.173 C16.951,4.173 19.064,5.564 19.064,8.942 L19.064,9.574 L12.146,9.574 C12.218,11.362 13.121,12.374 14.746,12.374 C16.064,12.374 16.752,11.85 16.914,10.929 L19.028,10.929 C18.721,12.916 17.113,14 14.692,14 C11.91,14 9.905,12.175 9.905,9.195 Z" id="Fill-4" fill="#FFFFFE"></path>
                <polyline id="Fill-5" fill="#FFFFFE" points="19.32 4.371 21.667 4.371 24.142 11.579 26.581 4.371 28.731 4.371 25.316 13.819 22.77 13.819 19.32 4.371"></polyline>
                <path d="M35.815,8.111 C35.706,6.485 34.875,5.762 33.519,5.762 C32.201,5.762 31.316,6.647 31.1,8.111 L35.815,8.111 Z M28.823,9.195 L28.823,9.05 C28.823,6.124 30.829,4.173 33.519,4.173 C35.868,4.173 37.982,5.564 37.982,8.942 L37.982,9.574 L31.063,9.574 C31.135,11.362 32.039,12.374 33.665,12.374 C34.983,12.374 35.669,11.85 35.832,10.929 L37.946,10.929 C37.639,12.916 36.031,14 33.61,14 C30.829,14 28.823,12.175 28.823,9.195 Z" id="Fill-6" fill="#FFFFFE"></path>
                <polygon id="Fill-7" fill="#FFFFFE" points="39.448 13.819 41.633 13.819 41.633 0 39.448 0"></polygon>
                <path d="M49.077,10.513 L49.077,9.574 L47.956,9.574 C46.295,9.574 45.229,9.954 45.229,11.11 C45.229,11.904 45.662,12.428 46.746,12.428 C48.083,12.428 49.077,11.724 49.077,10.513 Z M43.061,11.2 C43.061,8.996 45.192,8.201 47.903,8.201 L49.077,8.201 L49.077,7.713 C49.077,6.449 48.644,5.817 47.361,5.817 C46.223,5.817 45.662,6.359 45.554,7.298 L43.44,7.298 C43.621,5.094 45.373,4.173 47.488,4.173 C49.601,4.173 51.262,5.04 51.262,7.623 L51.262,13.819 L49.112,13.819 L49.112,12.663 C48.498,13.476 47.668,14 46.223,14 C44.488,14 43.061,13.169 43.061,11.2 Z" id="Fill-8" fill="#FFFFFE"></path>
                <path d="M53.596,11.182 L53.596,6.016 L52.331,6.016 L52.331,4.371 L53.596,4.371 L53.596,2.294 L55.781,2.294 L55.781,4.371 L57.859,4.371 L57.859,6.016 L55.781,6.016 L55.781,10.983 C55.781,11.814 56.179,12.194 56.865,12.194 C57.299,12.194 57.623,12.14 57.931,12.013 L57.931,13.747 C57.588,13.874 57.118,13.982 56.449,13.982 C54.571,13.982 53.596,12.97 53.596,11.182" id="Fill-9" fill="#FFFFFE"></path>
                <path d="M66.188,9.159 L66.188,9.032 C66.188,7.082 65.212,5.889 63.586,5.889 C61.96,5.889 60.967,7.063 60.967,9.014 L60.967,9.159 C60.967,11.091 61.925,12.302 63.586,12.302 C65.212,12.302 66.188,11.091 66.188,9.159 Z M58.727,9.195 L58.727,9.05 C58.727,6.124 60.804,4.173 63.586,4.173 C66.35,4.173 68.428,6.105 68.428,8.996 L68.428,9.14 C68.428,12.085 66.35,14 63.568,14 C60.787,14 58.727,12.067 58.727,9.195 Z" id="Fill-10" fill="#FFFFFE"></path>
                <path d="M69.858,4.371 L72.043,4.371 L72.043,6.142 C72.639,4.949 73.524,4.245 75.115,4.227 L75.115,6.268 C73.199,6.286 72.043,6.901 72.043,8.905 L72.043,13.819 L69.858,13.819 L69.858,4.371" id="Fill-11" fill="#FFFFFE"></path>
                <path d="M78.165,4.227 L78.546,4.227 L78.99,5.344 L79.425,4.227 L79.81,4.227 L79.81,5.818 L79.534,5.818 L79.534,4.578 L79.025,5.818 L78.931,5.818 L78.417,4.578 L78.417,5.818 L78.165,5.818 L78.165,4.227 Z M77.128,4.444 L76.643,4.444 L76.643,4.227 L77.884,4.227 L77.884,4.444 L77.404,4.444 L77.404,5.818 L77.128,5.818 L77.128,4.444 Z" id="Fill-12" fill="#FFFFFE"></path>
            </g>
        </g>
    </g>
</svg>