<?xml version="1.0" encoding="UTF-8"?>
<svg width="64px" height="12px" viewBox="0 0 64 12" version="1.1" xmlns="http://www.w3.org/2000/svg" xmlns:xlink="http://www.w3.org/1999/xlink">
    <!-- Generator: Sketch 51.1 (57501) - http://www.bohemiancoding.com/sketch -->
    <title>revelator_logotype</title>
    <desc>Created with Sketch.</desc>
    <defs>
        <polygon id="path-1" points="0.051 0.774 8.2484 0.774 8.2484 11.8448571 0.051 11.8448571"></polygon>
    </defs>
    <g id="Page-1" stroke="none" stroke-width="1" fill="none" fill-rule="evenodd">
        <g id="Create-Account_Step-1_Default" transform="translate(-31.000000, -18.000000)">
            <g id="revelator_logotype" transform="translate(31.000000, 18.000000)">
                <g id="Group-3">
                    <mask id="mask-2" fill="white">
                        <use xlink:href="#path-1"></use>
                    </mask>
                    <g id="Clip-2"></g>
                    <path d="M3.5037,5.89885714 C4.8705,5.89885714 5.5913,5.31085714 5.5913,4.134 L5.5913,4.07228571 C5.5913,2.802 4.8093,2.36914286 3.5037,2.36914286 L1.86065,2.36914286 L1.86065,5.89885714 L3.5037,5.89885714 Z M0,0.774 L3.5037,0.774 C5.9143,0.774 7.60325,1.76485714 7.60325,4.026 L7.60325,4.08771429 C7.60325,5.82171429 6.52885,6.70457143 5.16205,7.06114286 L8.2484,11.8448571 L6.0367,11.8448571 L3.1654,7.36971429 L1.86065,7.36971429 L1.86065,11.8448571 L0,11.8448571 L0,0.774 Z" id="Fill-1" fill="#2B2B2B" mask="url(#mask-2)"></path>
                </g>
                <path d="M14.3616,6.95228571 C14.26895,5.55857143 13.56345,4.93885714 12.4117,4.93885714 C11.29055,4.93885714 10.5383,5.69742857 10.35385,6.95228571 L14.3616,6.95228571 Z M8.41925,7.88142857 L8.41925,7.75714286 C8.41925,5.24914286 10.1235,3.57685714 12.4117,3.57685714 C14.40835,3.57685714 16.2044,4.76914286 16.2044,7.66457143 L16.2044,8.20628571 L10.3241,8.20628571 C10.3853,9.73885714 11.15285,10.6062857 12.5341,10.6062857 C13.6544,10.6062857 14.2392,10.1571429 14.3769,9.36771429 L16.1738,9.36771429 C15.91285,11.0708571 14.54605,12 12.4882,12 C10.1235,12 8.41925,10.4357143 8.41925,7.88142857 Z" id="Fill-4" fill="#2B2B2B"></path>
                <polyline id="Fill-5" fill="#2B2B2B" points="16.422 3.74657143 18.41695 3.74657143 20.5207 9.92485714 22.59385 3.74657143 24.42135 3.74657143 21.5186 11.8448571 19.3545 11.8448571 16.422 3.74657143"></polyline>
                <path d="M30.44275,6.95228571 C30.3501,5.55857143 29.64375,4.93885714 28.49115,4.93885714 C27.37085,4.93885714 26.6186,5.69742857 26.435,6.95228571 L30.44275,6.95228571 Z M24.49955,7.88142857 L24.49955,7.75714286 C24.49955,5.24914286 26.20465,3.57685714 28.49115,3.57685714 C30.4878,3.57685714 32.2847,4.76914286 32.2847,7.66457143 L32.2847,8.20628571 L26.40355,8.20628571 C26.46475,9.73885714 27.23315,10.6062857 28.61525,10.6062857 C29.73555,10.6062857 30.31865,10.1571429 30.4572,9.36771429 L32.2541,9.36771429 C31.99315,11.0708571 30.62635,12 28.5685,12 C26.20465,12 24.49955,10.4357143 24.49955,7.88142857 Z" id="Fill-6" fill="#2B2B2B"></path>
                <polygon id="Fill-7" fill="#2B2B2B" points="33.5308 11.8448571 35.38805 11.8448571 35.38805 0 33.5308 0"></polygon>
                <path d="M41.71545,9.01114286 L41.71545,8.20628571 L40.7626,8.20628571 C39.35075,8.20628571 38.44465,8.532 38.44465,9.52285714 C38.44465,10.2034286 38.8127,10.6525714 39.7341,10.6525714 C40.87055,10.6525714 41.71545,10.0491429 41.71545,9.01114286 Z M36.60185,9.6 C36.60185,7.71085714 38.4132,7.02942857 40.71755,7.02942857 L41.71545,7.02942857 L41.71545,6.61114286 C41.71545,5.52771429 41.3474,4.986 40.25685,4.986 C39.28955,4.986 38.8127,5.45057143 38.7209,6.25542857 L36.924,6.25542857 C37.07785,4.36628571 38.56705,3.57685714 40.3648,3.57685714 C42.16085,3.57685714 43.5727,4.32 43.5727,6.534 L43.5727,11.8448571 L41.7452,11.8448571 L41.7452,10.854 C41.2233,11.5508571 40.5178,12 39.28955,12 C37.8148,12 36.60185,11.2877143 36.60185,9.6 Z" id="Fill-8" fill="#2B2B2B"></path>
                <path d="M45.5566,9.58457143 L45.5566,5.15657143 L44.48135,5.15657143 L44.48135,3.74657143 L45.5566,3.74657143 L45.5566,1.96628571 L47.41385,1.96628571 L47.41385,3.74657143 L49.18015,3.74657143 L49.18015,5.15657143 L47.41385,5.15657143 L47.41385,9.414 C47.41385,10.1262857 47.75215,10.452 48.33525,10.452 C48.70415,10.452 48.97955,10.4057143 49.24135,10.2968571 L49.24135,11.7831429 C48.9498,11.892 48.5503,11.9845714 47.98165,11.9845714 C46.38535,11.9845714 45.5566,11.1171429 45.5566,9.58457143" id="Fill-9" fill="#2B2B2B"></path>
                <path d="M56.2598,7.85057143 L56.2598,7.74171429 C56.2598,6.07028571 55.4302,5.04771429 54.0481,5.04771429 C52.666,5.04771429 51.82195,6.054 51.82195,7.72628571 L51.82195,7.85057143 C51.82195,9.50657143 52.63625,10.5445714 54.0481,10.5445714 C55.4302,10.5445714 56.2598,9.50657143 56.2598,7.85057143 Z M49.91795,7.88142857 L49.91795,7.75714286 C49.91795,5.24914286 51.6834,3.57685714 54.0481,3.57685714 C56.3975,3.57685714 58.1638,5.23285714 58.1638,7.71085714 L58.1638,7.83428571 C58.1638,10.3585714 56.3975,12 54.0328,12 C51.66895,12 49.91795,10.3431429 49.91795,7.88142857 Z" id="Fill-10" fill="#2B2B2B"></path>
                <path d="M59.3793,3.74657143 L61.23655,3.74657143 L61.23655,5.26457143 C61.74315,4.242 62.4954,3.63857143 63.84775,3.62314286 L63.84775,5.37257143 C62.21915,5.388 61.23655,5.91514286 61.23655,7.63285714 L61.23655,11.8448571 L59.3793,11.8448571 L59.3793,3.74657143" id="Fill-11" fill="#2B2B2B"></path>
                <path d="M45.44025,3.62314286 L45.7641,3.62314286 L46.1415,4.58057143 L46.51125,3.62314286 L46.8385,3.62314286 L46.8385,4.98685714 L46.6039,4.98685714 L46.6039,3.924 L46.17125,4.98685714 L46.09135,4.98685714 L45.65445,3.924 L45.65445,4.98685714 L45.44025,4.98685714 L45.44025,3.62314286 Z M44.5588,3.80914286 L44.14655,3.80914286 L44.14655,3.62314286 L45.2014,3.62314286 L45.2014,3.80914286 L44.7934,3.80914286 L44.7934,4.98685714 L44.5588,4.98685714 L44.5588,3.80914286 Z" id="Fill-12" fill="#2B2B2B"></path>
            </g>
        </g>
    </g>
</svg>