<?xml version="1.0" encoding="UTF-8"?>
<svg width="63px" height="24px" viewBox="0 0 63 24" version="1.1" xmlns="http://www.w3.org/2000/svg" xmlns:xlink="http://www.w3.org/1999/xlink">
    <!-- Generator: Sketch 53.2 (72643) - https://sketchapp.com -->
    <title>Beta tag</title>
    <desc>Created with Sketch.</desc>
    <g id="Pages" stroke="none" stroke-width="1" fill="none" fill-rule="evenodd">
        <g id="Start_New-User-3" transform="translate(-112.000000, -13.000000)">
            <g id="Beta-tag" transform="translate(112.000000, 13.000000)">
                <rect id="Rectangle" fill-opacity="0.9" fill="#4611EA" x="0" y="0" width="63" height="24" rx="2"></rect>
                <path d="M13.148,18 L13.148,7.99 L16.732,7.99 C18.79,7.99 20.008,8.774 20.008,10.594 L20.008,10.65 C20.008,11.644 19.56,12.428 18.426,12.778 C19.784,13.072 20.428,13.814 20.428,15.144 L20.428,15.2 C20.428,17.062 19.196,18 16.998,18 L13.148,18 Z M14.968,16.67 L16.774,16.67 C18.02,16.67 18.594,16.11 18.594,15.074 L18.594,15.018 C18.594,13.982 18.02,13.464 16.648,13.464 L14.968,13.464 L14.968,16.67 Z M14.968,12.204 L16.508,12.204 C17.74,12.204 18.216,11.756 18.216,10.734 L18.216,10.678 C18.216,9.726 17.67,9.32 16.48,9.32 L14.968,9.32 L14.968,12.204 Z M23.178,18 L23.178,7.99 L29.436,7.99 L29.436,9.46 L25.04,9.46 L25.04,12.204 L28.568,12.204 L28.568,13.604 L25.04,13.604 L25.04,16.53 L29.674,16.53 L29.674,18 L23.178,18 Z M34.356,18 L34.356,9.46 L31.57,9.46 L31.57,7.99 L39.018,7.99 L39.018,9.46 L36.232,9.46 L36.232,18 L34.356,18 Z M40.746,18 L44.092,7.99 L46.528,7.99 L49.832,18 L47.9,18 L47.102,15.522 L43.28,15.522 L42.496,18 L40.746,18 Z M45.198,9.516 L43.714,14.164 L46.668,14.164 L45.198,9.516 Z" id="BETA" fill="#FFFFFF" fill-rule="nonzero"></path>
            </g>
        </g>
    </g>
</svg>