<?xml version="1.0" encoding="UTF-8"?>
<svg width="17px" height="8px" viewBox="0 0 17 8" version="1.1" xmlns="http://www.w3.org/2000/svg" xmlns:xlink="http://www.w3.org/1999/xlink">
    <!-- Generator: Sketch 52.5 (67469) - http://www.bohemiancoding.com/sketch -->
    <title>Group 15</title>
    <desc>Created with Sketch.</desc>
    <g id="Page-1" stroke="none" stroke-width="1" fill="none" fill-rule="evenodd" opacity="0.5">
        <g id="Data_Upload-Manager_Error-dialog-Copy-3" transform="translate(-766.000000, -601.000000)" fill="#555555">
            <g id="Group-17" transform="translate(458.000000, 282.000000)">
                <g id="Group-11" transform="translate(25.000000, 302.000000)">
                    <g id="Icon-Attachment-Event-S" transform="translate(272.276265, 6.000000)">
                        <g id="Group-13">
                            <g id="Group-15">
                                <path d="M15.6851119,18.4375 C13.2720177,18.4375 11.2611059,16.875 11.2611059,15 C11.2611059,13.125 13.2720177,11.5625 15.6851119,11.5625 L24.1309413,11.5625 C25.9005437,11.5625 27.3484002,12.6875 27.3484002,14.0625 C27.3484002,15.4375 25.9005437,16.5625 24.1309413,16.5625 L17.2938413,16.5625 C16.1677307,16.5625 15.2829295,15.875 15.2829295,15 C15.2829295,14.125 16.1677307,13.4375 17.2938413,13.4375 L23.3265766,13.4375 L23.3265766,14.375 L17.2938413,14.375 C16.8112224,14.375 16.4894766,14.625 16.4894766,15 C16.4894766,15.375 16.8112224,15.625 17.2938413,15.625 L24.1309413,15.625 C25.2570519,15.625 26.1418531,14.9375 26.1418531,14.0625 C26.1418531,13.1875 25.2570519,12.5 24.1309413,12.5 L15.6851119,12.5 C13.9155095,12.5 12.467653,13.625 12.467653,15 C12.467653,16.375 13.9155095,17.5 15.6851119,17.5 L23.3265766,17.5 L23.3265766,18.4375 L15.6851119,18.4375 L15.6851119,18.4375 Z" id="Shape"></path>
                            </g>
                        </g>
                    </g>
                </g>
            </g>
        </g>
    </g>
</svg>