<?xml version="1.0" encoding="UTF-8"?>
<svg width="32px" height="32px" viewBox="0 0 32 32" version="1.1" xmlns="http://www.w3.org/2000/svg" xmlns:xlink="http://www.w3.org/1999/xlink">
    <!-- Generator: Sketch 51.1 (57501) - http://www.bohemiancoding.com/sketch -->
    <title>Group 6</title>
    <desc>Created with Sketch.</desc>
    <defs></defs>
    <g id="Page-1" stroke="none" stroke-width="1" fill="none" fill-rule="evenodd">
        <g id="FIN111-Copy-5" transform="translate(-294.000000, -552.000000)">
            <g id="top_artists" transform="translate(270.000000, 530.000000)">
                <g id="card_heading">
                    <g transform="translate(24.000000, 22.000000)">
                        <g id="Group-6">
                            <rect id="background-icon" fill="#FFC701" x="0" y="0" width="32" height="32"></rect>
                            <path d="M22.5037969,18.2868564 L19.1267695,16.6506496 L17.698757,15.9587115 C18.3224072,15.559626 18.8289614,14.9436938 19.1604103,14.2015962 C19.4234993,13.6123865 19.5800588,12.9456377 19.5800588,12.2324531 C19.5800588,11.8322724 19.5175213,11.4522431 19.4304,11.085575 C19.0057917,9.30896546 17.6396698,8 15.9996765,8 C14.3907364,8 13.045101,9.26231057 12.5941837,10.9887607 C12.490242,11.3847797 12.4184316,11.7965693 12.4184316,12.2328912 C12.4184316,12.9905403 12.5926742,13.6969349 12.8887571,14.3113338 C13.2309884,15.0240804 13.7384051,15.6117568 14.3560173,15.9895957 L12.9883859,16.6364122 L9.50180989,18.2857612 C9.19904191,18.4298876 9,18.7768423 9,19.1643189 L9,22.463455 L9,23.0555122 C9,23.5770394 9.35775789,24 9.799618,24 L22.200382,24 C22.6420265,24 23,23.5772585 23,23.0555122 L23,22.463455 L23,19.1640998 C22.9995687,18.7779375 22.8037615,18.4342683 22.5037969,18.2868564 L22.5037969,18.2868564 Z" id="Shape" fill="#FFFFFF"></path>
                        </g>
                    </g>
                </g>
            </g>
        </g>
    </g>
</svg>