<?xml version="1.0" encoding="UTF-8"?>
<svg width="26px" height="27px" viewBox="0 0 26 27" version="1.1" xmlns="http://www.w3.org/2000/svg" xmlns:xlink="http://www.w3.org/1999/xlink">
    <!-- Generator: Sketch 52.5 (67469) - http://www.bohemiancoding.com/sketch -->
    <title>Icon/General/trash-can</title>
    <desc>Created with Sketch.</desc>
    <defs>
        <path d="M18.0322581,21.6107527 C18.0322581,22.0860215 17.6688172,22.4494624 17.1935484,22.4494624 C16.7182796,22.4494624 16.3548387,22.0860215 16.3548387,21.6107527 L16.3548387,8.19139785 C16.3548387,7.71612903 16.7182796,7.35268817 17.1935484,7.35268817 C17.6688172,7.35268817 18.0322581,7.71612903 18.0322581,8.19139785 L18.0322581,21.6107527 Z M16.1870968,3.57849462 L9.84086022,3.57849462 L9.84086022,1.95698925 C9.84086022,1.78924731 9.95268817,1.67741935 10.1204301,1.67741935 L15.9075269,1.67741935 C16.0752688,1.67741935 16.1870968,1.78924731 16.1870968,1.95698925 L16.1870968,3.57849462 Z M13.8387097,21.6107527 C13.8387097,22.0860215 13.4752688,22.4494624 13,22.4494624 C12.5247312,22.4494624 12.1612903,22.0860215 12.1612903,21.6107527 L12.1612903,8.19139785 C12.1612903,7.71612903 12.5247312,7.35268817 13,7.35268817 C13.4752688,7.35268817 13.8387097,7.71612903 13.8387097,8.19139785 L13.8387097,21.6107527 Z M9.64516129,21.6107527 C9.64516129,22.0860215 9.28172043,22.4494624 8.80645161,22.4494624 C8.3311828,22.4494624 7.96774194,22.0860215 7.96774194,21.6107527 L7.96774194,8.19139785 C7.96774194,7.71612903 8.3311828,7.35268817 8.80645161,7.35268817 C9.28172043,7.35268817 9.64516129,7.71612903 9.64516129,8.19139785 L9.64516129,21.6107527 Z M25.1612903,3.57849462 L17.8365591,3.57849462 L17.8365591,1.95698925 C17.8365591,0.866666667 16.9698925,5.32907052e-15 15.8795699,5.32907052e-15 L10.1204301,5.32907052e-15 C9.03010753,5.32907052e-15 8.16344086,0.866666667 8.16344086,1.95698925 L8.16344086,3.57849462 L0.838709677,3.57849462 C0.36344086,3.57849462 0,3.94193548 0,4.4172043 C0,4.89247312 0.391397849,5.25591398 0.838709677,5.25591398 L3.24301075,5.25591398 L3.88602151,23.9870968 C3.94193548,25.3569892 5.03225806,26.4193548 6.40215054,26.4193548 L19.5978495,26.4193548 C20.9677419,26.4193548 22.0580645,25.3569892 22.1139785,23.9870968 L22.7569892,5.25591398 L25.1612903,5.25591398 C25.6365591,5.25591398 26,4.89247312 26,4.4172043 C26,3.94193548 25.6365591,3.57849462 25.1612903,3.57849462 L25.1612903,3.57849462 Z" id="path-1"></path>
    </defs>
    <g id="Icons" stroke="none" stroke-width="1" fill="none" fill-rule="evenodd">
        <g id="Iconography" transform="translate(-847.000000, -506.000000)">
            <g id="Icon/General/trash-can" transform="translate(836.000000, 496.000000)">
                <g id="Icon" transform="translate(11.000000, 10.000000)">
                    <mask id="mask-2" fill="white">
                        <use xlink:href="#path-1"></use>
                    </mask>
                    <use id="Mask" fill="#333333" xlink:href="#path-1"></use>
                    <g id="-Color/Brand/Secondary" mask="url(#mask-2)" fill="#2B2B2B">
                        <g transform="translate(-11.000000, -10.000000)" id="Swatch">
                            <rect x="0" y="0" width="48" height="48"></rect>
                        </g>
                    </g>
                </g>
            </g>
        </g>
    </g>
</svg>