<?xml version="1.0" encoding="UTF-8"?>
<svg width="17px" height="12px" viewBox="0 0 17 12" version="1.1" xmlns="http://www.w3.org/2000/svg" xmlns:xlink="http://www.w3.org/1999/xlink">
    <!-- Generator: Sketch 52.5 (67469) - http://www.bohemiancoding.com/sketch -->
    <title>Icon/General/inspect 1</title>
    <desc>Created with Sketch.</desc>
    <defs>
        <path d="M15.1766774,16.9397045 L17.4899893,16.9397045 L17.4899893,14.6263926 L15.1766774,14.6263926 L15.1766774,16.9397045 Z M20.4567581,14.3207983 C19.0800177,13.0529357 17.6642854,12.3133119 16.3333333,12.3133119 C15.0023812,12.3133119 13.5866489,13.0529357 12.2099086,14.3207983 C11.7065769,14.7843247 11.2464988,15.2840097 10.8418264,15.7832799 C11.2464988,16.28255 11.7065769,16.782235 12.2099086,17.2457614 C13.5866489,18.513624 15.0023812,19.2532478 16.3333333,19.2532478 C17.6642854,19.2532478 19.0800177,18.513624 20.4567581,17.2457614 C20.9600897,16.782235 21.4201679,16.28255 21.8248403,15.7832799 C21.4201679,15.2840097 20.9600897,14.7843247 20.4567581,14.3207983 Z M24.2334065,16.4282521 C24.1180384,16.5999947 23.9130544,16.8804449 23.6266665,17.2341012 C23.1542091,17.817532 22.6178188,18.4004224 22.0238453,18.9474222 C20.2606262,20.5711995 18.3553823,21.5665597 16.3333333,21.5665597 C14.3112843,21.5665597 12.4060405,20.5711995 10.6428213,18.9474222 C10.0488478,18.4004224 9.51245759,17.817532 9.04000015,17.2341012 C8.75361224,16.8804449 8.54862823,16.5999947 8.43326013,16.4282521 L8,15.7832799 L8.43326013,15.1383076 C8.54862823,14.966565 8.75361224,14.6861148 9.04000015,14.3324585 C9.51245759,13.7490277 10.0488478,13.1661374 10.6428213,12.6191375 C12.4060405,10.9953602 14.3112843,10 16.3333333,10 C18.3553823,10 20.2606262,10.9953602 22.0238453,12.6191375 C22.6178188,13.1661374 23.1542091,13.7490277 23.6266665,14.3324585 C23.9130544,14.6861148 24.1180384,14.966565 24.2334065,15.1383076 L24.6666667,15.7832799 L24.2334065,16.4282521 Z" id="path-1"></path>
    </defs>
    <g id="Symbols" stroke="none" stroke-width="1" fill="none" fill-rule="evenodd">
        <g id="List/Uploading-/List-item-hover" transform="translate(-1293.000000, -29.000000)">
            <g id="Icon/General/inspect" transform="translate(1285.000000, 19.000000)">
                <g id="Icon">
                    <mask id="mask-2" fill="white">
                        <use xlink:href="#path-1"></use>
                    </mask>
                    <use id="Mask" fill="#000000" fill-rule="nonzero" xlink:href="#path-1"></use>
                    <g id="Color/Grayscale/10" mask="url(#mask-2)" fill="#2B2B2B">
                        <rect id="Swatch" x="0" y="0" width="32" height="32"></rect>
                    </g>
                </g>
            </g>
        </g>
    </g>
</svg>