<?xml version="1.0" encoding="UTF-8"?>
<svg width="38px" height="38px" viewBox="0 0 38 38" version="1.1" xmlns="http://www.w3.org/2000/svg" xmlns:xlink="http://www.w3.org/1999/xlink">
    <!-- Generator: Sketch 52.5 (67469) - http://www.bohemiancoding.com/sketch -->
    <title>Icon/Store/spotify</title>
    <desc>Created with Sketch.</desc>
    <g id="Page-1" stroke="none" stroke-width="1" fill="none" fill-rule="evenodd">
        <g id="Data_Data-Pipelines" transform="translate(-293.000000, -298.000000)" fill="#00DA5A">
            <g id="Group" transform="translate(268.000000, 265.000000)">
                <g id="Group-2" transform="translate(24.000000, 32.000000)">
                    <g id="Icon-/-List-/-Spotify">
                        <path d="M30.9571429,17.9571429 C25.0142857,14.4285714 15.0785714,14.0571429 9.41428571,15.8214286 C8.48571429,16.1 7.55714286,15.5428571 7.27857143,14.7071429 C7,13.7785714 7.55714286,12.85 8.39285714,12.5714286 C14.9857143,10.6214286 25.85,10.9928571 32.7214286,15.0785714 C33.5571429,15.5428571 33.8357143,16.6571429 33.3714286,17.4928571 C32.9071429,18.1428571 31.7928571,18.4214286 30.9571429,17.9571429 M30.7714286,23.1571429 C30.3071429,23.8071429 29.4714286,24.0857143 28.8214286,23.6214286 C23.8071429,20.5571429 16.1928571,19.6285714 10.3428571,21.4857143 C9.6,21.6714286 8.76428571,21.3 8.57857143,20.5571429 C8.39285714,19.8142857 8.76428571,18.9785714 9.50714286,18.7928571 C16.2857143,16.75 24.6428571,17.7714286 30.4,21.3 C30.9571429,21.5785714 31.2357143,22.5071429 30.7714286,23.1571429 M28.5428571,28.2642857 C28.1714286,28.8214286 27.5214286,29.0071429 26.9642857,28.6357143 C22.6,25.9428571 17.1214286,25.3857143 10.6214286,26.8714286 C9.97142857,27.0571429 9.41428571,26.5928571 9.22857143,26.0357143 C9.04285714,25.3857143 9.50714286,24.8285714 10.0642857,24.6428571 C17.1214286,23.0642857 23.25,23.7142857 28.0785714,26.6857143 C28.7285714,26.9642857 28.8214286,27.7071429 28.5428571,28.2642857 M20,1.42857143 C9.78571429,1.42857143 1.42857143,9.78571429 1.42857143,20 C1.42857143,30.2142857 9.78571429,38.5714286 20,38.5714286 C30.2142857,38.5714286 38.5714286,30.2142857 38.5714286,20 C38.5714286,9.78571429 30.3071429,1.42857143 20,1.42857143" id="Spotify-Copy"></path>
                    </g>
                </g>
            </g>
        </g>
    </g>
</svg>